<svg width="624" height="140" viewBox="0 0 624 140" fill="none" xmlns="http://www.w3.org/2000/svg">
<rect width="624" height="140" fill="white"/>
<rect x="117.5" y="47.5" width="47" height="30" stroke="black"/>
<path d="M126.057 67V58.2727H127.114V66.0625H131.17V67H126.057ZM135.415 67.1364C134.784 67.1364 134.24 66.9972 133.783 66.7188C133.328 66.4375 132.977 66.0455 132.73 65.5426C132.486 65.0369 132.364 64.4489 132.364 63.7784C132.364 63.108 132.486 62.517 132.73 62.0057C132.977 61.4915 133.321 61.0909 133.761 60.804C134.205 60.5142 134.722 60.3693 135.312 60.3693C135.653 60.3693 135.99 60.4261 136.322 60.5398C136.655 60.6534 136.957 60.8381 137.23 61.0938C137.503 61.3466 137.72 61.6818 137.882 62.0994C138.044 62.517 138.125 63.0312 138.125 63.642V64.0682H133.08V63.1989H137.102C137.102 62.8295 137.028 62.5 136.881 62.2102C136.736 61.9205 136.528 61.6918 136.259 61.5241C135.991 61.3565 135.676 61.2727 135.312 61.2727C134.912 61.2727 134.565 61.3722 134.273 61.571C133.983 61.767 133.76 62.0227 133.604 62.3381C133.447 62.6534 133.369 62.9915 133.369 63.3523V63.9318C133.369 64.4261 133.455 64.8452 133.625 65.1889C133.798 65.5298 134.038 65.7898 134.345 65.9688C134.652 66.1449 135.009 66.233 135.415 66.233C135.679 66.233 135.918 66.196 136.131 66.1222C136.347 66.0455 136.533 65.9318 136.689 65.7812C136.845 65.6278 136.966 65.4375 137.051 65.2102L138.023 65.483C137.92 65.8125 137.749 66.1023 137.507 66.3523C137.266 66.5994 136.967 66.7926 136.612 66.9318C136.257 67.0682 135.858 67.1364 135.415 67.1364ZM140.229 60.4545L141.797 63.1307L143.365 60.4545H144.525L142.411 63.7273L144.525 67H143.365L141.797 64.4602L140.229 67H139.07L141.15 63.7273L139.07 60.4545H140.229ZM148.434 67.1364C147.804 67.1364 147.26 66.9972 146.802 66.7188C146.348 66.4375 145.997 66.0455 145.75 65.5426C145.505 65.0369 145.383 64.4489 145.383 63.7784C145.383 63.108 145.505 62.517 145.75 62.0057C145.997 61.4915 146.341 61.0909 146.781 60.804C147.224 60.5142 147.741 60.3693 148.332 60.3693C148.673 60.3693 149.01 60.4261 149.342 60.5398C149.674 60.6534 149.977 60.8381 150.25 61.0938C150.522 61.3466 150.74 61.6818 150.902 62.0994C151.064 62.517 151.145 63.0312 151.145 63.642V64.0682H146.099V63.1989H150.122C150.122 62.8295 150.048 62.5 149.9 62.2102C149.755 61.9205 149.548 61.6918 149.278 61.5241C149.011 61.3565 148.696 61.2727 148.332 61.2727C147.931 61.2727 147.585 61.3722 147.292 61.571C147.002 61.767 146.779 62.0227 146.623 62.3381C146.467 62.6534 146.389 62.9915 146.389 63.3523V63.9318C146.389 64.4261 146.474 64.8452 146.645 65.1889C146.818 65.5298 147.058 65.7898 147.365 65.9688C147.672 66.1449 148.028 66.233 148.434 66.233C148.699 66.233 148.937 66.196 149.15 66.1222C149.366 66.0455 149.552 65.9318 149.708 65.7812C149.865 65.6278 149.985 65.4375 150.071 65.2102L151.042 65.483C150.94 65.8125 150.768 66.1023 150.527 66.3523C150.285 66.5994 149.987 66.7926 149.632 66.9318C149.277 67.0682 148.877 67.1364 148.434 67.1364ZM152.674 67V60.4545H153.646V61.4432H153.714C153.833 61.1193 154.049 60.8565 154.362 60.6548C154.674 60.4531 155.027 60.3523 155.419 60.3523C155.493 60.3523 155.585 60.3537 155.696 60.3565C155.806 60.3594 155.89 60.3636 155.947 60.3693V61.392C155.913 61.3835 155.835 61.3707 155.713 61.3537C155.593 61.3338 155.467 61.3239 155.333 61.3239C155.015 61.3239 154.731 61.3906 154.481 61.5241C154.234 61.6548 154.038 61.8366 153.893 62.0696C153.751 62.2997 153.68 62.5625 153.68 62.858V67H152.674Z" fill="black"/>
<rect x="284.5" y="47.5" width="52" height="30" stroke="black"/>
<path d="M293.057 67V58.2727H296.006C296.69 58.2727 297.25 58.3963 297.685 58.6435C298.122 58.8878 298.446 59.2188 298.656 59.6364C298.866 60.054 298.972 60.5199 298.972 61.0341C298.972 61.5483 298.866 62.0156 298.656 62.4361C298.449 62.8565 298.128 63.1918 297.693 63.4418C297.259 63.6889 296.702 63.8125 296.023 63.8125H293.909V62.875H295.989C296.457 62.875 296.834 62.794 297.118 62.6321C297.402 62.4702 297.608 62.2514 297.736 61.9759C297.866 61.6974 297.932 61.3835 297.932 61.0341C297.932 60.6847 297.866 60.3722 297.736 60.0966C297.608 59.821 297.401 59.6051 297.114 59.4489C296.827 59.2898 296.446 59.2102 295.972 59.2102H294.114V67H293.057ZM302.464 67.1534C302.049 67.1534 301.673 67.0753 301.335 66.919C300.996 66.7599 300.728 66.5312 300.529 66.233C300.33 65.9318 300.231 65.5682 300.231 65.142C300.231 64.767 300.305 64.4631 300.452 64.2301C300.6 63.9943 300.798 63.8097 301.045 63.6761C301.292 63.5426 301.565 63.4432 301.863 63.3778C302.164 63.3097 302.467 63.2557 302.771 63.2159C303.168 63.1648 303.491 63.1264 303.738 63.1009C303.988 63.0724 304.17 63.0256 304.283 62.9602C304.4 62.8949 304.458 62.7812 304.458 62.6193V62.5852C304.458 62.1648 304.343 61.8381 304.113 61.6051C303.886 61.3722 303.54 61.2557 303.077 61.2557C302.597 61.2557 302.221 61.3608 301.948 61.571C301.675 61.7812 301.484 62.0057 301.373 62.2443L300.418 61.9034C300.589 61.5057 300.816 61.196 301.1 60.9744C301.387 60.75 301.7 60.5937 302.038 60.5057C302.379 60.4148 302.714 60.3693 303.043 60.3693C303.254 60.3693 303.495 60.3949 303.768 60.446C304.043 60.4943 304.309 60.5952 304.565 60.7486C304.823 60.902 305.038 61.1335 305.208 61.4432C305.379 61.7528 305.464 62.1676 305.464 62.6875V67H304.458V66.1136H304.407C304.339 66.2557 304.225 66.4077 304.066 66.5696C303.907 66.7315 303.695 66.8693 303.431 66.983C303.167 67.0966 302.844 67.1534 302.464 67.1534ZM302.617 66.25C303.015 66.25 303.35 66.1719 303.623 66.0156C303.898 65.8594 304.106 65.6577 304.245 65.4105C304.387 65.1634 304.458 64.9034 304.458 64.6307V63.7102C304.415 63.7614 304.322 63.8082 304.177 63.8509C304.035 63.8906 303.87 63.9261 303.683 63.9574C303.498 63.9858 303.317 64.0114 303.141 64.0341C302.968 64.054 302.827 64.071 302.719 64.0852C302.458 64.1193 302.214 64.1747 301.987 64.2514C301.762 64.3253 301.58 64.4375 301.441 64.5881C301.305 64.7358 301.237 64.9375 301.237 65.1932C301.237 65.5426 301.366 65.8068 301.624 65.9858C301.886 66.1619 302.217 66.25 302.617 66.25ZM307.299 67V60.4545H308.271V61.4432H308.339C308.458 61.1193 308.674 60.8565 308.987 60.6548C309.299 60.4531 309.652 60.3523 310.044 60.3523C310.118 60.3523 310.21 60.3537 310.321 60.3565C310.431 60.3594 310.515 60.3636 310.572 60.3693V61.392C310.538 61.3835 310.46 61.3707 310.338 61.3537C310.218 61.3338 310.092 61.3239 309.958 61.3239C309.64 61.3239 309.356 61.3906 309.106 61.5241C308.859 61.6548 308.663 61.8366 308.518 62.0696C308.376 62.2997 308.305 62.5625 308.305 62.858V67H307.299ZM316.401 61.9205L315.497 62.1761C315.44 62.0256 315.357 61.8793 315.246 61.7372C315.138 61.5923 314.99 61.473 314.803 61.3793C314.615 61.2855 314.375 61.2386 314.082 61.2386C313.682 61.2386 313.348 61.331 313.081 61.5156C312.817 61.6974 312.685 61.929 312.685 62.2102C312.685 62.4602 312.776 62.6577 312.957 62.8026C313.139 62.9474 313.423 63.0682 313.81 63.1648L314.781 63.4034C315.366 63.5455 315.803 63.7628 316.089 64.0554C316.376 64.3452 316.52 64.7187 316.52 65.1761C316.52 65.5511 316.412 65.8864 316.196 66.1818C315.983 66.4773 315.685 66.7102 315.301 66.8807C314.918 67.0511 314.472 67.1364 313.963 67.1364C313.295 67.1364 312.743 66.9915 312.305 66.7017C311.868 66.4119 311.591 65.9886 311.474 65.4318L312.429 65.1932C312.52 65.5455 312.692 65.8097 312.945 65.9858C313.2 66.1619 313.534 66.25 313.946 66.25C314.415 66.25 314.787 66.1506 315.062 65.9517C315.341 65.75 315.48 65.5085 315.48 65.2273C315.48 65 315.401 64.8097 315.241 64.6562C315.082 64.5 314.838 64.3835 314.509 64.3068L313.418 64.0511C312.818 63.9091 312.378 63.6889 312.097 63.3906C311.818 63.0895 311.679 62.7131 311.679 62.2614C311.679 61.892 311.783 61.5653 311.99 61.2812C312.2 60.9972 312.486 60.7741 312.847 60.6122C313.21 60.4503 313.622 60.3693 314.082 60.3693C314.73 60.3693 315.239 60.5114 315.608 60.7955C315.98 61.0795 316.244 61.4545 316.401 61.9205ZM320.778 67.1364C320.147 67.1364 319.603 66.9972 319.146 66.7188C318.691 66.4375 318.341 66.0455 318.093 65.5426C317.849 65.0369 317.727 64.4489 317.727 63.7784C317.727 63.108 317.849 62.517 318.093 62.0057C318.341 61.4915 318.684 61.0909 319.125 60.804C319.568 60.5142 320.085 60.3693 320.676 60.3693C321.017 60.3693 321.353 60.4261 321.686 60.5398C322.018 60.6534 322.321 60.8381 322.593 61.0938C322.866 61.3466 323.083 61.6818 323.245 62.0994C323.407 62.517 323.488 63.0312 323.488 63.642V64.0682H318.443V63.1989H322.466C322.466 62.8295 322.392 62.5 322.244 62.2102C322.099 61.9205 321.892 61.6918 321.622 61.5241C321.355 61.3565 321.039 61.2727 320.676 61.2727C320.275 61.2727 319.929 61.3722 319.636 61.571C319.346 61.767 319.123 62.0227 318.967 62.3381C318.811 62.6534 318.733 62.9915 318.733 63.3523V63.9318C318.733 64.4261 318.818 64.8452 318.988 65.1889C319.162 65.5298 319.402 65.7898 319.708 65.9688C320.015 66.1449 320.372 66.233 320.778 66.233C321.042 66.233 321.281 66.196 321.494 66.1222C321.71 66.0455 321.896 65.9318 322.052 65.7812C322.208 65.6278 322.329 65.4375 322.414 65.2102L323.386 65.483C323.284 65.8125 323.112 66.1023 322.87 66.3523C322.629 66.5994 322.331 66.7926 321.975 66.9318C321.62 67.0682 321.221 67.1364 320.778 67.1364ZM325.018 67V60.4545H325.99V61.4432H326.058C326.177 61.1193 326.393 60.8565 326.706 60.6548C327.018 60.4531 327.37 60.3523 327.762 60.3523C327.836 60.3523 327.929 60.3537 328.039 60.3565C328.15 60.3594 328.234 60.3636 328.291 60.3693V61.392C328.257 61.3835 328.179 61.3707 328.056 61.3537C327.937 61.3338 327.811 61.3239 327.677 61.3239C327.359 61.3239 327.075 61.3906 326.825 61.5241C326.578 61.6548 326.382 61.8366 326.237 62.0696C326.095 62.2997 326.024 62.5625 326.024 62.858V67H325.018Z" fill="black"/>
<rect x="455.5" y="47.5" width="56" height="30" stroke="black"/>
<path d="M464.057 67V58.2727H469.324V59.2102H465.114V62.1591H469.051V63.0966H465.114V66.0625H469.392V67H464.057ZM471.092 67V60.4545H472.064V61.4773H472.149C472.286 61.1278 472.506 60.8565 472.81 60.6634C473.114 60.4673 473.479 60.3693 473.905 60.3693C474.337 60.3693 474.696 60.4673 474.983 60.6634C475.273 60.8565 475.499 61.1278 475.661 61.4773H475.729C475.896 61.1392 476.148 60.8707 476.483 60.6719C476.818 60.4702 477.22 60.3693 477.689 60.3693C478.274 60.3693 478.753 60.5526 479.125 60.919C479.497 61.2827 479.683 61.8494 479.683 62.6193V67H478.678V62.6193C478.678 62.1364 478.545 61.7912 478.281 61.5838C478.017 61.3764 477.706 61.2727 477.348 61.2727C476.888 61.2727 476.531 61.4119 476.278 61.6903C476.026 61.9659 475.899 62.3153 475.899 62.7386V67H474.876V62.517C474.876 62.1449 474.756 61.8452 474.514 61.6179C474.273 61.3878 473.962 61.2727 473.581 61.2727C473.32 61.2727 473.075 61.3423 472.848 61.4815C472.624 61.6207 472.442 61.8139 472.303 62.0611C472.166 62.3054 472.098 62.5881 472.098 62.9091V67H471.092ZM481.522 67V60.4545H482.528V67H481.522ZM482.033 59.3636C481.837 59.3636 481.668 59.2969 481.526 59.1634C481.387 59.0298 481.317 58.8693 481.317 58.6818C481.317 58.4943 481.387 58.3338 481.526 58.2003C481.668 58.0668 481.837 58 482.033 58C482.229 58 482.397 58.0668 482.536 58.2003C482.678 58.3338 482.749 58.4943 482.749 58.6818C482.749 58.8693 482.678 59.0298 482.536 59.1634C482.397 59.2969 482.229 59.3636 482.033 59.3636ZM487.216 60.4545V61.3068H483.824V60.4545H487.216ZM484.813 58.8864H485.819V65.125C485.819 65.4091 485.86 65.6222 485.942 65.7642C486.027 65.9034 486.135 65.9972 486.266 66.0455C486.4 66.0909 486.54 66.1136 486.688 66.1136C486.799 66.1136 486.89 66.108 486.961 66.0966C487.032 66.0824 487.088 66.071 487.131 66.0625L487.336 66.9659C487.267 66.9915 487.172 67.017 487.05 67.0426C486.928 67.071 486.773 67.0852 486.586 67.0852C486.301 67.0852 486.023 67.0241 485.75 66.902C485.48 66.7798 485.256 66.5938 485.077 66.3438C484.901 66.0938 484.813 65.7784 484.813 65.3977V58.8864ZM491.576 60.4545V61.3068H488.184V60.4545H491.576ZM489.172 58.8864H490.178V65.125C490.178 65.4091 490.219 65.6222 490.301 65.7642C490.387 65.9034 490.495 65.9972 490.625 66.0455C490.759 66.0909 490.9 66.1136 491.047 66.1136C491.158 66.1136 491.249 66.108 491.32 66.0966C491.391 66.0824 491.448 66.071 491.49 66.0625L491.695 66.9659C491.627 66.9915 491.532 67.017 491.409 67.0426C491.287 67.071 491.132 67.0852 490.945 67.0852C490.661 67.0852 490.382 67.0241 490.11 66.902C489.84 66.7798 489.615 66.5938 489.436 66.3438C489.26 66.0938 489.172 65.7784 489.172 65.3977V58.8864ZM495.762 67.1364C495.132 67.1364 494.588 66.9972 494.13 66.7188C493.676 66.4375 493.325 66.0455 493.078 65.5426C492.833 65.0369 492.711 64.4489 492.711 63.7784C492.711 63.108 492.833 62.517 493.078 62.0057C493.325 61.4915 493.669 61.0909 494.109 60.804C494.552 60.5142 495.069 60.3693 495.66 60.3693C496.001 60.3693 496.338 60.4261 496.67 60.5398C497.002 60.6534 497.305 60.8381 497.578 61.0938C497.85 61.3466 498.068 61.6818 498.23 62.0994C498.392 62.517 498.473 63.0312 498.473 63.642V64.0682H493.427V63.1989H497.45C497.45 62.8295 497.376 62.5 497.228 62.2102C497.083 61.9205 496.876 61.6918 496.606 61.5241C496.339 61.3565 496.024 61.2727 495.66 61.2727C495.26 61.2727 494.913 61.3722 494.62 61.571C494.331 61.767 494.108 62.0227 493.951 62.3381C493.795 62.6534 493.717 62.9915 493.717 63.3523V63.9318C493.717 64.4261 493.802 64.8452 493.973 65.1889C494.146 65.5298 494.386 65.7898 494.693 65.9688C495 66.1449 495.356 66.233 495.762 66.233C496.027 66.233 496.265 66.196 496.478 66.1222C496.694 66.0455 496.88 65.9318 497.037 65.7812C497.193 65.6278 497.314 65.4375 497.399 65.2102L498.37 65.483C498.268 65.8125 498.096 66.1023 497.855 66.3523C497.613 66.5994 497.315 66.7926 496.96 66.9318C496.605 67.0682 496.206 67.1364 495.762 67.1364ZM500.002 67V60.4545H500.974V61.4432H501.042C501.162 61.1193 501.377 60.8565 501.69 60.6548C502.002 60.4531 502.355 60.3523 502.747 60.3523C502.821 60.3523 502.913 60.3537 503.024 60.3565C503.135 60.3594 503.218 60.3636 503.275 60.3693V61.392C503.241 61.3835 503.163 61.3707 503.041 61.3537C502.922 61.3338 502.795 61.3239 502.662 61.3239C502.343 61.3239 502.059 61.3906 501.809 61.5241C501.562 61.6548 501.366 61.8366 501.221 62.0696C501.079 62.2997 501.008 62.5625 501.008 62.858V67H500.002Z" fill="black"/>
<rect x="359.5" y="97.5" width="85" height="30" stroke="black"/>
<path d="M367.58 109.21V108.273H374.125V109.21H371.381V117H370.324V109.21H367.58ZM374.94 117V110.455H375.912V111.443H375.98C376.099 111.119 376.315 110.857 376.627 110.655C376.94 110.453 377.292 110.352 377.684 110.352C377.758 110.352 377.85 110.354 377.961 110.357C378.072 110.359 378.156 110.364 378.213 110.369V111.392C378.179 111.384 378.1 111.371 377.978 111.354C377.859 111.334 377.733 111.324 377.599 111.324C377.281 111.324 376.997 111.391 376.747 111.524C376.5 111.655 376.304 111.837 376.159 112.07C376.017 112.3 375.946 112.562 375.946 112.858V117H374.94ZM381.331 117.153C380.916 117.153 380.54 117.075 380.202 116.919C379.864 116.76 379.595 116.531 379.396 116.233C379.197 115.932 379.098 115.568 379.098 115.142C379.098 114.767 379.172 114.463 379.32 114.23C379.467 113.994 379.665 113.81 379.912 113.676C380.159 113.543 380.432 113.443 380.73 113.378C381.031 113.31 381.334 113.256 381.638 113.216C382.036 113.165 382.358 113.126 382.605 113.101C382.855 113.072 383.037 113.026 383.151 112.96C383.267 112.895 383.325 112.781 383.325 112.619V112.585C383.325 112.165 383.21 111.838 382.98 111.605C382.753 111.372 382.408 111.256 381.945 111.256C381.464 111.256 381.088 111.361 380.815 111.571C380.543 111.781 380.351 112.006 380.24 112.244L379.286 111.903C379.456 111.506 379.683 111.196 379.967 110.974C380.254 110.75 380.567 110.594 380.905 110.506C381.246 110.415 381.581 110.369 381.911 110.369C382.121 110.369 382.362 110.395 382.635 110.446C382.911 110.494 383.176 110.595 383.432 110.749C383.69 110.902 383.905 111.134 384.075 111.443C384.246 111.753 384.331 112.168 384.331 112.688V117H383.325V116.114H383.274C383.206 116.256 383.092 116.408 382.933 116.57C382.774 116.732 382.563 116.869 382.298 116.983C382.034 117.097 381.712 117.153 381.331 117.153ZM381.484 116.25C381.882 116.25 382.217 116.172 382.49 116.016C382.766 115.859 382.973 115.658 383.112 115.411C383.254 115.163 383.325 114.903 383.325 114.631V113.71C383.283 113.761 383.189 113.808 383.044 113.851C382.902 113.891 382.737 113.926 382.55 113.957C382.365 113.986 382.185 114.011 382.009 114.034C381.835 114.054 381.695 114.071 381.587 114.085C381.325 114.119 381.081 114.175 380.854 114.251C380.629 114.325 380.447 114.437 380.308 114.588C380.172 114.736 380.104 114.937 380.104 115.193C380.104 115.543 380.233 115.807 380.491 115.986C380.753 116.162 381.084 116.25 381.484 116.25ZM387.172 113.062V117H386.167V110.455H387.138V111.477H387.223C387.377 111.145 387.61 110.878 387.922 110.676C388.235 110.472 388.638 110.369 389.132 110.369C389.576 110.369 389.963 110.46 390.296 110.642C390.628 110.821 390.887 111.094 391.071 111.46C391.256 111.824 391.348 112.284 391.348 112.841V117H390.343V112.909C390.343 112.395 390.209 111.994 389.942 111.707C389.675 111.418 389.309 111.273 388.843 111.273C388.522 111.273 388.235 111.342 387.982 111.482C387.732 111.621 387.534 111.824 387.39 112.091C387.245 112.358 387.172 112.682 387.172 113.062ZM397.822 111.92L396.919 112.176C396.862 112.026 396.778 111.879 396.668 111.737C396.56 111.592 396.412 111.473 396.224 111.379C396.037 111.286 395.797 111.239 395.504 111.239C395.104 111.239 394.77 111.331 394.503 111.516C394.239 111.697 394.107 111.929 394.107 112.21C394.107 112.46 394.197 112.658 394.379 112.803C394.561 112.947 394.845 113.068 395.232 113.165L396.203 113.403C396.788 113.545 397.224 113.763 397.511 114.055C397.798 114.345 397.942 114.719 397.942 115.176C397.942 115.551 397.834 115.886 397.618 116.182C397.405 116.477 397.107 116.71 396.723 116.881C396.339 117.051 395.893 117.136 395.385 117.136C394.717 117.136 394.165 116.991 393.727 116.702C393.29 116.412 393.013 115.989 392.896 115.432L393.851 115.193C393.942 115.545 394.114 115.81 394.366 115.986C394.622 116.162 394.956 116.25 395.368 116.25C395.837 116.25 396.209 116.151 396.484 115.952C396.763 115.75 396.902 115.509 396.902 115.227C396.902 115 396.822 114.81 396.663 114.656C396.504 114.5 396.26 114.384 395.93 114.307L394.839 114.051C394.24 113.909 393.8 113.689 393.518 113.391C393.24 113.089 393.101 112.713 393.101 112.261C393.101 111.892 393.205 111.565 393.412 111.281C393.622 110.997 393.908 110.774 394.268 110.612C394.632 110.45 395.044 110.369 395.504 110.369C396.152 110.369 396.661 110.511 397.03 110.795C397.402 111.08 397.666 111.455 397.822 111.92ZM402.37 110.455V111.307H398.842V110.455H402.37ZM399.899 117V109.551C399.899 109.176 399.987 108.864 400.163 108.614C400.339 108.364 400.568 108.176 400.849 108.051C401.13 107.926 401.427 107.864 401.74 107.864C401.987 107.864 402.189 107.884 402.345 107.923C402.501 107.963 402.618 108 402.694 108.034L402.404 108.903C402.353 108.886 402.282 108.865 402.191 108.839C402.103 108.814 401.987 108.801 401.842 108.801C401.51 108.801 401.27 108.885 401.122 109.053C400.977 109.22 400.904 109.466 400.904 109.79V117H399.899ZM406.169 117.136C405.578 117.136 405.06 116.996 404.614 116.714C404.171 116.433 403.824 116.04 403.574 115.534C403.327 115.028 403.203 114.437 403.203 113.761C403.203 113.08 403.327 112.484 403.574 111.976C403.824 111.467 404.171 111.072 404.614 110.791C405.06 110.51 405.578 110.369 406.169 110.369C406.76 110.369 407.277 110.51 407.721 110.791C408.167 111.072 408.513 111.467 408.76 111.976C409.01 112.484 409.135 113.08 409.135 113.761C409.135 114.437 409.01 115.028 408.76 115.534C408.513 116.04 408.167 116.433 407.721 116.714C407.277 116.996 406.76 117.136 406.169 117.136ZM406.169 116.233C406.618 116.233 406.988 116.118 407.277 115.888C407.567 115.658 407.782 115.355 407.921 114.98C408.06 114.605 408.13 114.199 408.13 113.761C408.13 113.324 408.06 112.916 407.921 112.538C407.782 112.161 407.567 111.855 407.277 111.622C406.988 111.389 406.618 111.273 406.169 111.273C405.721 111.273 405.351 111.389 405.061 111.622C404.772 111.855 404.557 112.161 404.418 112.538C404.279 112.916 404.209 113.324 404.209 113.761C404.209 114.199 404.279 114.605 404.418 114.98C404.557 115.355 404.772 115.658 405.061 115.888C405.351 116.118 405.721 116.233 406.169 116.233ZM410.67 117V110.455H411.642V111.443H411.71C411.83 111.119 412.045 110.857 412.358 110.655C412.67 110.453 413.023 110.352 413.415 110.352C413.489 110.352 413.581 110.354 413.692 110.357C413.803 110.359 413.886 110.364 413.943 110.369V111.392C413.909 111.384 413.831 111.371 413.709 111.354C413.589 111.334 413.463 111.324 413.33 111.324C413.011 111.324 412.727 111.391 412.477 111.524C412.23 111.655 412.034 111.837 411.889 112.07C411.747 112.3 411.676 112.562 411.676 112.858V117H410.67ZM415.135 117V110.455H416.107V111.477H416.192C416.328 111.128 416.549 110.857 416.853 110.663C417.157 110.467 417.522 110.369 417.948 110.369C418.38 110.369 418.739 110.467 419.026 110.663C419.316 110.857 419.542 111.128 419.703 111.477H419.772C419.939 111.139 420.191 110.871 420.526 110.672C420.861 110.47 421.263 110.369 421.732 110.369C422.317 110.369 422.796 110.553 423.168 110.919C423.54 111.283 423.726 111.849 423.726 112.619V117H422.721V112.619C422.721 112.136 422.588 111.791 422.324 111.584C422.06 111.376 421.749 111.273 421.391 111.273C420.931 111.273 420.574 111.412 420.321 111.69C420.069 111.966 419.942 112.315 419.942 112.739V117H418.919V112.517C418.919 112.145 418.799 111.845 418.557 111.618C418.316 111.388 418.005 111.273 417.624 111.273C417.363 111.273 417.118 111.342 416.891 111.482C416.667 111.621 416.485 111.814 416.346 112.061C416.209 112.305 416.141 112.588 416.141 112.909V117H415.135ZM428.309 117.136C427.679 117.136 427.135 116.997 426.677 116.719C426.223 116.438 425.872 116.045 425.625 115.543C425.38 115.037 425.258 114.449 425.258 113.778C425.258 113.108 425.38 112.517 425.625 112.006C425.872 111.491 426.216 111.091 426.656 110.804C427.099 110.514 427.616 110.369 428.207 110.369C428.548 110.369 428.885 110.426 429.217 110.54C429.549 110.653 429.852 110.838 430.125 111.094C430.397 111.347 430.615 111.682 430.777 112.099C430.939 112.517 431.02 113.031 431.02 113.642V114.068H425.974V113.199H429.997C429.997 112.83 429.923 112.5 429.775 112.21C429.63 111.92 429.423 111.692 429.153 111.524C428.886 111.357 428.571 111.273 428.207 111.273C427.806 111.273 427.46 111.372 427.167 111.571C426.877 111.767 426.654 112.023 426.498 112.338C426.342 112.653 426.264 112.991 426.264 113.352V113.932C426.264 114.426 426.349 114.845 426.52 115.189C426.693 115.53 426.933 115.79 427.24 115.969C427.547 116.145 427.903 116.233 428.309 116.233C428.574 116.233 428.812 116.196 429.025 116.122C429.241 116.045 429.427 115.932 429.583 115.781C429.74 115.628 429.86 115.437 429.946 115.21L430.917 115.483C430.815 115.812 430.643 116.102 430.402 116.352C430.16 116.599 429.862 116.793 429.507 116.932C429.152 117.068 428.752 117.136 428.309 117.136ZM432.549 117V110.455H433.521V111.443H433.589C433.708 111.119 433.924 110.857 434.237 110.655C434.549 110.453 434.902 110.352 435.294 110.352C435.368 110.352 435.46 110.354 435.571 110.357C435.681 110.359 435.765 110.364 435.822 110.369V111.392C435.788 111.384 435.71 111.371 435.588 111.354C435.468 111.334 435.342 111.324 435.208 111.324C434.89 111.324 434.606 111.391 434.356 111.524C434.109 111.655 433.913 111.837 433.768 112.07C433.626 112.3 433.555 112.562 433.555 112.858V117H432.549Z" fill="black"/>
<rect x="10.5" y="12.5" width="93" height="34" rx="7.5" fill="#2CA02C"/>
<rect x="10.5" y="12.5" width="93" height="34" rx="7.5" stroke="black"/>
<path d="M25.8295 27.4545C25.7784 27.0227 25.571 26.6875 25.2074 26.4489C24.8438 26.2102 24.3977 26.0909 23.8693 26.0909C23.483 26.0909 23.1449 26.1534 22.8551 26.2784C22.5682 26.4034 22.3438 26.5753 22.1818 26.794C22.0227 27.0128 21.9432 27.2614 21.9432 27.5398C21.9432 27.7727 21.9986 27.973 22.1094 28.1406C22.223 28.3054 22.3679 28.4432 22.544 28.554C22.7202 28.6619 22.9048 28.7514 23.098 28.8224C23.2912 28.8906 23.4688 28.946 23.6307 28.9886L24.517 29.2273C24.7443 29.2869 24.9972 29.3693 25.2756 29.4744C25.5568 29.5795 25.8253 29.723 26.081 29.9048C26.3395 30.0838 26.5526 30.3139 26.7202 30.5952C26.8878 30.8764 26.9716 31.2216 26.9716 31.6307C26.9716 32.1023 26.848 32.5284 26.6009 32.9091C26.3565 33.2898 25.9986 33.5923 25.527 33.8168C25.0582 34.0412 24.4886 34.1534 23.8182 34.1534C23.1932 34.1534 22.652 34.0526 22.1946 33.8509C21.7401 33.6491 21.3821 33.3679 21.1207 33.0071C20.8622 32.6463 20.7159 32.2273 20.6818 31.75H21.7727C21.8011 32.0795 21.9119 32.3523 22.1051 32.5682C22.3011 32.7812 22.5483 32.9403 22.8466 33.0455C23.1477 33.1477 23.4716 33.1989 23.8182 33.1989C24.2216 33.1989 24.5838 33.1335 24.9048 33.0028C25.2259 32.8693 25.4801 32.6847 25.6676 32.4489C25.8551 32.2102 25.9489 31.9318 25.9489 31.6136C25.9489 31.3239 25.8679 31.0881 25.706 30.9062C25.544 30.7244 25.331 30.5767 25.0668 30.4631C24.8026 30.3494 24.517 30.25 24.2102 30.1648L23.1364 29.858C22.4545 29.6619 21.9148 29.3821 21.517 29.0185C21.1193 28.6548 20.9205 28.179 20.9205 27.5909C20.9205 27.1023 21.0526 26.6761 21.3168 26.3125C21.5838 25.946 21.9418 25.6619 22.3906 25.4602C22.8423 25.2557 23.3466 25.1534 23.9034 25.1534C24.4659 25.1534 24.9659 25.2543 25.4034 25.456C25.8409 25.6548 26.1875 25.9276 26.4432 26.2741C26.7017 26.6207 26.8381 27.0142 26.8523 27.4545H25.8295ZM31.2319 34.1364C30.641 34.1364 30.1225 33.9957 29.6765 33.7145C29.2333 33.4332 28.8867 33.0398 28.6367 32.5341C28.3896 32.0284 28.266 31.4375 28.266 30.7614C28.266 30.0795 28.3896 29.4844 28.6367 28.9759C28.8867 28.4673 29.2333 28.0724 29.6765 27.7912C30.1225 27.5099 30.641 27.3693 31.2319 27.3693C31.8228 27.3693 32.3398 27.5099 32.783 27.7912C33.229 28.0724 33.5756 28.4673 33.8228 28.9759C34.0728 29.4844 34.1978 30.0795 34.1978 30.7614C34.1978 31.4375 34.0728 32.0284 33.8228 32.5341C33.5756 33.0398 33.229 33.4332 32.783 33.7145C32.3398 33.9957 31.8228 34.1364 31.2319 34.1364ZM31.2319 33.233C31.6808 33.233 32.0501 33.1179 32.3398 32.8878C32.6296 32.6577 32.8441 32.3551 32.9833 31.9801C33.1225 31.6051 33.1921 31.1989 33.1921 30.7614C33.1921 30.3239 33.1225 29.9162 32.9833 29.5384C32.8441 29.1605 32.6296 28.8551 32.3398 28.6222C32.0501 28.3892 31.6808 28.2727 31.2319 28.2727C30.783 28.2727 30.4137 28.3892 30.1239 28.6222C29.8342 28.8551 29.6197 29.1605 29.4805 29.5384C29.3413 29.9162 29.2717 30.3239 29.2717 30.7614C29.2717 31.1989 29.3413 31.6051 29.4805 31.9801C29.6197 32.3551 29.8342 32.6577 30.1239 32.8878C30.4137 33.1179 30.783 33.233 31.2319 33.233ZM39.858 31.3239V27.4545H40.8636V34H39.858V32.892H39.7898C39.6364 33.2244 39.3977 33.5071 39.0739 33.7401C38.75 33.9702 38.3409 34.0852 37.8466 34.0852C37.4375 34.0852 37.0739 33.9957 36.7557 33.8168C36.4375 33.6349 36.1875 33.3622 36.0057 32.9986C35.8239 32.6321 35.733 32.1705 35.733 31.6136V27.4545H36.7386V31.5455C36.7386 32.0227 36.8722 32.4034 37.1392 32.6875C37.4091 32.9716 37.7528 33.1136 38.1705 33.1136C38.4205 33.1136 38.6747 33.0497 38.9332 32.9219C39.1946 32.794 39.4134 32.598 39.5895 32.3338C39.7685 32.0696 39.858 31.733 39.858 31.3239ZM42.7056 34V27.4545H43.6772V28.4432H43.7454C43.8647 28.1193 44.0806 27.8565 44.3931 27.6548C44.7056 27.4531 45.0579 27.3523 45.4499 27.3523C45.5238 27.3523 45.6161 27.3537 45.7269 27.3565C45.8377 27.3594 45.9215 27.3636 45.9783 27.3693V28.392C45.9442 28.3835 45.8661 28.3707 45.744 28.3537C45.6246 28.3338 45.4982 28.3239 45.3647 28.3239C45.0465 28.3239 44.7624 28.3906 44.5124 28.5241C44.2653 28.6548 44.0692 28.8366 43.9244 29.0696C43.7823 29.2997 43.7113 29.5625 43.7113 29.858V34H42.7056ZM49.6303 34.1364C49.0167 34.1364 48.4883 33.9915 48.0451 33.7017C47.6019 33.4119 47.261 33.0128 47.0224 32.5043C46.7837 31.9957 46.6644 31.4148 46.6644 30.7614C46.6644 30.0966 46.7866 29.5099 47.0309 29.0014C47.2781 28.4901 47.6218 28.0909 48.0621 27.804C48.5053 27.5142 49.0224 27.3693 49.6133 27.3693C50.0735 27.3693 50.4883 27.4545 50.8576 27.625C51.2269 27.7955 51.5295 28.0341 51.7653 28.3409C52.0011 28.6477 52.1474 29.0057 52.2042 29.4148H51.1985C51.1218 29.1165 50.9513 28.8523 50.6871 28.6222C50.4258 28.3892 50.0735 28.2727 49.6303 28.2727C49.2383 28.2727 48.8945 28.375 48.5991 28.5795C48.3065 28.7812 48.0778 29.0668 47.913 29.4361C47.7511 29.8026 47.6701 30.233 47.6701 30.7273C47.6701 31.233 47.7496 31.6733 47.9087 32.0483C48.0707 32.4233 48.2979 32.7145 48.5906 32.9219C48.886 33.1293 49.2326 33.233 49.6303 33.233C49.8917 33.233 50.1289 33.1875 50.342 33.0966C50.555 33.0057 50.7354 32.875 50.8832 32.7045C51.0309 32.5341 51.136 32.3295 51.1985 32.0909H52.2042C52.1474 32.4773 52.0067 32.8253 51.7823 33.1349C51.5607 33.4418 51.2667 33.6861 50.9002 33.8679C50.5366 34.0469 50.1133 34.1364 49.6303 34.1364ZM56.4187 34.1364C55.788 34.1364 55.244 33.9972 54.7866 33.7188C54.332 33.4375 53.9812 33.0455 53.734 32.5426C53.4897 32.0369 53.3675 31.4489 53.3675 30.7784C53.3675 30.108 53.4897 29.517 53.734 29.0057C53.9812 28.4915 54.3249 28.0909 54.7653 27.804C55.2085 27.5142 55.7255 27.3693 56.3164 27.3693C56.6573 27.3693 56.994 27.4261 57.3263 27.5398C57.6587 27.6534 57.9613 27.8381 58.234 28.0938C58.5067 28.3466 58.7241 28.6818 58.886 29.0994C59.0479 29.517 59.1289 30.0312 59.1289 30.642V31.0682H54.0835V30.1989H58.1062C58.1062 29.8295 58.0323 29.5 57.8846 29.2102C57.7397 28.9205 57.5323 28.6918 57.2624 28.5241C56.9954 28.3565 56.68 28.2727 56.3164 28.2727C55.9158 28.2727 55.5692 28.3722 55.2766 28.571C54.9869 28.767 54.7638 29.0227 54.6076 29.3381C54.4513 29.6534 54.3732 29.9915 54.3732 30.3523V30.9318C54.3732 31.4261 54.4585 31.8452 54.6289 32.1889C54.8022 32.5298 55.0423 32.7898 55.3491 32.9688C55.6559 33.1449 56.0124 33.233 56.4187 33.233C56.6829 33.233 56.9215 33.196 57.1346 33.1222C57.3505 33.0455 57.5366 32.9318 57.6928 32.7812C57.8491 32.6278 57.9698 32.4375 58.055 32.2102L59.0266 32.483C58.9244 32.8125 58.7525 33.1023 58.511 33.3523C58.2695 33.5994 57.9712 33.7926 57.6161 33.9318C57.261 34.0682 56.8619 34.1364 56.4187 34.1364ZM71.1928 28H70.136C70.0735 27.696 69.9641 27.429 69.8079 27.1989C69.6545 26.9688 69.467 26.7756 69.2454 26.6193C69.0266 26.4602 68.7837 26.3409 68.5167 26.2614C68.2496 26.1818 67.9712 26.142 67.6815 26.142C67.1531 26.142 66.6744 26.2756 66.2454 26.5426C65.8192 26.8097 65.4798 27.2031 65.2269 27.723C64.9769 28.2429 64.8519 28.8807 64.8519 29.6364C64.8519 30.392 64.9769 31.0298 65.2269 31.5497C65.4798 32.0696 65.8192 32.4631 66.2454 32.7301C66.6744 32.9972 67.1531 33.1307 67.6815 33.1307C67.9712 33.1307 68.2496 33.0909 68.5167 33.0114C68.7837 32.9318 69.0266 32.8139 69.2454 32.6577C69.467 32.4986 69.6545 32.304 69.8079 32.0739C69.9641 31.8409 70.0735 31.5739 70.136 31.2727H71.1928C71.1133 31.7187 70.9684 32.1179 70.7582 32.4702C70.5479 32.8224 70.2866 33.1222 69.9741 33.3693C69.6616 33.6136 69.3107 33.7997 68.9215 33.9276C68.5352 34.0554 68.1218 34.1193 67.6815 34.1193C66.9371 34.1193 66.2752 33.9375 65.6957 33.5739C65.1161 33.2102 64.6602 32.6932 64.3278 32.0227C63.9954 31.3523 63.8292 30.5568 63.8292 29.6364C63.8292 28.7159 63.9954 27.9205 64.3278 27.25C64.6602 26.5795 65.1161 26.0625 65.6957 25.6989C66.2752 25.3352 66.9371 25.1534 67.6815 25.1534C68.1218 25.1534 68.5352 25.2173 68.9215 25.3452C69.3107 25.473 69.6616 25.6605 69.9741 25.9077C70.2866 26.152 70.5479 26.4503 70.7582 26.8026C70.9684 27.152 71.1133 27.5511 71.1928 28ZM75.4233 34.1364C74.8324 34.1364 74.3139 33.9957 73.8679 33.7145C73.4247 33.4332 73.0781 33.0398 72.8281 32.5341C72.581 32.0284 72.4574 31.4375 72.4574 30.7614C72.4574 30.0795 72.581 29.4844 72.8281 28.9759C73.0781 28.4673 73.4247 28.0724 73.8679 27.7912C74.3139 27.5099 74.8324 27.3693 75.4233 27.3693C76.0142 27.3693 76.5313 27.5099 76.9744 27.7912C77.4205 28.0724 77.767 28.4673 78.0142 28.9759C78.2642 29.4844 78.3892 30.0795 78.3892 30.7614C78.3892 31.4375 78.2642 32.0284 78.0142 32.5341C77.767 33.0398 77.4205 33.4332 76.9744 33.7145C76.5313 33.9957 76.0142 34.1364 75.4233 34.1364ZM75.4233 33.233C75.8722 33.233 76.2415 33.1179 76.5312 32.8878C76.821 32.6577 77.0355 32.3551 77.1747 31.9801C77.3139 31.6051 77.3835 31.1989 77.3835 30.7614C77.3835 30.3239 77.3139 29.9162 77.1747 29.5384C77.0355 29.1605 76.821 28.8551 76.5312 28.6222C76.2415 28.3892 75.8722 28.2727 75.4233 28.2727C74.9744 28.2727 74.6051 28.3892 74.3153 28.6222C74.0256 28.8551 73.8111 29.1605 73.6719 29.5384C73.5327 29.9162 73.4631 30.3239 73.4631 30.7614C73.4631 31.1989 73.5327 31.6051 73.6719 31.9801C73.8111 32.3551 74.0256 32.6577 74.3153 32.8878C74.6051 33.1179 74.9744 33.233 75.4233 33.233ZM82.396 34.1364C81.8505 34.1364 81.369 33.9986 80.9513 33.723C80.5337 33.4446 80.207 33.0526 79.9712 32.5469C79.7354 32.0384 79.6175 31.4375 79.6175 30.7443C79.6175 30.0568 79.7354 29.4602 79.9712 28.9545C80.207 28.4489 80.5352 28.0582 80.9556 27.7827C81.3761 27.5071 81.8619 27.3693 82.413 27.3693C82.8391 27.3693 83.1758 27.4403 83.4229 27.5824C83.6729 27.7216 83.8633 27.8807 83.994 28.0597C84.1275 28.2358 84.2312 28.3807 84.305 28.4943H84.3903V25.2727H85.396V34H84.4244V32.9943H84.305C84.2312 33.1136 84.1261 33.2642 83.9897 33.446C83.8533 33.625 83.6587 33.7855 83.4059 33.9276C83.1531 34.0668 82.8164 34.1364 82.396 34.1364ZM82.5323 33.233C82.9357 33.233 83.2766 33.1278 83.555 32.9176C83.8335 32.7045 84.0451 32.4105 84.19 32.0355C84.3349 31.6577 84.4073 31.2216 84.4073 30.7273C84.4073 30.2386 84.3363 29.8111 84.1942 29.4446C84.0522 29.0753 83.842 28.7884 83.5636 28.5838C83.2852 28.3764 82.9414 28.2727 82.5323 28.2727C82.1062 28.2727 81.7511 28.3821 81.467 28.6009C81.1857 28.8168 80.9741 29.1108 80.832 29.483C80.6928 29.8523 80.6232 30.267 80.6232 30.7273C80.6232 31.1932 80.6942 31.6165 80.8363 31.9972C80.9812 32.375 81.1942 32.6761 81.4755 32.9006C81.7596 33.1222 82.1119 33.233 82.5323 33.233ZM90.1218 34.1364C89.4911 34.1364 88.9471 33.9972 88.4897 33.7188C88.0352 33.4375 87.6843 33.0455 87.4371 32.5426C87.1928 32.0369 87.0707 31.4489 87.0707 30.7784C87.0707 30.108 87.1928 29.517 87.4371 29.0057C87.6843 28.4915 88.0281 28.0909 88.4684 27.804C88.9116 27.5142 89.4286 27.3693 90.0195 27.3693C90.3604 27.3693 90.6971 27.4261 91.0295 27.5398C91.3619 27.6534 91.6644 27.8381 91.9371 28.0938C92.2099 28.3466 92.4272 28.6818 92.5891 29.0994C92.7511 29.517 92.832 30.0312 92.832 30.642V31.0682H87.7866V30.1989H91.8093C91.8093 29.8295 91.7354 29.5 91.5877 29.2102C91.4428 28.9205 91.2354 28.6918 90.9656 28.5241C90.6985 28.3565 90.3832 28.2727 90.0195 28.2727C89.619 28.2727 89.2724 28.3722 88.9798 28.571C88.69 28.767 88.467 29.0227 88.3107 29.3381C88.1545 29.6534 88.0763 29.9915 88.0763 30.3523V30.9318C88.0763 31.4261 88.1616 31.8452 88.332 32.1889C88.5053 32.5298 88.7454 32.7898 89.0522 32.9688C89.359 33.1449 89.7156 33.233 90.1218 33.233C90.386 33.233 90.6246 33.196 90.8377 33.1222C91.0536 33.0455 91.2397 32.9318 91.396 32.7812C91.5522 32.6278 91.6729 32.4375 91.7582 32.2102L92.7298 32.483C92.6275 32.8125 92.4556 33.1023 92.2141 33.3523C91.9727 33.5994 91.6744 33.7926 91.3192 33.9318C90.9641 34.0682 90.565 34.1364 90.1218 34.1364Z" fill="black"/>
<rect x="188.5" y="12.5" width="84" height="34" rx="7.5" fill="#0CA2DA"/>
<rect x="188.5" y="12.5" width="84" height="34" rx="7.5" stroke="black"/>
<path d="M210.58 26.2102V25.2727H217.125V26.2102H214.381V34H213.324V26.2102H210.58ZM220.33 34.1364C219.739 34.1364 219.22 33.9957 218.774 33.7145C218.331 33.4332 217.984 33.0398 217.734 32.5341C217.487 32.0284 217.364 31.4375 217.364 30.7614C217.364 30.0795 217.487 29.4844 217.734 28.9759C217.984 28.4673 218.331 28.0724 218.774 27.7912C219.22 27.5099 219.739 27.3693 220.33 27.3693C220.92 27.3693 221.438 27.5099 221.881 27.7912C222.327 28.0724 222.673 28.4673 222.92 28.9759C223.17 29.4844 223.295 30.0795 223.295 30.7614C223.295 31.4375 223.17 32.0284 222.92 32.5341C222.673 33.0398 222.327 33.4332 221.881 33.7145C221.438 33.9957 220.92 34.1364 220.33 34.1364ZM220.33 33.233C220.778 33.233 221.148 33.1179 221.438 32.8878C221.727 32.6577 221.942 32.3551 222.081 31.9801C222.22 31.6051 222.29 31.1989 222.29 30.7614C222.29 30.3239 222.22 29.9162 222.081 29.5384C221.942 29.1605 221.727 28.8551 221.438 28.6222C221.148 28.3892 220.778 28.2727 220.33 28.2727C219.881 28.2727 219.511 28.3892 219.222 28.6222C218.932 28.8551 218.717 29.1605 218.578 29.5384C218.439 29.9162 218.369 30.3239 218.369 30.7614C218.369 31.1989 218.439 31.6051 218.578 31.9801C218.717 32.3551 218.932 32.6577 219.222 32.8878C219.511 33.1179 219.881 33.233 220.33 33.233ZM225.768 31.6136L225.751 30.3693H225.956L228.819 27.4545H230.064L227.012 30.5398H226.927L225.768 31.6136ZM224.831 34V25.2727H225.836V34H224.831ZM228.99 34L226.433 30.7614L227.149 30.0625L230.268 34H228.99ZM233.833 34.1364C233.202 34.1364 232.658 33.9972 232.201 33.7188C231.746 33.4375 231.395 33.0455 231.148 32.5426C230.904 32.0369 230.782 31.4489 230.782 30.7784C230.782 30.108 230.904 29.517 231.148 29.0057C231.395 28.4915 231.739 28.0909 232.179 27.804C232.623 27.5142 233.14 27.3693 233.73 27.3693C234.071 27.3693 234.408 27.4261 234.74 27.5398C235.073 27.6534 235.375 27.8381 235.648 28.0938C235.921 28.3466 236.138 28.6818 236.3 29.0994C236.462 29.517 236.543 30.0312 236.543 30.642V31.0682H231.498V30.1989H235.52C235.52 29.8295 235.446 29.5 235.299 29.2102C235.154 28.9205 234.946 28.6918 234.676 28.5241C234.409 28.3565 234.094 28.2727 233.73 28.2727C233.33 28.2727 232.983 28.3722 232.691 28.571C232.401 28.767 232.178 29.0227 232.022 29.3381C231.865 29.6534 231.787 29.9915 231.787 30.3523V30.9318C231.787 31.4261 231.873 31.8452 232.043 32.1889C232.216 32.5298 232.456 32.7898 232.763 32.9688C233.07 33.1449 233.426 33.233 233.833 33.233C234.097 33.233 234.336 33.196 234.549 33.1222C234.765 33.0455 234.951 32.9318 235.107 32.7812C235.263 32.6278 235.384 32.4375 235.469 32.2102L236.441 32.483C236.338 32.8125 236.167 33.1023 235.925 33.3523C235.684 33.5994 235.385 33.7926 235.03 33.9318C234.675 34.0682 234.276 34.1364 233.833 34.1364ZM239.078 30.0625V34H238.073V27.4545H239.044V28.4773H239.13C239.283 28.1449 239.516 27.8778 239.828 27.6761C240.141 27.4716 240.544 27.3693 241.039 27.3693C241.482 27.3693 241.87 27.4602 242.202 27.642C242.534 27.821 242.793 28.0938 242.978 28.4602C243.162 28.8239 243.255 29.2841 243.255 29.8409V34H242.249V29.9091C242.249 29.3949 242.115 28.9943 241.848 28.7074C241.581 28.4176 241.215 28.2727 240.749 28.2727C240.428 28.2727 240.141 28.3423 239.888 28.4815C239.638 28.6207 239.441 28.8239 239.296 29.0909C239.151 29.358 239.078 29.6818 239.078 30.0625ZM249.729 28.9205L248.825 29.1761C248.768 29.0256 248.685 28.8793 248.574 28.7372C248.466 28.5923 248.318 28.473 248.131 28.3793C247.943 28.2855 247.703 28.2386 247.411 28.2386C247.01 28.2386 246.676 28.331 246.409 28.5156C246.145 28.6974 246.013 28.929 246.013 29.2102C246.013 29.4602 246.104 29.6577 246.286 29.8026C246.467 29.9474 246.751 30.0682 247.138 30.1648L248.109 30.4034C248.695 30.5455 249.131 30.7628 249.418 31.0554C249.705 31.3452 249.848 31.7187 249.848 32.1761C249.848 32.5511 249.74 32.8864 249.524 33.1818C249.311 33.4773 249.013 33.7102 248.629 33.8807C248.246 34.0511 247.8 34.1364 247.291 34.1364C246.624 34.1364 246.071 33.9915 245.634 33.7017C245.196 33.4119 244.919 32.9886 244.803 32.4318L245.757 32.1932C245.848 32.5455 246.02 32.8097 246.273 32.9858C246.528 33.1619 246.862 33.25 247.274 33.25C247.743 33.25 248.115 33.1506 248.391 32.9517C248.669 32.75 248.808 32.5085 248.808 32.2273C248.808 32 248.729 31.8097 248.57 31.6562C248.411 31.5 248.166 31.3835 247.837 31.3068L246.746 31.0511C246.146 30.9091 245.706 30.6889 245.425 30.3906C245.146 30.0895 245.007 29.7131 245.007 29.2614C245.007 28.892 245.111 28.5653 245.318 28.2812C245.528 27.9972 245.814 27.7741 246.175 27.6122C246.538 27.4503 246.95 27.3693 247.411 27.3693C248.058 27.3693 248.567 27.5114 248.936 27.7955C249.308 28.0795 249.572 28.4545 249.729 28.9205Z" fill="black"/>
<rect x="357.5" y="12.5" width="84" height="34" rx="7.5" fill="#11365C"/>
<rect x="357.5" y="12.5" width="84" height="34" rx="7.5" stroke="black"/>
<path d="M378.114 25.2727V34H377.057V25.2727H378.114ZM380.233 34V25.2727H383.181C383.863 25.2727 384.423 25.3892 384.86 25.6222C385.298 25.8523 385.622 26.169 385.832 26.5724C386.042 26.9759 386.147 27.4347 386.147 27.9489C386.147 28.4631 386.042 28.919 385.832 29.3168C385.622 29.7145 385.299 30.027 384.865 30.2543C384.43 30.4787 383.875 30.5909 383.199 30.5909H380.812V29.6364H383.164C383.63 29.6364 384.005 29.5682 384.289 29.4318C384.576 29.2955 384.784 29.1023 384.912 28.8523C385.042 28.5994 385.108 28.2983 385.108 27.9489C385.108 27.5994 385.042 27.294 384.912 27.0327C384.781 26.7713 384.572 26.5696 384.285 26.4276C383.998 26.2827 383.619 26.2102 383.147 26.2102H381.289V34H380.233ZM384.341 30.0795L386.488 34H385.261L383.147 30.0795H384.341ZM391.505 29.6364C391.505 28.5625 391.644 27.5753 391.923 26.6747C392.204 25.7713 392.604 24.9403 393.124 24.1818H394.011C393.806 24.4631 393.614 24.8097 393.435 25.2216C393.259 25.6307 393.104 26.081 392.971 26.5724C392.837 27.0611 392.732 27.5668 392.656 28.0895C392.582 28.6122 392.545 29.1278 392.545 29.6364C392.545 30.3125 392.61 30.9986 392.741 31.6946C392.871 32.3906 393.048 33.0369 393.269 33.6335C393.491 34.2301 393.738 34.7159 394.011 35.0909H393.124C392.604 34.3324 392.204 33.5028 391.923 32.6023C391.644 31.6989 391.505 30.7102 391.505 29.6364ZM395.989 34H394.881L398.086 25.2727H399.176L402.381 34H401.273L398.665 26.6534H398.597L395.989 34ZM396.398 30.5909H400.864V31.5284H396.398V30.5909ZM408.513 27.4545C408.462 27.0227 408.255 26.6875 407.891 26.4489C407.527 26.2102 407.081 26.0909 406.553 26.0909C406.167 26.0909 405.828 26.1534 405.539 26.2784C405.252 26.4034 405.027 26.5753 404.865 26.794C404.706 27.0128 404.627 27.2614 404.627 27.5398C404.627 27.7727 404.682 27.973 404.793 28.1406C404.907 28.3054 405.051 28.4432 405.228 28.554C405.404 28.6619 405.588 28.7514 405.782 28.8224C405.975 28.8906 406.152 28.946 406.314 28.9886L407.201 29.2273C407.428 29.2869 407.681 29.3693 407.959 29.4744C408.24 29.5795 408.509 29.723 408.765 29.9048C409.023 30.0838 409.236 30.3139 409.404 30.5952C409.571 30.8764 409.655 31.2216 409.655 31.6307C409.655 32.1023 409.532 32.5284 409.284 32.9091C409.04 33.2898 408.682 33.5923 408.211 33.8168C407.742 34.0412 407.172 34.1534 406.502 34.1534C405.877 34.1534 405.336 34.0526 404.878 33.8509C404.424 33.6491 404.066 33.3679 403.804 33.0071C403.546 32.6463 403.4 32.2273 403.365 31.75H404.456C404.485 32.0795 404.596 32.3523 404.789 32.5682C404.985 32.7812 405.232 32.9403 405.53 33.0455C405.831 33.1477 406.155 33.1989 406.502 33.1989C406.905 33.1989 407.267 33.1335 407.588 33.0028C407.909 32.8693 408.164 32.6847 408.351 32.4489C408.539 32.2102 408.632 31.9318 408.632 31.6136C408.632 31.3239 408.551 31.0881 408.39 30.9062C408.228 30.7244 408.015 30.5767 407.75 30.4631C407.486 30.3494 407.201 30.25 406.894 30.1648L405.82 29.858C405.138 29.6619 404.598 29.3821 404.201 29.0185C403.803 28.6548 403.604 28.179 403.604 27.5909C403.604 27.1023 403.736 26.6761 404 26.3125C404.267 25.946 404.625 25.6619 405.074 25.4602C405.526 25.2557 406.03 25.1534 406.587 25.1534C407.15 25.1534 407.65 25.2543 408.087 25.456C408.525 25.6548 408.871 25.9276 409.127 26.2741C409.385 26.6207 409.522 27.0142 409.536 27.4545H408.513ZM410.915 26.2102V25.2727H417.461V26.2102H414.717V34H413.66V26.2102H410.915ZM421.103 29.6364C421.103 30.7102 420.963 31.6989 420.681 32.6023C420.403 33.5028 420.004 34.3324 419.484 35.0909H418.598C418.802 34.8097 418.993 34.4631 419.169 34.0511C419.348 33.642 419.504 33.1932 419.637 32.7045C419.771 32.2131 419.875 31.706 419.949 31.1832C420.025 30.6577 420.064 30.142 420.064 29.6364C420.064 28.9602 419.998 28.2741 419.868 27.5781C419.737 26.8821 419.561 26.2358 419.339 25.6392C419.118 25.0426 418.87 24.5568 418.598 24.1818H419.484C420.004 24.9403 420.403 25.7713 420.681 26.6747C420.963 27.5753 421.103 28.5625 421.103 29.6364Z" fill="white"/>
<rect x="529.5" y="12.5" width="84" height="34" rx="7.5" fill="#CB5327"/>
<rect x="529.5" y="12.5" width="84" height="34" rx="7.5" stroke="black"/>
<path d="M545.057 34V25.2727H548.108C548.716 25.2727 549.217 25.3778 549.612 25.5881C550.007 25.7955 550.301 26.0753 550.494 26.4276C550.688 26.777 550.784 27.1648 550.784 27.5909C550.784 27.9659 550.717 28.2756 550.584 28.5199C550.453 28.7642 550.28 28.9574 550.064 29.0994C549.851 29.2415 549.619 29.3466 549.369 29.4148V29.5C549.636 29.517 549.905 29.6108 550.175 29.7812C550.445 29.9517 550.67 30.196 550.852 30.5142C551.034 30.8324 551.125 31.2216 551.125 31.6818C551.125 32.1193 551.026 32.5128 550.827 32.8622C550.628 33.2116 550.314 33.4886 549.885 33.6932C549.456 33.8977 548.898 34 548.21 34H545.057ZM546.114 33.0625H548.21C548.901 33.0625 549.391 32.929 549.68 32.6619C549.973 32.392 550.119 32.0653 550.119 31.6818C550.119 31.3864 550.044 31.1136 549.893 30.8636C549.743 30.6108 549.528 30.4091 549.25 30.2585C548.972 30.1051 548.642 30.0284 548.261 30.0284H546.114V33.0625ZM546.114 29.108H548.074C548.392 29.108 548.679 29.0455 548.935 28.9205C549.193 28.7955 549.398 28.6193 549.548 28.392C549.702 28.1648 549.778 27.8977 549.778 27.5909C549.778 27.2074 549.645 26.8821 549.378 26.6151C549.111 26.3452 548.688 26.2102 548.108 26.2102H546.114V29.108ZM553.373 36.4545C553.202 36.4545 553.05 36.4403 552.917 36.4119C552.783 36.3864 552.691 36.3608 552.64 36.3352L552.896 35.4489C553.14 35.5114 553.356 35.5341 553.543 35.517C553.731 35.5 553.897 35.4162 554.042 35.2656C554.19 35.1179 554.325 34.8778 554.447 34.5455L554.634 34.0341L552.214 27.4545H553.305L555.112 32.6705H555.18L556.987 27.4545H558.077L555.299 34.9545C555.174 35.2926 555.019 35.5724 554.835 35.794C554.65 36.0185 554.435 36.1847 554.191 36.2926C553.95 36.4006 553.677 36.4545 553.373 36.4545ZM562.251 27.4545V28.3068H558.859V27.4545H562.251ZM559.848 25.8864H560.854V32.125C560.854 32.4091 560.895 32.6222 560.977 32.7642C561.063 32.9034 561.17 32.9972 561.301 33.0455C561.435 33.0909 561.575 33.1136 561.723 33.1136C561.834 33.1136 561.925 33.108 561.996 33.0966C562.067 33.0824 562.124 33.071 562.166 33.0625L562.371 33.9659C562.303 33.9915 562.207 34.017 562.085 34.0426C561.963 34.071 561.808 34.0852 561.621 34.0852C561.337 34.0852 561.058 34.0241 560.786 33.902C560.516 33.7798 560.291 33.5938 560.112 33.3438C559.936 33.0938 559.848 32.7784 559.848 32.3977V25.8864ZM566.438 34.1364C565.808 34.1364 565.263 33.9972 564.806 33.7188C564.352 33.4375 564.001 33.0455 563.754 32.5426C563.509 32.0369 563.387 31.4489 563.387 30.7784C563.387 30.108 563.509 29.517 563.754 29.0057C564.001 28.4915 564.344 28.0909 564.785 27.804C565.228 27.5142 565.745 27.3693 566.336 27.3693C566.677 27.3693 567.013 27.4261 567.346 27.5398C567.678 27.6534 567.981 27.8381 568.254 28.0938C568.526 28.3466 568.744 28.6818 568.906 29.0994C569.067 29.517 569.148 30.0312 569.148 30.642V31.0682H564.103V30.1989H568.126C568.126 29.8295 568.052 29.5 567.904 29.2102C567.759 28.9205 567.552 28.6918 567.282 28.5241C567.015 28.3565 566.7 28.2727 566.336 28.2727C565.935 28.2727 565.589 28.3722 565.296 28.571C565.006 28.767 564.783 29.0227 564.627 29.3381C564.471 29.6534 564.393 29.9915 564.393 30.3523V30.9318C564.393 31.4261 564.478 31.8452 564.648 32.1889C564.822 32.5298 565.062 32.7898 565.369 32.9688C565.675 33.1449 566.032 33.233 566.438 33.233C566.702 33.233 566.941 33.196 567.154 33.1222C567.37 33.0455 567.556 32.9318 567.712 32.7812C567.869 32.6278 567.989 32.4375 568.075 32.2102L569.046 32.483C568.944 32.8125 568.772 33.1023 568.531 33.3523C568.289 33.5994 567.991 33.7926 567.636 33.9318C567.281 34.0682 566.881 34.1364 566.438 34.1364ZM573.337 34.1364C572.724 34.1364 572.195 33.9915 571.752 33.7017C571.309 33.4119 570.968 33.0128 570.729 32.5043C570.491 31.9957 570.371 31.4148 570.371 30.7614C570.371 30.0966 570.494 29.5099 570.738 29.0014C570.985 28.4901 571.329 28.0909 571.769 27.804C572.212 27.5142 572.729 27.3693 573.32 27.3693C573.781 27.3693 574.195 27.4545 574.565 27.625C574.934 27.7955 575.237 28.0341 575.472 28.3409C575.708 28.6477 575.854 29.0057 575.911 29.4148H574.906C574.829 29.1165 574.658 28.8523 574.394 28.6222C574.133 28.3892 573.781 28.2727 573.337 28.2727C572.945 28.2727 572.602 28.375 572.306 28.5795C572.013 28.7812 571.785 29.0668 571.62 29.4361C571.458 29.8026 571.377 30.233 571.377 30.7273C571.377 31.233 571.457 31.6733 571.616 32.0483C571.778 32.4233 572.005 32.7145 572.298 32.9219C572.593 33.1293 572.94 33.233 573.337 33.233C573.599 33.233 573.836 33.1875 574.049 33.0966C574.262 33.0057 574.442 32.875 574.59 32.7045C574.738 32.5341 574.843 32.3295 574.906 32.0909H575.911C575.854 32.4773 575.714 32.8253 575.489 33.1349C575.268 33.4418 574.974 33.6861 574.607 33.8679C574.244 34.0469 573.82 34.1364 573.337 34.1364ZM580.04 34.1364C579.45 34.1364 578.931 33.9957 578.485 33.7145C578.042 33.4332 577.695 33.0398 577.445 32.5341C577.198 32.0284 577.075 31.4375 577.075 30.7614C577.075 30.0795 577.198 29.4844 577.445 28.9759C577.695 28.4673 578.042 28.0724 578.485 27.7912C578.931 27.5099 579.45 27.3693 580.04 27.3693C580.631 27.3693 581.148 27.5099 581.592 27.7912C582.038 28.0724 582.384 28.4673 582.631 28.9759C582.881 29.4844 583.006 30.0795 583.006 30.7614C583.006 31.4375 582.881 32.0284 582.631 32.5341C582.384 33.0398 582.038 33.4332 581.592 33.7145C581.148 33.9957 580.631 34.1364 580.04 34.1364ZM580.04 33.233C580.489 33.233 580.859 33.1179 581.148 32.8878C581.438 32.6577 581.653 32.3551 581.792 31.9801C581.931 31.6051 582.001 31.1989 582.001 30.7614C582.001 30.3239 581.931 29.9162 581.792 29.5384C581.653 29.1605 581.438 28.8551 581.148 28.6222C580.859 28.3892 580.489 28.2727 580.04 28.2727C579.592 28.2727 579.222 28.3892 578.933 28.6222C578.643 28.8551 578.428 29.1605 578.289 29.5384C578.15 29.9162 578.08 30.3239 578.08 30.7614C578.08 31.1989 578.15 31.6051 578.289 31.9801C578.428 32.3551 578.643 32.6577 578.933 32.8878C579.222 33.1179 579.592 33.233 580.04 33.233ZM587.013 34.1364C586.468 34.1364 585.986 33.9986 585.569 33.723C585.151 33.4446 584.824 33.0526 584.588 32.5469C584.353 32.0384 584.235 31.4375 584.235 30.7443C584.235 30.0568 584.353 29.4602 584.588 28.9545C584.824 28.4489 585.152 28.0582 585.573 27.7827C585.993 27.5071 586.479 27.3693 587.03 27.3693C587.456 27.3693 587.793 27.4403 588.04 27.5824C588.29 27.7216 588.48 27.8807 588.611 28.0597C588.745 28.2358 588.848 28.3807 588.922 28.4943H589.007V25.2727H590.013V34H589.042V32.9943H588.922C588.848 33.1136 588.743 33.2642 588.607 33.446C588.471 33.625 588.276 33.7855 588.023 33.9276C587.77 34.0668 587.434 34.1364 587.013 34.1364ZM587.15 33.233C587.553 33.233 587.894 33.1278 588.172 32.9176C588.451 32.7045 588.662 32.4105 588.807 32.0355C588.952 31.6577 589.025 31.2216 589.025 30.7273C589.025 30.2386 588.953 29.8111 588.811 29.4446C588.669 29.0753 588.459 28.7884 588.181 28.5838C587.902 28.3764 587.559 28.2727 587.15 28.2727C586.723 28.2727 586.368 28.3821 586.084 28.6009C585.803 28.8168 585.591 29.1108 585.449 29.483C585.31 29.8523 585.24 30.267 585.24 30.7273C585.24 31.1932 585.311 31.6165 585.453 31.9972C585.598 32.375 585.811 32.6761 586.093 32.9006C586.377 33.1222 586.729 33.233 587.15 33.233ZM594.739 34.1364C594.108 34.1364 593.564 33.9972 593.107 33.7188C592.652 33.4375 592.301 33.0455 592.054 32.5426C591.81 32.0369 591.688 31.4489 591.688 30.7784C591.688 30.108 591.81 29.517 592.054 29.0057C592.301 28.4915 592.645 28.0909 593.086 27.804C593.529 27.5142 594.046 27.3693 594.637 27.3693C594.978 27.3693 595.314 27.4261 595.647 27.5398C595.979 27.6534 596.282 27.8381 596.554 28.0938C596.827 28.3466 597.044 28.6818 597.206 29.0994C597.368 29.517 597.449 30.0312 597.449 30.642V31.0682H592.404V30.1989H596.426C596.426 29.8295 596.353 29.5 596.205 29.2102C596.06 28.9205 595.853 28.6918 595.583 28.5241C595.316 28.3565 595 28.2727 594.637 28.2727C594.236 28.2727 593.89 28.3722 593.597 28.571C593.307 28.767 593.084 29.0227 592.928 29.3381C592.772 29.6534 592.694 29.9915 592.694 30.3523V30.9318C592.694 31.4261 592.779 31.8452 592.949 32.1889C593.123 32.5298 593.363 32.7898 593.669 32.9688C593.976 33.1449 594.333 33.233 594.739 33.233C595.003 33.233 595.242 33.196 595.455 33.1222C595.671 33.0455 595.857 32.9318 596.013 32.7812C596.169 32.6278 596.29 32.4375 596.375 32.2102L597.347 32.483C597.245 32.8125 597.073 33.1023 596.831 33.3523C596.59 33.5994 596.292 33.7926 595.936 33.9318C595.581 34.0682 595.182 34.1364 594.739 34.1364Z" fill="black"/>
<path d="M169 30L159 24.2265V35.7735L169 30ZM123 30V31H160V30V29H123V30Z" fill="black"/>
<path d="M340 30L330 24.2265V35.7735L340 30ZM290 30V31H331V30V29H290V30Z" fill="black"/>
<path d="M506 30L496 24.2265V35.7735L506 30ZM456 30V31H497V30V29H456V30Z" fill="black"/>
<path d="M421 56L413.527 64.803L424.887 66.873L421 56ZM419.386 64.8554L418.451 64.5011C415.019 73.5615 406.26 80 396 80V81V82C407.118 82 416.604 75.0218 420.321 65.2097L419.386 64.8554ZM396 81V80C382.745 80 372 69.2548 372 56H371H370C370 70.3594 381.641 82 396 82V81Z" fill="black"/>
</svg>
