<svg width="113" height="128" viewBox="0 0 113 128" fill="none" xmlns="http://www.w3.org/2000/svg">
<rect width="113" height="128" fill="white"/>
<rect x="53.25" y="4.25" width="52.5" height="11.5" rx="2.75" fill="#D2DC46"/>
<rect x="53.25" y="4.25" width="52.5" height="11.5" rx="2.75" stroke="black" stroke-width="0.5"/>
<path d="M60.007 12.06C59.743 12.06 59.515 12.01 59.323 11.91C59.135 11.81 58.989 11.666 58.885 11.478C58.785 11.286 58.735 11.06 58.735 10.8V8.82C58.735 8.556 58.785 8.33 58.885 8.142C58.989 7.954 59.135 7.81 59.323 7.71C59.515 7.61 59.743 7.56 60.007 7.56C60.271 7.56 60.497 7.61 60.685 7.71C60.877 7.81 61.023 7.954 61.123 8.142C61.227 8.33 61.279 8.554 61.279 8.814V10.8C61.279 11.06 61.227 11.286 61.123 11.478C61.023 11.666 60.877 11.81 60.685 11.91C60.497 12.01 60.271 12.06 60.007 12.06ZM60.007 11.574C60.243 11.574 60.423 11.508 60.547 11.376C60.675 11.24 60.739 11.048 60.739 10.8V8.82C60.739 8.572 60.675 8.382 60.547 8.25C60.423 8.114 60.243 8.046 60.007 8.046C59.775 8.046 59.595 8.114 59.467 8.25C59.339 8.382 59.275 8.572 59.275 8.82V10.8C59.275 11.048 59.339 11.24 59.467 11.376C59.595 11.508 59.775 11.574 60.007 11.574ZM62.3567 13.08V8.7H62.8967V9.33H63.0047L62.8967 9.456C62.8967 9.204 62.9787 9.006 63.1427 8.862C63.3107 8.714 63.5307 8.64 63.8027 8.64C64.1347 8.64 64.3987 8.75 64.5947 8.97C64.7947 9.186 64.8947 9.484 64.8947 9.864V10.83C64.8947 11.082 64.8487 11.3 64.7567 11.484C64.6687 11.668 64.5427 11.81 64.3787 11.91C64.2187 12.01 64.0267 12.06 63.8027 12.06C63.5347 12.06 63.3167 11.986 63.1487 11.838C62.9807 11.69 62.8967 11.492 62.8967 11.244L63.0047 11.37H62.8847L62.8967 12.12V13.08H62.3567ZM63.6227 11.592C63.8507 11.592 64.0287 11.524 64.1567 11.388C64.2887 11.252 64.3547 11.056 64.3547 10.8V9.9C64.3547 9.644 64.2887 9.448 64.1567 9.312C64.0287 9.176 63.8507 9.108 63.6227 9.108C63.4027 9.108 63.2267 9.178 63.0947 9.318C62.9627 9.458 62.8967 9.652 62.8967 9.9V10.8C62.8967 11.048 62.9627 11.242 63.0947 11.382C63.2267 11.522 63.4027 11.592 63.6227 11.592ZM67.2263 12.06C66.9623 12.06 66.7303 12.01 66.5303 11.91C66.3343 11.81 66.1823 11.666 66.0743 11.478C65.9663 11.286 65.9123 11.06 65.9123 10.8V9.9C65.9123 9.636 65.9663 9.41 66.0743 9.222C66.1823 9.034 66.3343 8.89 66.5303 8.79C66.7303 8.69 66.9623 8.64 67.2263 8.64C67.6063 8.64 67.9123 8.742 68.1443 8.946C68.3763 9.15 68.4983 9.428 68.5103 9.78H67.9703C67.9583 9.568 67.8863 9.406 67.7543 9.294C67.6263 9.178 67.4503 9.12 67.2263 9.12C66.9903 9.12 66.8023 9.188 66.6623 9.324C66.5223 9.456 66.4523 9.646 66.4523 9.894V10.8C66.4523 11.048 66.5223 11.24 66.6623 11.376C66.8023 11.512 66.9903 11.58 67.2263 11.58C67.4503 11.58 67.6263 11.522 67.7543 11.406C67.8863 11.29 67.9583 11.128 67.9703 10.92H68.5103C68.4983 11.272 68.3763 11.55 68.1443 11.754C67.9123 11.958 67.6063 12.06 67.2263 12.06ZM70.8 12.048C70.536 12.048 70.308 11.998 70.116 11.898C69.924 11.798 69.774 11.654 69.666 11.466C69.562 11.274 69.51 11.048 69.51 10.788V9.912C69.51 9.648 69.562 9.422 69.666 9.234C69.774 9.046 69.924 8.902 70.116 8.802C70.308 8.702 70.536 8.652 70.8 8.652C71.064 8.652 71.292 8.702 71.484 8.802C71.676 8.902 71.824 9.046 71.928 9.234C72.036 9.422 72.09 9.646 72.09 9.906V10.788C72.09 11.048 72.036 11.274 71.928 11.466C71.824 11.654 71.676 11.798 71.484 11.898C71.292 11.998 71.064 12.048 70.8 12.048ZM70.8 11.568C71.036 11.568 71.22 11.502 71.352 11.37C71.484 11.238 71.55 11.044 71.55 10.788V9.912C71.55 9.656 71.484 9.462 71.352 9.33C71.22 9.198 71.036 9.132 70.8 9.132C70.568 9.132 70.384 9.198 70.248 9.33C70.116 9.462 70.05 9.656 70.05 9.912V10.788C70.05 11.044 70.116 11.238 70.248 11.37C70.384 11.502 70.568 11.568 70.8 11.568ZM74.2057 12.06C73.8777 12.06 73.6117 11.95 73.4077 11.73C73.2077 11.51 73.1077 11.212 73.1077 10.836V9.87C73.1077 9.49 73.2077 9.19 73.4077 8.97C73.6077 8.75 73.8737 8.64 74.2057 8.64C74.4777 8.64 74.6957 8.714 74.8597 8.862C75.0237 9.01 75.1057 9.208 75.1057 9.456L74.9977 9.33H75.1177L75.1057 8.58V7.62H75.6457V12H75.1057V11.37H74.9977L75.1057 11.244C75.1057 11.496 75.0237 11.696 74.8597 11.844C74.6957 11.988 74.4777 12.06 74.2057 12.06ZM74.3857 11.592C74.6097 11.592 74.7857 11.522 74.9137 11.382C75.0417 11.242 75.1057 11.048 75.1057 10.8V9.9C75.1057 9.652 75.0417 9.458 74.9137 9.318C74.7857 9.178 74.6097 9.108 74.3857 9.108C74.1577 9.108 73.9777 9.176 73.8457 9.312C73.7137 9.448 73.6477 9.644 73.6477 9.9V10.8C73.6477 11.056 73.7137 11.252 73.8457 11.388C73.9777 11.524 74.1577 11.592 74.3857 11.592ZM77.9953 12.06C77.7353 12.06 77.5073 12.008 77.3113 11.904C77.1193 11.8 76.9693 11.654 76.8613 11.466C76.7573 11.274 76.7053 11.052 76.7053 10.8V9.9C76.7053 9.644 76.7573 9.422 76.8613 9.234C76.9693 9.046 77.1193 8.9 77.3113 8.796C77.5073 8.692 77.7353 8.64 77.9953 8.64C78.2553 8.64 78.4813 8.692 78.6733 8.796C78.8693 8.9 79.0193 9.046 79.1233 9.234C79.2313 9.422 79.2853 9.644 79.2853 9.9V10.482H77.2333V10.8C77.2333 11.06 77.2993 11.26 77.4313 11.4C77.5633 11.536 77.7513 11.604 77.9953 11.604C78.2033 11.604 78.3713 11.568 78.4993 11.496C78.6273 11.42 78.7053 11.308 78.7333 11.16H79.2733C79.2373 11.436 79.1013 11.656 78.8653 11.82C78.6333 11.98 78.3433 12.06 77.9953 12.06ZM78.7573 10.122V9.9C78.7573 9.64 78.6913 9.44 78.5593 9.3C78.4313 9.16 78.2433 9.09 77.9953 9.09C77.7513 9.09 77.5633 9.16 77.4313 9.3C77.2993 9.44 77.2333 9.64 77.2333 9.9V10.074H78.7993L78.7573 10.122Z" fill="black"/>
<line x1="85.25" y1="4" x2="85.25" y2="16" stroke="black" stroke-width="0.5"/>
<path d="M90.9035 12.06C90.6395 12.06 90.4115 12.01 90.2195 11.91C90.0315 11.81 89.8855 11.666 89.7815 11.478C89.6815 11.286 89.6315 11.06 89.6315 10.8V8.82C89.6315 8.556 89.6815 8.33 89.7815 8.142C89.8855 7.954 90.0315 7.81 90.2195 7.71C90.4115 7.61 90.6395 7.56 90.9035 7.56C91.1675 7.56 91.3935 7.61 91.5815 7.71C91.7735 7.81 91.9195 7.954 92.0195 8.142C92.1235 8.33 92.1755 8.554 92.1755 8.814V10.8C92.1755 11.06 92.1235 11.286 92.0195 11.478C91.9195 11.666 91.7735 11.81 91.5815 11.91C91.3935 12.01 91.1675 12.06 90.9035 12.06ZM90.9035 11.574C91.1395 11.574 91.3195 11.508 91.4435 11.376C91.5715 11.24 91.6355 11.048 91.6355 10.8V8.82C91.6355 8.572 91.5715 8.382 91.4435 8.25C91.3195 8.114 91.1395 8.046 90.9035 8.046C90.6715 8.046 90.4915 8.114 90.3635 8.25C90.2355 8.382 90.1715 8.572 90.1715 8.82V10.8C90.1715 11.048 90.2355 11.24 90.3635 11.376C90.4915 11.508 90.6715 11.574 90.9035 11.574ZM93.2532 13.08V8.7H93.7932V9.33H93.9012L93.7932 9.456C93.7932 9.204 93.8752 9.006 94.0392 8.862C94.2072 8.714 94.4272 8.64 94.6992 8.64C95.0312 8.64 95.2952 8.75 95.4912 8.97C95.6912 9.186 95.7912 9.484 95.7912 9.864V10.83C95.7912 11.082 95.7452 11.3 95.6532 11.484C95.5652 11.668 95.4392 11.81 95.2752 11.91C95.1152 12.01 94.9232 12.06 94.6992 12.06C94.4312 12.06 94.2132 11.986 94.0452 11.838C93.8772 11.69 93.7932 11.492 93.7932 11.244L93.9012 11.37H93.7812L93.7932 12.12V13.08H93.2532ZM94.5192 11.592C94.7472 11.592 94.9252 11.524 95.0532 11.388C95.1852 11.252 95.2512 11.056 95.2512 10.8V9.9C95.2512 9.644 95.1852 9.448 95.0532 9.312C94.9252 9.176 94.7472 9.108 94.5192 9.108C94.2992 9.108 94.1232 9.178 93.9912 9.318C93.8592 9.458 93.7932 9.652 93.7932 9.9V10.8C93.7932 11.048 93.8592 11.242 93.9912 11.382C94.1232 11.522 94.2992 11.592 94.5192 11.592ZM96.8388 12V11.508H98.0268V8.07L96.8388 8.958V8.358L97.8288 7.62H98.5668V11.508H99.5388V12H96.8388Z" fill="black"/>
<rect x="53.25" y="39.25" width="52.5" height="11.5" rx="2.75" fill="#8CE6D7"/>
<rect x="53.25" y="39.25" width="52.5" height="11.5" rx="2.75" stroke="black" stroke-width="0.5"/>
<path d="M64.3035 47.06C63.9755 47.06 63.7175 46.972 63.5295 46.796C63.3455 46.62 63.2535 46.378 63.2535 46.07V45.32C63.2535 45.108 63.3075 44.93 63.4155 44.786C63.5275 44.638 63.6855 44.534 63.8895 44.474L63.8475 44.414C63.7235 44.246 63.6335 44.09 63.5775 43.946C63.5215 43.802 63.4935 43.658 63.4935 43.514C63.4935 43.322 63.5375 43.154 63.6255 43.01C63.7175 42.866 63.8435 42.756 64.0035 42.68C64.1675 42.6 64.3575 42.56 64.5735 42.56C64.8055 42.56 65.0055 42.602 65.1735 42.686C65.3455 42.77 65.4775 42.888 65.5695 43.04C65.6615 43.192 65.7075 43.374 65.7075 43.586H65.1675C65.1675 43.47 65.1435 43.37 65.0955 43.286C65.0475 43.202 64.9795 43.138 64.8915 43.094C64.8035 43.05 64.6975 43.028 64.5735 43.028C64.4655 43.028 64.3695 43.048 64.2855 43.088C64.2055 43.128 64.1435 43.186 64.0995 43.262C64.0555 43.334 64.0335 43.422 64.0335 43.526C64.0335 43.626 64.0535 43.734 64.0935 43.85C64.1375 43.966 64.1975 44.076 64.2735 44.18L65.3055 45.602L65.7315 44.84H66.2955L65.6175 46.034L66.3195 47H65.7255L65.3475 46.478C65.0515 46.866 64.7035 47.06 64.3035 47.06ZM61.0935 46.58C61.2295 46.58 61.3615 46.536 61.4895 46.448C61.6135 46.356 61.7195 46.23 61.8075 46.07L60.9255 44.852C60.8015 44.872 60.7095 44.922 60.6495 45.002C60.5855 45.082 60.5535 45.188 60.5535 45.32V46.07C60.5535 46.23 60.6015 46.356 60.6975 46.448C60.7895 46.536 60.9215 46.58 61.0935 46.58ZM61.0635 47.06C60.7355 47.06 60.4795 46.972 60.2955 46.796C60.1075 46.62 60.0135 46.378 60.0135 46.07V45.32C60.0135 45.108 60.0695 44.93 60.1815 44.786C60.2895 44.638 60.4455 44.534 60.6495 44.474L60.6075 44.414C60.4835 44.246 60.3935 44.09 60.3375 43.946C60.2815 43.802 60.2535 43.658 60.2535 43.514C60.2535 43.322 60.2995 43.154 60.3915 43.01C60.4795 42.866 60.6055 42.756 60.7695 42.68C60.9295 42.6 61.1175 42.56 61.3335 42.56C61.5655 42.56 61.7675 42.602 61.9395 42.686C62.1075 42.77 62.2375 42.888 62.3295 43.04C62.4215 43.192 62.4675 43.374 62.4675 43.586H61.9275C61.9275 43.47 61.9035 43.37 61.8555 43.286C61.8075 43.202 61.7395 43.138 61.6515 43.094C61.5635 43.05 61.4575 43.028 61.3335 43.028C61.2255 43.028 61.1315 43.048 61.0515 43.088C60.9675 43.128 60.9035 43.186 60.8595 43.262C60.8155 43.334 60.7935 43.422 60.7935 43.526C60.7935 43.626 60.8155 43.734 60.8595 43.85C60.8995 43.966 60.9575 44.076 61.0335 44.18L63.0795 47H62.4855L62.1075 46.478C61.8115 46.866 61.4635 47.06 61.0635 47.06ZM64.3335 46.58C64.4695 46.58 64.5995 46.536 64.7235 46.448C64.8515 46.356 64.9595 46.23 65.0475 46.07L64.1655 44.852C64.0415 44.872 63.9475 44.922 63.8835 45.002C63.8235 45.082 63.7935 45.188 63.7935 45.32V46.07C63.7935 46.23 63.8395 46.356 63.9315 46.448C64.0275 46.536 64.1615 46.58 64.3335 46.58ZM67.0012 47L68.1412 42.62H68.8672L70.0012 47H69.4552L69.1672 45.836H67.8412L67.5532 47H67.0012ZM67.9492 45.38H69.0532L68.7172 44.03C68.6532 43.774 68.6032 43.56 68.5672 43.388C68.5312 43.216 68.5092 43.104 68.5012 43.052C68.4932 43.104 68.4712 43.216 68.4352 43.388C68.3992 43.56 68.3492 43.772 68.2852 44.024L67.9492 45.38ZM71.9068 47.06C71.5788 47.06 71.3128 46.95 71.1088 46.73C70.9088 46.51 70.8088 46.212 70.8088 45.836V44.87C70.8088 44.49 70.9088 44.19 71.1088 43.97C71.3088 43.75 71.5748 43.64 71.9068 43.64C72.1788 43.64 72.3968 43.714 72.5608 43.862C72.7248 44.01 72.8068 44.208 72.8068 44.456L72.6988 44.33H72.8188L72.8068 43.58V42.62H73.3468V47H72.8068V46.37H72.6988L72.8068 46.244C72.8068 46.496 72.7248 46.696 72.5608 46.844C72.3968 46.988 72.1788 47.06 71.9068 47.06ZM72.0868 46.592C72.3108 46.592 72.4868 46.522 72.6148 46.382C72.7428 46.242 72.8068 46.048 72.8068 45.8V44.9C72.8068 44.652 72.7428 44.458 72.6148 44.318C72.4868 44.178 72.3108 44.108 72.0868 44.108C71.8588 44.108 71.6788 44.176 71.5468 44.312C71.4148 44.448 71.3488 44.644 71.3488 44.9V45.8C71.3488 46.056 71.4148 46.252 71.5468 46.388C71.6788 46.524 71.8588 46.592 72.0868 46.592ZM75.5045 47.06C75.1765 47.06 74.9105 46.95 74.7065 46.73C74.5065 46.51 74.4065 46.212 74.4065 45.836V44.87C74.4065 44.49 74.5065 44.19 74.7065 43.97C74.9065 43.75 75.1725 43.64 75.5045 43.64C75.7765 43.64 75.9945 43.714 76.1585 43.862C76.3225 44.01 76.4045 44.208 76.4045 44.456L76.2965 44.33H76.4165L76.4045 43.58V42.62H76.9445V47H76.4045V46.37H76.2965L76.4045 46.244C76.4045 46.496 76.3225 46.696 76.1585 46.844C75.9945 46.988 75.7765 47.06 75.5045 47.06ZM75.6845 46.592C75.9085 46.592 76.0845 46.522 76.2125 46.382C76.3405 46.242 76.4045 46.048 76.4045 45.8V44.9C76.4045 44.652 76.3405 44.458 76.2125 44.318C76.0845 44.178 75.9085 44.108 75.6845 44.108C75.4565 44.108 75.2765 44.176 75.1445 44.312C75.0125 44.448 74.9465 44.644 74.9465 44.9V45.8C74.9465 46.056 75.0125 46.252 75.1445 46.388C75.2765 46.524 75.4565 46.592 75.6845 46.592Z" fill="black"/>
<line x1="84.25" y1="39" x2="84.25" y2="51" stroke="black" stroke-width="0.5"/>
<path d="M89.9035 47.06C89.6395 47.06 89.4115 47.01 89.2195 46.91C89.0315 46.81 88.8855 46.666 88.7815 46.478C88.6815 46.286 88.6315 46.06 88.6315 45.8V43.82C88.6315 43.556 88.6815 43.33 88.7815 43.142C88.8855 42.954 89.0315 42.81 89.2195 42.71C89.4115 42.61 89.6395 42.56 89.9035 42.56C90.1675 42.56 90.3935 42.61 90.5815 42.71C90.7735 42.81 90.9195 42.954 91.0195 43.142C91.1235 43.33 91.1755 43.554 91.1755 43.814V45.8C91.1755 46.06 91.1235 46.286 91.0195 46.478C90.9195 46.666 90.7735 46.81 90.5815 46.91C90.3935 47.01 90.1675 47.06 89.9035 47.06ZM89.9035 46.574C90.1395 46.574 90.3195 46.508 90.4435 46.376C90.5715 46.24 90.6355 46.048 90.6355 45.8V43.82C90.6355 43.572 90.5715 43.382 90.4435 43.25C90.3195 43.114 90.1395 43.046 89.9035 43.046C89.6715 43.046 89.4915 43.114 89.3635 43.25C89.2355 43.382 89.1715 43.572 89.1715 43.82V45.8C89.1715 46.048 89.2355 46.24 89.3635 46.376C89.4915 46.508 89.6715 46.574 89.9035 46.574ZM92.2532 48.08V43.7H92.7932V44.33H92.9012L92.7932 44.456C92.7932 44.204 92.8752 44.006 93.0392 43.862C93.2072 43.714 93.4272 43.64 93.6992 43.64C94.0312 43.64 94.2952 43.75 94.4912 43.97C94.6912 44.186 94.7912 44.484 94.7912 44.864V45.83C94.7912 46.082 94.7452 46.3 94.6532 46.484C94.5652 46.668 94.4392 46.81 94.2752 46.91C94.1152 47.01 93.9232 47.06 93.6992 47.06C93.4312 47.06 93.2132 46.986 93.0452 46.838C92.8772 46.69 92.7932 46.492 92.7932 46.244L92.9012 46.37H92.7812L92.7932 47.12V48.08H92.2532ZM93.5192 46.592C93.7472 46.592 93.9252 46.524 94.0532 46.388C94.1852 46.252 94.2512 46.056 94.2512 45.8V44.9C94.2512 44.644 94.1852 44.448 94.0532 44.312C93.9252 44.176 93.7472 44.108 93.5192 44.108C93.2992 44.108 93.1232 44.178 92.9912 44.318C92.8592 44.458 92.7932 44.652 92.7932 44.9V45.8C92.7932 46.048 92.8592 46.242 92.9912 46.382C93.1232 46.522 93.2992 46.592 93.5192 46.592ZM95.8388 47V46.508H97.0268V43.07L95.8388 43.958V43.358L96.8288 42.62H97.5668V46.508H98.5388V47H95.8388Z" fill="black"/>
<rect x="7.25" y="65.25" width="52.5" height="11.5" rx="2.75" fill="#8CE6D7"/>
<rect x="7.25" y="65.25" width="52.5" height="11.5" rx="2.75" stroke="black" stroke-width="0.5"/>
<path d="M18.3035 73.06C17.9755 73.06 17.7175 72.972 17.5295 72.796C17.3455 72.62 17.2535 72.378 17.2535 72.07V71.32C17.2535 71.108 17.3075 70.93 17.4155 70.786C17.5275 70.638 17.6855 70.534 17.8895 70.474L17.8475 70.414C17.7235 70.246 17.6335 70.09 17.5775 69.946C17.5215 69.802 17.4935 69.658 17.4935 69.514C17.4935 69.322 17.5375 69.154 17.6255 69.01C17.7175 68.866 17.8435 68.756 18.0035 68.68C18.1675 68.6 18.3575 68.56 18.5735 68.56C18.8055 68.56 19.0055 68.602 19.1735 68.686C19.3455 68.77 19.4775 68.888 19.5695 69.04C19.6615 69.192 19.7075 69.374 19.7075 69.586H19.1675C19.1675 69.47 19.1435 69.37 19.0955 69.286C19.0475 69.202 18.9795 69.138 18.8915 69.094C18.8035 69.05 18.6975 69.028 18.5735 69.028C18.4655 69.028 18.3695 69.048 18.2855 69.088C18.2055 69.128 18.1435 69.186 18.0995 69.262C18.0555 69.334 18.0335 69.422 18.0335 69.526C18.0335 69.626 18.0535 69.734 18.0935 69.85C18.1375 69.966 18.1975 70.076 18.2735 70.18L19.3055 71.602L19.7315 70.84H20.2955L19.6175 72.034L20.3195 73H19.7255L19.3475 72.478C19.0515 72.866 18.7035 73.06 18.3035 73.06ZM15.0935 72.58C15.2295 72.58 15.3615 72.536 15.4895 72.448C15.6135 72.356 15.7195 72.23 15.8075 72.07L14.9255 70.852C14.8015 70.872 14.7095 70.922 14.6495 71.002C14.5855 71.082 14.5535 71.188 14.5535 71.32V72.07C14.5535 72.23 14.6015 72.356 14.6975 72.448C14.7895 72.536 14.9215 72.58 15.0935 72.58ZM15.0635 73.06C14.7355 73.06 14.4795 72.972 14.2955 72.796C14.1075 72.62 14.0135 72.378 14.0135 72.07V71.32C14.0135 71.108 14.0695 70.93 14.1815 70.786C14.2895 70.638 14.4455 70.534 14.6495 70.474L14.6075 70.414C14.4835 70.246 14.3935 70.09 14.3375 69.946C14.2815 69.802 14.2535 69.658 14.2535 69.514C14.2535 69.322 14.2995 69.154 14.3915 69.01C14.4795 68.866 14.6055 68.756 14.7695 68.68C14.9295 68.6 15.1175 68.56 15.3335 68.56C15.5655 68.56 15.7675 68.602 15.9395 68.686C16.1075 68.77 16.2375 68.888 16.3295 69.04C16.4215 69.192 16.4675 69.374 16.4675 69.586H15.9275C15.9275 69.47 15.9035 69.37 15.8555 69.286C15.8075 69.202 15.7395 69.138 15.6515 69.094C15.5635 69.05 15.4575 69.028 15.3335 69.028C15.2255 69.028 15.1315 69.048 15.0515 69.088C14.9675 69.128 14.9035 69.186 14.8595 69.262C14.8155 69.334 14.7935 69.422 14.7935 69.526C14.7935 69.626 14.8155 69.734 14.8595 69.85C14.8995 69.966 14.9575 70.076 15.0335 70.18L17.0795 73H16.4855L16.1075 72.478C15.8115 72.866 15.4635 73.06 15.0635 73.06ZM18.3335 72.58C18.4695 72.58 18.5995 72.536 18.7235 72.448C18.8515 72.356 18.9595 72.23 19.0475 72.07L18.1655 70.852C18.0415 70.872 17.9475 70.922 17.8835 71.002C17.8235 71.082 17.7935 71.188 17.7935 71.32V72.07C17.7935 72.23 17.8395 72.356 17.9315 72.448C18.0275 72.536 18.1615 72.58 18.3335 72.58ZM21.0012 73L22.1412 68.62H22.8672L24.0012 73H23.4552L23.1672 71.836H21.8412L21.5532 73H21.0012ZM21.9492 71.38H23.0532L22.7172 70.03C22.6532 69.774 22.6032 69.56 22.5672 69.388C22.5312 69.216 22.5092 69.104 22.5012 69.052C22.4932 69.104 22.4712 69.216 22.4352 69.388C22.3992 69.56 22.3492 69.772 22.2852 70.024L21.9492 71.38ZM25.9068 73.06C25.5788 73.06 25.3128 72.95 25.1088 72.73C24.9088 72.51 24.8088 72.212 24.8088 71.836V70.87C24.8088 70.49 24.9088 70.19 25.1088 69.97C25.3088 69.75 25.5748 69.64 25.9068 69.64C26.1788 69.64 26.3968 69.714 26.5608 69.862C26.7248 70.01 26.8068 70.208 26.8068 70.456L26.6988 70.33H26.8188L26.8068 69.58V68.62H27.3468V73H26.8068V72.37H26.6988L26.8068 72.244C26.8068 72.496 26.7248 72.696 26.5608 72.844C26.3968 72.988 26.1788 73.06 25.9068 73.06ZM26.0868 72.592C26.3108 72.592 26.4868 72.522 26.6148 72.382C26.7428 72.242 26.8068 72.048 26.8068 71.8V70.9C26.8068 70.652 26.7428 70.458 26.6148 70.318C26.4868 70.178 26.3108 70.108 26.0868 70.108C25.8588 70.108 25.6788 70.176 25.5468 70.312C25.4148 70.448 25.3488 70.644 25.3488 70.9V71.8C25.3488 72.056 25.4148 72.252 25.5468 72.388C25.6788 72.524 25.8588 72.592 26.0868 72.592ZM29.5045 73.06C29.1765 73.06 28.9105 72.95 28.7065 72.73C28.5065 72.51 28.4065 72.212 28.4065 71.836V70.87C28.4065 70.49 28.5065 70.19 28.7065 69.97C28.9065 69.75 29.1725 69.64 29.5045 69.64C29.7765 69.64 29.9945 69.714 30.1585 69.862C30.3225 70.01 30.4045 70.208 30.4045 70.456L30.2965 70.33H30.4165L30.4045 69.58V68.62H30.9445V73H30.4045V72.37H30.2965L30.4045 72.244C30.4045 72.496 30.3225 72.696 30.1585 72.844C29.9945 72.988 29.7765 73.06 29.5045 73.06ZM29.6845 72.592C29.9085 72.592 30.0845 72.522 30.2125 72.382C30.3405 72.242 30.4045 72.048 30.4045 71.8V70.9C30.4045 70.652 30.3405 70.458 30.2125 70.318C30.0845 70.178 29.9085 70.108 29.6845 70.108C29.4565 70.108 29.2765 70.176 29.1445 70.312C29.0125 70.448 28.9465 70.644 28.9465 70.9V71.8C28.9465 72.056 29.0125 72.252 29.1445 72.388C29.2765 72.524 29.4565 72.592 29.6845 72.592Z" fill="black"/>
<line x1="38.25" y1="65" x2="38.25" y2="77" stroke="black" stroke-width="0.5"/>
<path d="M43.9035 73.06C43.6395 73.06 43.4115 73.01 43.2195 72.91C43.0315 72.81 42.8855 72.666 42.7815 72.478C42.6815 72.286 42.6315 72.06 42.6315 71.8V69.82C42.6315 69.556 42.6815 69.33 42.7815 69.142C42.8855 68.954 43.0315 68.81 43.2195 68.71C43.4115 68.61 43.6395 68.56 43.9035 68.56C44.1675 68.56 44.3935 68.61 44.5815 68.71C44.7735 68.81 44.9195 68.954 45.0195 69.142C45.1235 69.33 45.1755 69.554 45.1755 69.814V71.8C45.1755 72.06 45.1235 72.286 45.0195 72.478C44.9195 72.666 44.7735 72.81 44.5815 72.91C44.3935 73.01 44.1675 73.06 43.9035 73.06ZM43.9035 72.574C44.1395 72.574 44.3195 72.508 44.4435 72.376C44.5715 72.24 44.6355 72.048 44.6355 71.8V69.82C44.6355 69.572 44.5715 69.382 44.4435 69.25C44.3195 69.114 44.1395 69.046 43.9035 69.046C43.6715 69.046 43.4915 69.114 43.3635 69.25C43.2355 69.382 43.1715 69.572 43.1715 69.82V71.8C43.1715 72.048 43.2355 72.24 43.3635 72.376C43.4915 72.508 43.6715 72.574 43.9035 72.574ZM46.2532 74.08V69.7H46.7932V70.33H46.9012L46.7932 70.456C46.7932 70.204 46.8752 70.006 47.0392 69.862C47.2072 69.714 47.4272 69.64 47.6992 69.64C48.0312 69.64 48.2952 69.75 48.4912 69.97C48.6912 70.186 48.7912 70.484 48.7912 70.864V71.83C48.7912 72.082 48.7452 72.3 48.6532 72.484C48.5652 72.668 48.4392 72.81 48.2752 72.91C48.1152 73.01 47.9232 73.06 47.6992 73.06C47.4312 73.06 47.2132 72.986 47.0452 72.838C46.8772 72.69 46.7932 72.492 46.7932 72.244L46.9012 72.37H46.7812L46.7932 73.12V74.08H46.2532ZM47.5192 72.592C47.7472 72.592 47.9252 72.524 48.0532 72.388C48.1852 72.252 48.2512 72.056 48.2512 71.8V70.9C48.2512 70.644 48.1852 70.448 48.0532 70.312C47.9252 70.176 47.7472 70.108 47.5192 70.108C47.2992 70.108 47.1232 70.178 46.9912 70.318C46.8592 70.458 46.7932 70.652 46.7932 70.9V71.8C46.7932 72.048 46.8592 72.242 46.9912 72.382C47.1232 72.522 47.2992 72.592 47.5192 72.592ZM49.8388 73V72.508H51.0268V69.07L49.8388 69.958V69.358L50.8288 68.62H51.5668V72.508H52.5388V73H49.8388Z" fill="black"/>
<path d="M76.0357 30H75.4957V26.19H74.1577V25.716H77.3677V26.19H76.0357V30ZM79.1428 26.724C79.2028 26.724 79.2668 26.728 79.3348 26.736C79.4068 26.74 79.4688 26.748 79.5208 26.76L79.4548 27.246C79.4028 27.234 79.3448 27.224 79.2808 27.216C79.2208 27.208 79.1628 27.204 79.1068 27.204C78.9828 27.204 78.8648 27.23 78.7528 27.282C78.6408 27.334 78.5408 27.408 78.4528 27.504C78.3648 27.596 78.2948 27.708 78.2428 27.84C78.1948 27.972 78.1708 28.12 78.1708 28.284V30H77.6428V26.784H78.0748L78.1348 27.372H78.1588C78.2268 27.252 78.3088 27.144 78.4048 27.048C78.5008 26.948 78.6108 26.87 78.7348 26.814C78.8588 26.754 78.9948 26.724 79.1428 26.724ZM81.2221 26.73C81.6141 26.73 81.9041 26.816 82.0921 26.988C82.2801 27.16 82.3741 27.434 82.3741 27.81V30H81.9901L81.8881 29.544H81.8641C81.7721 29.66 81.6761 29.758 81.5761 29.838C81.4801 29.914 81.3681 29.97 81.2401 30.006C81.1161 30.042 80.9641 30.06 80.7841 30.06C80.5921 30.06 80.4181 30.026 80.2621 29.958C80.1101 29.89 79.9901 29.786 79.9021 29.646C79.8141 29.502 79.7701 29.322 79.7701 29.106C79.7701 28.786 79.8961 28.54 80.1481 28.368C80.4001 28.192 80.7881 28.096 81.3121 28.08L81.8581 28.062V27.87C81.8581 27.602 81.8001 27.416 81.6841 27.312C81.5681 27.208 81.4041 27.156 81.1921 27.156C81.0241 27.156 80.8641 27.182 80.7121 27.234C80.5601 27.282 80.4181 27.338 80.2861 27.402L80.1241 27.006C80.2641 26.93 80.4301 26.866 80.6221 26.814C80.8141 26.758 81.0141 26.73 81.2221 26.73ZM81.3781 28.446C80.9781 28.462 80.7001 28.526 80.5441 28.638C80.3921 28.75 80.3161 28.908 80.3161 29.112C80.3161 29.292 80.3701 29.424 80.4781 29.508C80.5901 29.592 80.7321 29.634 80.9041 29.634C81.1761 29.634 81.4021 29.56 81.5821 29.412C81.7621 29.26 81.8521 29.028 81.8521 28.716V28.428L81.3781 28.446ZM84.9154 26.724C85.2994 26.724 85.5894 26.818 85.7854 27.006C85.9814 27.19 86.0794 27.49 86.0794 27.906V30H85.5574V27.942C85.5574 27.682 85.4994 27.488 85.3834 27.36C85.2674 27.232 85.0854 27.168 84.8374 27.168C84.4814 27.168 84.2354 27.268 84.0994 27.468C83.9634 27.668 83.8954 27.956 83.8954 28.332V30H83.3674V26.784H83.7934L83.8714 27.222H83.9014C83.9734 27.11 84.0614 27.018 84.1654 26.946C84.2734 26.87 84.3914 26.814 84.5194 26.778C84.6474 26.742 84.7794 26.724 84.9154 26.724ZM89.1704 29.112C89.1704 29.32 89.1184 29.494 89.0144 29.634C88.9104 29.774 88.7624 29.88 88.5704 29.952C88.3784 30.024 88.1504 30.06 87.8864 30.06C87.6624 30.06 87.4684 30.042 87.3044 30.006C87.1444 29.97 87.0024 29.92 86.8784 29.856V29.376C87.0064 29.44 87.1604 29.5 87.3404 29.556C87.5244 29.608 87.7104 29.634 87.8984 29.634C88.1664 29.634 88.3604 29.592 88.4804 29.508C88.6004 29.42 88.6604 29.304 88.6604 29.16C88.6604 29.08 88.6384 29.008 88.5944 28.944C88.5504 28.88 88.4704 28.816 88.3544 28.752C88.2424 28.688 88.0804 28.616 87.8684 28.536C87.6604 28.456 87.4824 28.376 87.3344 28.296C87.1864 28.216 87.0724 28.12 86.9924 28.008C86.9124 27.896 86.8724 27.752 86.8724 27.576C86.8724 27.304 86.9824 27.094 87.2024 26.946C87.4264 26.798 87.7184 26.724 88.0784 26.724C88.2744 26.724 88.4564 26.744 88.6244 26.784C88.7964 26.82 88.9564 26.872 89.1044 26.94L88.9244 27.36C88.8364 27.32 88.7424 27.286 88.6424 27.258C88.5464 27.226 88.4484 27.202 88.3484 27.186C88.2484 27.166 88.1464 27.156 88.0424 27.156C87.8264 27.156 87.6604 27.192 87.5444 27.264C87.4324 27.332 87.3764 27.426 87.3764 27.546C87.3764 27.634 87.4024 27.71 87.4544 27.774C87.5064 27.834 87.5924 27.894 87.7124 27.954C87.8364 28.01 88.0004 28.078 88.2044 28.158C88.4084 28.234 88.5824 28.312 88.7264 28.392C88.8704 28.472 88.9804 28.57 89.0564 28.686C89.1324 28.798 89.1704 28.94 89.1704 29.112ZM90.4755 30H89.9475V25.44H90.4755V30ZM92.7124 26.73C93.1044 26.73 93.3944 26.816 93.5824 26.988C93.7704 27.16 93.8644 27.434 93.8644 27.81V30H93.4804L93.3784 29.544H93.3544C93.2624 29.66 93.1664 29.758 93.0664 29.838C92.9704 29.914 92.8584 29.97 92.7304 30.006C92.6064 30.042 92.4544 30.06 92.2744 30.06C92.0824 30.06 91.9084 30.026 91.7524 29.958C91.6004 29.89 91.4804 29.786 91.3924 29.646C91.3044 29.502 91.2604 29.322 91.2604 29.106C91.2604 28.786 91.3864 28.54 91.6384 28.368C91.8904 28.192 92.2784 28.096 92.8024 28.08L93.3484 28.062V27.87C93.3484 27.602 93.2904 27.416 93.1744 27.312C93.0584 27.208 92.8944 27.156 92.6824 27.156C92.5144 27.156 92.3544 27.182 92.2024 27.234C92.0504 27.282 91.9084 27.338 91.7764 27.402L91.6144 27.006C91.7544 26.93 91.9204 26.866 92.1124 26.814C92.3044 26.758 92.5044 26.73 92.7124 26.73ZM92.8684 28.446C92.4684 28.462 92.1904 28.526 92.0344 28.638C91.8824 28.75 91.8064 28.908 91.8064 29.112C91.8064 29.292 91.8604 29.424 91.9684 29.508C92.0804 29.592 92.2224 29.634 92.3944 29.634C92.6664 29.634 92.8924 29.56 93.0724 29.412C93.2524 29.26 93.3424 29.028 93.3424 28.716V28.428L92.8684 28.446ZM95.9317 29.628C96.0117 29.628 96.0937 29.622 96.1777 29.61C96.2617 29.594 96.3297 29.578 96.3817 29.562V29.964C96.3257 29.992 96.2457 30.014 96.1417 30.03C96.0377 30.05 95.9377 30.06 95.8417 30.06C95.6737 30.06 95.5177 30.032 95.3737 29.976C95.2337 29.916 95.1197 29.814 95.0317 29.67C94.9437 29.526 94.8997 29.324 94.8997 29.064V27.192H94.4437V26.94L94.9057 26.73L95.1157 26.046H95.4277V26.784H96.3577V27.192H95.4277V29.052C95.4277 29.248 95.4737 29.394 95.5657 29.49C95.6617 29.582 95.7837 29.628 95.9317 29.628ZM98.2676 26.724C98.5436 26.724 98.7796 26.784 98.9756 26.904C99.1756 27.024 99.3276 27.194 99.4316 27.414C99.5396 27.63 99.5936 27.884 99.5936 28.176V28.494H97.3916C97.3996 28.858 97.4916 29.136 97.6676 29.328C97.8476 29.516 98.0976 29.61 98.4176 29.61C98.6216 29.61 98.8016 29.592 98.9576 29.556C99.1176 29.516 99.2816 29.46 99.4496 29.388V29.85C99.2856 29.922 99.1236 29.974 98.9636 30.006C98.8036 30.042 98.6136 30.06 98.3936 30.06C98.0896 30.06 97.8196 29.998 97.5836 29.874C97.3516 29.75 97.1696 29.566 97.0376 29.322C96.9096 29.074 96.8456 28.772 96.8456 28.416C96.8456 28.064 96.9036 27.762 97.0196 27.51C97.1396 27.258 97.3056 27.064 97.5176 26.928C97.7336 26.792 97.9836 26.724 98.2676 26.724ZM98.2616 27.156C98.0096 27.156 97.8096 27.238 97.6616 27.402C97.5176 27.562 97.4316 27.786 97.4036 28.074H99.0416C99.0416 27.89 99.0136 27.73 98.9576 27.594C98.9016 27.458 98.8156 27.352 98.6996 27.276C98.5876 27.196 98.4416 27.156 98.2616 27.156Z" fill="black"/>
<path d="M34.1518 91.14C34.0558 91.14 33.9718 91.132 33.8998 91.116C33.8278 91.104 33.7638 91.086 33.7078 91.062V90.606C33.7718 90.622 33.8398 90.636 33.9118 90.648C33.9838 90.66 34.0598 90.666 34.1398 90.666C34.2398 90.666 34.3338 90.646 34.4218 90.606C34.5138 90.566 34.5878 90.496 34.6438 90.396C34.6998 90.296 34.7278 90.156 34.7278 89.976V85.716H35.2678V89.934C35.2678 90.21 35.2218 90.436 35.1298 90.612C35.0378 90.792 34.9078 90.924 34.7398 91.008C34.5718 91.096 34.3758 91.14 34.1518 91.14ZM39.0144 86.784V90H38.5824L38.5044 89.574H38.4804C38.4124 89.686 38.3244 89.778 38.2164 89.85C38.1084 89.922 37.9904 89.974 37.8624 90.006C37.7344 90.042 37.6004 90.06 37.4604 90.06C37.2044 90.06 36.9884 90.02 36.8124 89.94C36.6404 89.856 36.5104 89.728 36.4224 89.556C36.3344 89.384 36.2904 89.162 36.2904 88.89V86.784H36.8244V88.854C36.8244 89.11 36.8824 89.302 36.9984 89.43C37.1144 89.558 37.2944 89.622 37.5384 89.622C37.7784 89.622 37.9664 89.578 38.1024 89.49C38.2424 89.398 38.3404 89.266 38.3964 89.094C38.4564 88.918 38.4864 88.706 38.4864 88.458V86.784H39.0144ZM43.5634 86.724C43.9274 86.724 44.1994 86.818 44.3794 87.006C44.5594 87.19 44.6494 87.49 44.6494 87.906V90H44.1274V87.93C44.1274 87.678 44.0734 87.488 43.9654 87.36C43.8614 87.232 43.6974 87.168 43.4734 87.168C43.1614 87.168 42.9374 87.258 42.8014 87.438C42.6694 87.618 42.6034 87.88 42.6034 88.224V90H42.0814V87.93C42.0814 87.762 42.0574 87.622 42.0094 87.51C41.9614 87.394 41.8894 87.308 41.7934 87.252C41.6974 87.196 41.5734 87.168 41.4214 87.168C41.2054 87.168 41.0354 87.214 40.9114 87.306C40.7874 87.394 40.6974 87.524 40.6414 87.696C40.5894 87.868 40.5634 88.08 40.5634 88.332V90H40.0354V86.784H40.4614L40.5394 87.222H40.5694C40.6374 87.11 40.7194 87.018 40.8154 86.946C40.9154 86.87 41.0254 86.814 41.1454 86.778C41.2654 86.742 41.3894 86.724 41.5174 86.724C41.7654 86.724 41.9714 86.768 42.1354 86.856C42.3034 86.944 42.4254 87.08 42.5014 87.264H42.5314C42.6394 87.08 42.7854 86.944 42.9694 86.856C43.1574 86.768 43.3554 86.724 43.5634 86.724ZM47.1728 86.724C47.5688 86.724 47.8868 86.862 48.1268 87.138C48.3708 87.414 48.4928 87.83 48.4928 88.386C48.4928 88.75 48.4368 89.058 48.3248 89.31C48.2168 89.558 48.0628 89.746 47.8628 89.874C47.6668 89.998 47.4348 90.06 47.1668 90.06C47.0028 90.06 46.8568 90.038 46.7288 89.994C46.6008 89.95 46.4908 89.894 46.3988 89.826C46.3108 89.754 46.2348 89.676 46.1708 89.592H46.1348C46.1428 89.66 46.1508 89.746 46.1588 89.85C46.1668 89.954 46.1708 90.044 46.1708 90.12V91.44H45.6428V86.784H46.0748L46.1468 87.222H46.1708C46.2348 87.13 46.3108 87.046 46.3988 86.97C46.4908 86.894 46.5988 86.834 46.7228 86.79C46.8508 86.746 47.0008 86.724 47.1728 86.724ZM47.0768 87.168C46.8608 87.168 46.6868 87.21 46.5548 87.294C46.4228 87.374 46.3268 87.496 46.2668 87.66C46.2068 87.824 46.1748 88.032 46.1708 88.284V88.386C46.1708 88.65 46.1988 88.874 46.2548 89.058C46.3108 89.242 46.4048 89.382 46.5368 89.478C46.6728 89.574 46.8568 89.622 47.0888 89.622C47.2848 89.622 47.4448 89.568 47.5688 89.46C47.6968 89.352 47.7908 89.206 47.8508 89.022C47.9148 88.834 47.9468 88.62 47.9468 88.38C47.9468 88.012 47.8748 87.718 47.7308 87.498C47.5908 87.278 47.3728 87.168 47.0768 87.168Z" fill="black"/>
<path d="M8.91202 30H7.36402V29.688L7.86802 29.574V26.148L7.36402 26.028V25.716H8.91202V26.028L8.40802 26.148V29.574L8.91202 29.688V30ZM11.2152 26.724C11.5992 26.724 11.8892 26.818 12.0852 27.006C12.2812 27.19 12.3792 27.49 12.3792 27.906V30H11.8572V27.942C11.8572 27.682 11.7992 27.488 11.6832 27.36C11.5672 27.232 11.3852 27.168 11.1372 27.168C10.7812 27.168 10.5352 27.268 10.3992 27.468C10.2632 27.668 10.1952 27.956 10.1952 28.332V30H9.66723V26.784H10.0932L10.1712 27.222H10.2012C10.2732 27.11 10.3612 27.018 10.4652 26.946C10.5732 26.87 10.6912 26.814 10.8192 26.778C10.9472 26.742 11.0792 26.724 11.2152 26.724ZM13.9042 26.784V30H13.3762V26.784H13.9042ZM13.6462 25.578C13.7262 25.578 13.7962 25.606 13.8562 25.662C13.9202 25.714 13.9522 25.798 13.9522 25.914C13.9522 26.026 13.9202 26.11 13.8562 26.166C13.7962 26.222 13.7262 26.25 13.6462 26.25C13.5582 26.25 13.4842 26.222 13.4242 26.166C13.3642 26.11 13.3342 26.026 13.3342 25.914C13.3342 25.798 13.3642 25.714 13.4242 25.662C13.4842 25.606 13.5582 25.578 13.6462 25.578ZM15.9971 29.628C16.0771 29.628 16.1591 29.622 16.2431 29.61C16.3271 29.594 16.3951 29.578 16.4471 29.562V29.964C16.3911 29.992 16.3111 30.014 16.2071 30.03C16.1031 30.05 16.0031 30.06 15.9071 30.06C15.7391 30.06 15.5831 30.032 15.4391 29.976C15.2991 29.916 15.1851 29.814 15.0971 29.67C15.0091 29.526 14.9651 29.324 14.9651 29.064V27.192H14.5091V26.94L14.9711 26.73L15.1811 26.046H15.4931V26.784H16.4231V27.192H15.4931V29.052C15.4931 29.248 15.5391 29.394 15.6311 29.49C15.7271 29.582 15.8491 29.628 15.9971 29.628ZM17.6191 26.784V30H17.0911V26.784H17.6191ZM17.3611 25.578C17.4411 25.578 17.5111 25.606 17.5711 25.662C17.6351 25.714 17.6671 25.798 17.6671 25.914C17.6671 26.026 17.6351 26.11 17.5711 26.166C17.5111 26.222 17.4411 26.25 17.3611 26.25C17.2731 26.25 17.1991 26.222 17.1391 26.166C17.0791 26.11 17.0491 26.026 17.0491 25.914C17.0491 25.798 17.0791 25.714 17.1391 25.662C17.1991 25.606 17.2731 25.578 17.3611 25.578ZM19.8559 26.73C20.2479 26.73 20.5379 26.816 20.7259 26.988C20.9139 27.16 21.0079 27.434 21.0079 27.81V30H20.6239L20.5219 29.544H20.4979C20.4059 29.66 20.3099 29.758 20.2099 29.838C20.1139 29.914 20.0019 29.97 19.8739 30.006C19.7499 30.042 19.5979 30.06 19.4179 30.06C19.2259 30.06 19.0519 30.026 18.8959 29.958C18.7439 29.89 18.6239 29.786 18.5359 29.646C18.4479 29.502 18.4039 29.322 18.4039 29.106C18.4039 28.786 18.5299 28.54 18.7819 28.368C19.0339 28.192 19.4219 28.096 19.9459 28.08L20.4919 28.062V27.87C20.4919 27.602 20.4339 27.416 20.3179 27.312C20.2019 27.208 20.0379 27.156 19.8259 27.156C19.6579 27.156 19.4979 27.182 19.3459 27.234C19.1939 27.282 19.0519 27.338 18.9199 27.402L18.7579 27.006C18.8979 26.93 19.0639 26.866 19.2559 26.814C19.4479 26.758 19.6479 26.73 19.8559 26.73ZM20.0119 28.446C19.6119 28.462 19.3339 28.526 19.1779 28.638C19.0259 28.75 18.9499 28.908 18.9499 29.112C18.9499 29.292 19.0039 29.424 19.1119 29.508C19.2239 29.592 19.3659 29.634 19.5379 29.634C19.8099 29.634 20.0359 29.56 20.2159 29.412C20.3959 29.26 20.4859 29.028 20.4859 28.716V28.428L20.0119 28.446ZM22.5292 30H22.0012V25.44H22.5292V30ZM24.0761 26.784V30H23.5481V26.784H24.0761ZM23.8181 25.578C23.8981 25.578 23.9681 25.606 24.0281 25.662C24.0921 25.714 24.1241 25.798 24.1241 25.914C24.1241 26.026 24.0921 26.11 24.0281 26.166C23.9681 26.222 23.8981 26.25 23.8181 26.25C23.7301 26.25 23.6561 26.222 23.5961 26.166C23.5361 26.11 23.5061 26.026 23.5061 25.914C23.5061 25.798 23.5361 25.714 23.5961 25.662C23.6561 25.606 23.7301 25.578 23.8181 25.578ZM27.189 29.112C27.189 29.32 27.137 29.494 27.033 29.634C26.929 29.774 26.781 29.88 26.589 29.952C26.397 30.024 26.169 30.06 25.905 30.06C25.681 30.06 25.487 30.042 25.323 30.006C25.163 29.97 25.021 29.92 24.897 29.856V29.376C25.025 29.44 25.179 29.5 25.359 29.556C25.543 29.608 25.729 29.634 25.917 29.634C26.185 29.634 26.379 29.592 26.499 29.508C26.619 29.42 26.679 29.304 26.679 29.16C26.679 29.08 26.657 29.008 26.613 28.944C26.569 28.88 26.489 28.816 26.373 28.752C26.261 28.688 26.099 28.616 25.887 28.536C25.679 28.456 25.501 28.376 25.353 28.296C25.205 28.216 25.091 28.12 25.011 28.008C24.931 27.896 24.891 27.752 24.891 27.576C24.891 27.304 25.001 27.094 25.221 26.946C25.445 26.798 25.737 26.724 26.097 26.724C26.293 26.724 26.475 26.744 26.643 26.784C26.815 26.82 26.975 26.872 27.123 26.94L26.943 27.36C26.855 27.32 26.761 27.286 26.661 27.258C26.565 27.226 26.467 27.202 26.367 27.186C26.267 27.166 26.165 27.156 26.061 27.156C25.845 27.156 25.679 27.192 25.563 27.264C25.451 27.332 25.395 27.426 25.395 27.546C25.395 27.634 25.421 27.71 25.473 27.774C25.525 27.834 25.611 27.894 25.731 27.954C25.855 28.01 26.019 28.078 26.223 28.158C26.427 28.234 26.601 28.312 26.745 28.392C26.889 28.472 26.999 28.57 27.075 28.686C27.151 28.798 27.189 28.94 27.189 29.112ZM29.1841 26.73C29.5761 26.73 29.8661 26.816 30.0541 26.988C30.2421 27.16 30.3361 27.434 30.3361 27.81V30H29.9521L29.8501 29.544H29.8261C29.7341 29.66 29.6381 29.758 29.5381 29.838C29.4421 29.914 29.3301 29.97 29.2021 30.006C29.0781 30.042 28.9261 30.06 28.7461 30.06C28.5541 30.06 28.3801 30.026 28.2241 29.958C28.0721 29.89 27.9521 29.786 27.8641 29.646C27.7761 29.502 27.7321 29.322 27.7321 29.106C27.7321 28.786 27.8581 28.54 28.1101 28.368C28.3621 28.192 28.7501 28.096 29.2741 28.08L29.8201 28.062V27.87C29.8201 27.602 29.7621 27.416 29.6461 27.312C29.5301 27.208 29.3661 27.156 29.1541 27.156C28.9861 27.156 28.8261 27.182 28.6741 27.234C28.5221 27.282 28.3801 27.338 28.2481 27.402L28.0861 27.006C28.2261 26.93 28.3921 26.866 28.5841 26.814C28.7761 26.758 28.9761 26.73 29.1841 26.73ZM29.3401 28.446C28.9401 28.462 28.6621 28.526 28.5061 28.638C28.3541 28.75 28.2781 28.908 28.2781 29.112C28.2781 29.292 28.3321 29.424 28.4401 29.508C28.5521 29.592 28.6941 29.634 28.8661 29.634C29.1381 29.634 29.3641 29.56 29.5441 29.412C29.7241 29.26 29.8141 29.028 29.8141 28.716V28.428L29.3401 28.446ZM32.4033 29.628C32.4833 29.628 32.5653 29.622 32.6493 29.61C32.7333 29.594 32.8013 29.578 32.8533 29.562V29.964C32.7973 29.992 32.7173 30.014 32.6133 30.03C32.5093 30.05 32.4093 30.06 32.3133 30.06C32.1453 30.06 31.9893 30.032 31.8453 29.976C31.7053 29.916 31.5913 29.814 31.5033 29.67C31.4153 29.526 31.3713 29.324 31.3713 29.064V27.192H30.9153V26.94L31.3773 26.73L31.5873 26.046H31.8993V26.784H32.8293V27.192H31.8993V29.052C31.8993 29.248 31.9453 29.394 32.0373 29.49C32.1333 29.582 32.2553 29.628 32.4033 29.628ZM34.0253 26.784V30H33.4973V26.784H34.0253ZM33.7673 25.578C33.8473 25.578 33.9173 25.606 33.9773 25.662C34.0413 25.714 34.0733 25.798 34.0733 25.914C34.0733 26.026 34.0413 26.11 33.9773 26.166C33.9173 26.222 33.8473 26.25 33.7673 26.25C33.6793 26.25 33.6053 26.222 33.5453 26.166C33.4853 26.11 33.4553 26.026 33.4553 25.914C33.4553 25.798 33.4853 25.714 33.5453 25.662C33.6053 25.606 33.6793 25.578 33.7673 25.578ZM37.8402 28.386C37.8402 28.654 37.8042 28.892 37.7322 29.1C37.6642 29.304 37.5642 29.478 37.4322 29.622C37.3042 29.766 37.1462 29.876 36.9582 29.952C36.7742 30.024 36.5682 30.06 36.3402 30.06C36.1282 30.06 35.9322 30.024 35.7522 29.952C35.5722 29.876 35.4162 29.766 35.2842 29.622C35.1522 29.478 35.0482 29.304 34.9722 29.1C34.9002 28.892 34.8642 28.654 34.8642 28.386C34.8642 28.03 34.9242 27.73 35.0442 27.486C35.1642 27.238 35.3362 27.05 35.5602 26.922C35.7842 26.79 36.0502 26.724 36.3582 26.724C36.6502 26.724 36.9062 26.79 37.1262 26.922C37.3502 27.05 37.5242 27.238 37.6482 27.486C37.7762 27.73 37.8402 28.03 37.8402 28.386ZM35.4102 28.386C35.4102 28.638 35.4422 28.858 35.5062 29.046C35.5742 29.23 35.6782 29.372 35.8182 29.472C35.9582 29.572 36.1362 29.622 36.3522 29.622C36.5682 29.622 36.7462 29.572 36.8862 29.472C37.0262 29.372 37.1282 29.23 37.1922 29.046C37.2602 28.858 37.2942 28.638 37.2942 28.386C37.2942 28.13 37.2602 27.912 37.1922 27.732C37.1242 27.552 37.0202 27.414 36.8802 27.318C36.7442 27.218 36.5662 27.168 36.3462 27.168C36.0182 27.168 35.7802 27.276 35.6322 27.492C35.4842 27.708 35.4102 28.006 35.4102 28.386ZM40.225 26.724C40.609 26.724 40.899 26.818 41.095 27.006C41.291 27.19 41.389 27.49 41.389 27.906V30H40.867V27.942C40.867 27.682 40.809 27.488 40.693 27.36C40.577 27.232 40.395 27.168 40.147 27.168C39.791 27.168 39.545 27.268 39.409 27.468C39.273 27.668 39.205 27.956 39.205 28.332V30H38.677V26.784H39.103L39.181 27.222H39.211C39.283 27.11 39.371 27.018 39.475 26.946C39.583 26.87 39.701 26.814 39.829 26.778C39.957 26.742 40.089 26.724 40.225 26.724Z" fill="black"/>
<g clip-path="url(#clip0_123_59)">
<path d="M50.076 52.05C50.076 52.4833 50.048 52.8 49.992 53H49.74C48.536 53 47.696 51.9 47.22 49.7C47.1733 49.4667 47.136 49.2667 47.108 49.1C47.08 48.9333 47.0566 48.75 47.038 48.55C47.0193 48.35 47.0006 48.1333 46.982 47.9C46.9633 47.6667 46.954 47.4167 46.954 47.15C46.954 46.8833 46.9493 46.5167 46.94 46.05C46.9306 45.5833 46.926 45.1333 46.926 44.7C46.926 44.2667 46.926 43.65 46.926 42.85C46.926 42.05 46.926 41.2667 46.926 40.5C46.926 39.8 46.926 38.9167 46.926 37.85C46.9166 34.8833 46.8933 33.2167 46.856 32.85C46.8466 32.8167 46.842 32.7833 46.842 32.75C46.7113 31.55 46.478 30.6167 46.142 29.95C45.806 29.2833 45.4746 28.95 45.148 28.95C45.0453 28.95 44.98 28.9 44.952 28.8C44.924 28.7 44.91 28.4333 44.91 28C44.91 27.5667 44.924 27.3 44.952 27.2C44.98 27.1 45.0453 27.05 45.148 27.05C45.4653 27.05 45.792 26.7167 46.128 26.05C46.464 25.3833 46.702 24.45 46.842 23.25C46.8886 22.8833 46.912 22.35 46.912 21.65C46.912 20.95 46.9166 18.4167 46.926 14.05V11.55C46.926 9.71667 46.954 8.43333 47.01 7.7C47.066 6.96667 47.2013 6.26667 47.416 5.6C47.6586 4.73334 48.032 4.03334 48.536 3.5C48.8813 3.23334 49.1286 3.08334 49.278 3.05C49.2966 3.05 49.3573 3.05 49.46 3.05C49.5626 3.05 49.6466 3.03333 49.712 3H49.992C50.048 3.2 50.076 3.5 50.076 3.9C50.076 4.33333 50.062 4.6 50.034 4.7C50.0153 4.8 49.9406 4.85 49.81 4.85C49.3153 4.95 48.928 5.35 48.648 6.05C48.368 6.75 48.2 7.45 48.144 8.15C48.0973 8.58333 48.074 11.05 48.074 15.55V19.65C48.074 21.2167 48.06 22.2833 48.032 22.85C48.004 23.4167 47.9246 24.0667 47.794 24.8C47.5046 26.2333 47.0986 27.2167 46.576 27.75L46.38 28L46.576 28.25C46.744 28.45 46.912 28.7 47.08 29C47.248 29.3 47.444 29.8667 47.668 30.7C47.892 31.5333 48.0226 32.5167 48.06 33.65C48.0693 33.85 48.074 36.1167 48.074 40.45C48.074 44.95 48.0973 47.4167 48.144 47.85C48.2373 48.75 48.438 49.5 48.746 50.1C49.054 50.7 49.4086 51.05 49.81 51.15C49.9406 51.15 50.0153 51.2 50.034 51.3C50.062 51.4 50.076 51.65 50.076 52.05Z" fill="black"/>
</g>
<g clip-path="url(#clip1_123_59)">
<mask id="path-17-inside-1_123_59" fill="white">
<path d="M7 99H59V121H7V99Z"/>
</mask>
<mask id="path-19-inside-2_123_59" fill="white">
<path d="M7 99H59V110H7V99Z"/>
</mask>
<path d="M7 99H59V110H7V99Z" fill="#8CE6AA"/>
<path d="M59 110V109.6H7V110V110.4H59V110Z" fill="black" mask="url(#path-19-inside-2_123_59)"/>
<path d="M11.7141 106.5L12.8541 102.12H13.5801L14.7141 106.5H14.1681L13.8801 105.336H12.5541L12.2661 106.5H11.7141ZM12.6621 104.88H13.7661L13.4301 103.53C13.3661 103.274 13.3161 103.06 13.2801 102.888C13.2441 102.716 13.2221 102.604 13.2141 102.552C13.2061 102.604 13.1841 102.716 13.1481 102.888C13.1121 103.06 13.0621 103.272 12.9981 103.524L12.6621 104.88ZM16.6197 106.56C16.2917 106.56 16.0257 106.45 15.8217 106.23C15.6217 106.01 15.5217 105.712 15.5217 105.336V104.37C15.5217 103.99 15.6217 103.69 15.8217 103.47C16.0217 103.25 16.2877 103.14 16.6197 103.14C16.8917 103.14 17.1097 103.214 17.2737 103.362C17.4377 103.51 17.5197 103.708 17.5197 103.956L17.4117 103.83H17.5317L17.5197 103.08V102.12H18.0597V106.5H17.5197V105.87H17.4117L17.5197 105.744C17.5197 105.996 17.4377 106.196 17.2737 106.344C17.1097 106.488 16.8917 106.56 16.6197 106.56ZM16.7997 106.092C17.0237 106.092 17.1997 106.022 17.3277 105.882C17.4557 105.742 17.5197 105.548 17.5197 105.3V104.4C17.5197 104.152 17.4557 103.958 17.3277 103.818C17.1997 103.678 17.0237 103.608 16.7997 103.608C16.5717 103.608 16.3917 103.676 16.2597 103.812C16.1277 103.948 16.0617 104.144 16.0617 104.4V105.3C16.0617 105.556 16.1277 105.752 16.2597 105.888C16.3917 106.024 16.5717 106.092 16.7997 106.092ZM20.2174 106.56C19.8894 106.56 19.6234 106.45 19.4194 106.23C19.2194 106.01 19.1194 105.712 19.1194 105.336V104.37C19.1194 103.99 19.2194 103.69 19.4194 103.47C19.6194 103.25 19.8854 103.14 20.2174 103.14C20.4894 103.14 20.7074 103.214 20.8714 103.362C21.0354 103.51 21.1174 103.708 21.1174 103.956L21.0094 103.83H21.1294L21.1174 103.08V102.12H21.6574V106.5H21.1174V105.87H21.0094L21.1174 105.744C21.1174 105.996 21.0354 106.196 20.8714 106.344C20.7074 106.488 20.4894 106.56 20.2174 106.56ZM20.3974 106.092C20.6214 106.092 20.7974 106.022 20.9254 105.882C21.0534 105.742 21.1174 105.548 21.1174 105.3V104.4C21.1174 104.152 21.0534 103.958 20.9254 103.818C20.7974 103.678 20.6214 103.608 20.3974 103.608C20.1694 103.608 19.9894 103.676 19.8574 103.812C19.7254 103.948 19.6594 104.144 19.6594 104.4V105.3C19.6594 105.556 19.7254 105.752 19.8574 105.888C19.9894 106.024 20.1694 106.092 20.3974 106.092ZM26.3627 106.5V102.12H26.9027V103.992H28.3067V102.12H28.8467V106.5H28.3067V104.484H26.9027V106.5H26.3627ZM30.9143 106.56C30.5663 106.56 30.2923 106.472 30.0923 106.296C29.8923 106.116 29.7923 105.874 29.7923 105.57C29.7923 105.262 29.8923 105.02 30.0923 104.844C30.2923 104.668 30.5623 104.58 30.9023 104.58H31.9223V104.25C31.9223 104.046 31.8603 103.89 31.7363 103.782C31.6163 103.67 31.4443 103.614 31.2203 103.614C31.0243 103.614 30.8603 103.656 30.7283 103.74C30.5963 103.82 30.5203 103.93 30.5003 104.07H29.9603C29.9963 103.786 30.1303 103.56 30.3623 103.392C30.5943 103.224 30.8843 103.14 31.2323 103.14C31.6123 103.14 31.9123 103.238 32.1323 103.434C32.3523 103.63 32.4623 103.896 32.4623 104.232V106.5H31.9343V105.87H31.8443L31.9343 105.78C31.9343 106.02 31.8403 106.21 31.6523 106.35C31.4683 106.49 31.2223 106.56 30.9143 106.56ZM31.0463 106.134C31.3023 106.134 31.5123 106.07 31.6763 105.942C31.8403 105.814 31.9223 105.65 31.9223 105.45V104.982H30.9143C30.7343 104.982 30.5923 105.032 30.4883 105.132C30.3843 105.232 30.3323 105.368 30.3323 105.54C30.3323 105.724 30.3943 105.87 30.5183 105.978C30.6463 106.082 30.8223 106.134 31.0463 106.134ZM33.552 106.5V103.2H34.092V103.83H34.206L34.092 103.956C34.092 103.696 34.17 103.496 34.326 103.356C34.482 103.212 34.698 103.14 34.974 103.14C35.306 103.14 35.57 103.242 35.766 103.446C35.962 103.65 36.06 103.928 36.06 104.28V106.5H35.52V104.34C35.52 104.104 35.456 103.924 35.328 103.8C35.204 103.672 35.034 103.608 34.818 103.608C34.594 103.608 34.416 103.676 34.284 103.812C34.156 103.948 34.092 104.144 34.092 104.4V106.5H33.552ZM38.2057 106.56C37.8777 106.56 37.6117 106.45 37.4077 106.23C37.2077 106.01 37.1077 105.712 37.1077 105.336V104.37C37.1077 103.99 37.2077 103.69 37.4077 103.47C37.6077 103.25 37.8737 103.14 38.2057 103.14C38.4777 103.14 38.6957 103.214 38.8597 103.362C39.0237 103.51 39.1057 103.708 39.1057 103.956L38.9977 103.83H39.1177L39.1057 103.08V102.12H39.6457V106.5H39.1057V105.87H38.9977L39.1057 105.744C39.1057 105.996 39.0237 106.196 38.8597 106.344C38.6957 106.488 38.4777 106.56 38.2057 106.56ZM38.3857 106.092C38.6097 106.092 38.7857 106.022 38.9137 105.882C39.0417 105.742 39.1057 105.548 39.1057 105.3V104.4C39.1057 104.152 39.0417 103.958 38.9137 103.818C38.7857 103.678 38.6097 103.608 38.3857 103.608C38.1577 103.608 37.9777 103.676 37.8457 103.812C37.7137 103.948 37.6477 104.144 37.6477 104.4V105.3C37.6477 105.556 37.7137 105.752 37.8457 105.888C37.9777 106.024 38.1577 106.092 38.3857 106.092ZM42.4453 106.5C42.2533 106.5 42.0853 106.462 41.9413 106.386C41.7973 106.31 41.6853 106.202 41.6053 106.062C41.5253 105.922 41.4853 105.758 41.4853 105.57V102.612H40.3753V102.12H42.0253V105.57C42.0253 105.706 42.0633 105.814 42.1393 105.894C42.2153 105.97 42.3173 106.008 42.4453 106.008H43.4953V106.5H42.4453ZM45.593 106.56C45.333 106.56 45.105 106.508 44.909 106.404C44.717 106.3 44.567 106.154 44.459 105.966C44.355 105.774 44.303 105.552 44.303 105.3V104.4C44.303 104.144 44.355 103.922 44.459 103.734C44.567 103.546 44.717 103.4 44.909 103.296C45.105 103.192 45.333 103.14 45.593 103.14C45.853 103.14 46.079 103.192 46.271 103.296C46.467 103.4 46.617 103.546 46.721 103.734C46.829 103.922 46.883 104.144 46.883 104.4V104.982H44.831V105.3C44.831 105.56 44.897 105.76 45.029 105.9C45.161 106.036 45.349 106.104 45.593 106.104C45.801 106.104 45.969 106.068 46.097 105.996C46.225 105.92 46.303 105.808 46.331 105.66H46.871C46.835 105.936 46.699 106.156 46.463 106.32C46.231 106.48 45.941 106.56 45.593 106.56ZM46.355 104.622V104.4C46.355 104.14 46.289 103.94 46.157 103.8C46.029 103.66 45.841 103.59 45.593 103.59C45.349 103.59 45.161 103.66 45.029 103.8C44.897 103.94 44.831 104.14 44.831 104.4V104.574H46.397L46.355 104.622ZM48.0566 106.5V103.2H48.5846V103.83H48.7106L48.5366 104.22C48.5366 103.864 48.6126 103.596 48.7646 103.416C48.9206 103.232 49.1506 103.14 49.4546 103.14C49.8026 103.14 50.0786 103.25 50.2826 103.47C50.4906 103.686 50.5946 103.98 50.5946 104.352V104.55H50.0546V104.4C50.0546 104.14 49.9906 103.942 49.8626 103.806C49.7386 103.666 49.5606 103.596 49.3286 103.596C49.1006 103.596 48.9206 103.666 48.7886 103.806C48.6606 103.946 48.5966 104.144 48.5966 104.4V106.5H48.0566ZM52.7883 104.04C52.6403 104.04 52.5203 104 52.4283 103.92C52.3363 103.836 52.2903 103.726 52.2903 103.59C52.2903 103.454 52.3363 103.346 52.4283 103.266C52.5203 103.182 52.6403 103.14 52.7883 103.14C52.9403 103.14 53.0603 103.182 53.1483 103.266C53.2403 103.346 53.2863 103.454 53.2863 103.59C53.2863 103.726 53.2403 103.836 53.1483 103.92C53.0603 104 52.9403 104.04 52.7883 104.04ZM52.7883 106.56C52.6403 106.56 52.5203 106.52 52.4283 106.44C52.3363 106.356 52.2903 106.246 52.2903 106.11C52.2903 105.974 52.3363 105.866 52.4283 105.786C52.5203 105.702 52.6403 105.66 52.7883 105.66C52.9403 105.66 53.0603 105.702 53.1483 105.786C53.2403 105.866 53.2863 105.974 53.2863 106.11C53.2863 106.246 53.2403 106.356 53.1483 106.44C53.0603 106.52 52.9403 106.56 52.7883 106.56Z" fill="black"/>
<mask id="path-22-inside-3_123_59" fill="white">
<path d="M7 110H59V121H7V110Z"/>
</mask>
<path d="M7 110H59V121H7V110Z" fill="#8CE6AA"/>
<path d="M59 121V120.6H7V121V121.4H59V121Z" fill="black" mask="url(#path-22-inside-3_123_59)"/>
<circle cx="29.5" cy="115.75" r="0.75" transform="rotate(-90 29.5 115.75)" fill="black"/>
<circle cx="33" cy="115.75" r="0.75" transform="rotate(-90 33 115.75)" fill="black"/>
<circle cx="36.5" cy="115.75" r="0.75" transform="rotate(-90 36.5 115.75)" fill="black"/>
</g>
<path d="M7 99V98.5H6.5V99H7ZM59 99H59.5V98.5H59V99ZM7 99V99.5H59V99V98.5H7V99ZM59 99H58.5V121H59H59.5V99H59ZM7 121H7.5V99H7H6.5V121H7Z" fill="black" mask="url(#path-17-inside-1_123_59)"/>
<line x1="2" y1="59.75" x2="111" y2="59.75" stroke="black" stroke-width="0.5"/>
<path d="M25 96L27.8868 91L22.1132 91L25 96ZM25 80L24.5 80L24.5 91.5L25 91.5L25.5 91.5L25.5 80L25 80Z" fill="black"/>
<path d="M69 35L71.8868 30L66.1132 30L69 35ZM69 19L68.5 19L68.5 30.5L69 30.5L69.5 30.5L69.5 19L69 19Z" fill="black"/>
<defs>
<clipPath id="clip0_123_59">
<rect width="7" height="50" fill="white" transform="translate(44 3)"/>
</clipPath>
<clipPath id="clip1_123_59">
<path d="M7 99H59V121H7V99Z" fill="white"/>
</clipPath>
</defs>
</svg>
