<svg width="481" height="109" viewBox="0 0 481 109" fill="none" xmlns="http://www.w3.org/2000/svg">
<rect width="481" height="109" fill="white"/>
<rect x="12" y="30" width="98" height="50" rx="4" fill="#2CA02C"/>
<path d="M44.875 52H42.1818V43.2727H44.9943C45.8409 43.2727 46.5653 43.4474 47.1676 43.7969C47.7699 44.1435 48.2315 44.642 48.5526 45.2926C48.8736 45.9403 49.0341 46.7159 49.0341 47.6193C49.0341 48.5284 48.8722 49.3111 48.5483 49.9673C48.2244 50.6207 47.7528 51.1236 47.1335 51.4759C46.5142 51.8253 45.7614 52 44.875 52ZM43.2386 51.0625H44.8068C45.5284 51.0625 46.1264 50.9233 46.6009 50.6449C47.0753 50.3665 47.429 49.9702 47.6619 49.456C47.8949 48.9418 48.0114 48.3295 48.0114 47.6193C48.0114 46.9148 47.8963 46.3082 47.6662 45.7997C47.4361 45.2884 47.0923 44.8963 46.6349 44.6236C46.1776 44.348 45.608 44.2102 44.9261 44.2102H43.2386V51.0625ZM52.5966 52.1534C52.1818 52.1534 51.8054 52.0753 51.4673 51.919C51.1293 51.7599 50.8608 51.5312 50.6619 51.233C50.4631 50.9318 50.3636 50.5682 50.3636 50.142C50.3636 49.767 50.4375 49.4631 50.5852 49.2301C50.733 48.9943 50.9304 48.8097 51.1776 48.6761C51.4247 48.5426 51.6974 48.4432 51.9957 48.3778C52.2969 48.3097 52.5994 48.2557 52.9034 48.2159C53.3011 48.1648 53.6236 48.1264 53.8707 48.1009C54.1207 48.0724 54.3026 48.0256 54.4162 47.9602C54.5327 47.8949 54.5909 47.7812 54.5909 47.6193V47.5852C54.5909 47.1648 54.4759 46.8381 54.2457 46.6051C54.0185 46.3722 53.6733 46.2557 53.2102 46.2557C52.7301 46.2557 52.3537 46.3608 52.081 46.571C51.8082 46.7812 51.6165 47.0057 51.5057 47.2443L50.5511 46.9034C50.7216 46.5057 50.9489 46.196 51.233 45.9744C51.5199 45.75 51.8324 45.5937 52.1705 45.5057C52.5114 45.4148 52.8466 45.3693 53.1761 45.3693C53.3864 45.3693 53.6278 45.3949 53.9006 45.446C54.1761 45.4943 54.4418 45.5952 54.6974 45.7486C54.956 45.902 55.1705 46.1335 55.3409 46.4432C55.5114 46.7528 55.5966 47.1676 55.5966 47.6875V52H54.5909V51.1136H54.5398C54.4716 51.2557 54.358 51.4077 54.1989 51.5696C54.0398 51.7315 53.8281 51.8693 53.5639 51.983C53.2997 52.0966 52.9773 52.1534 52.5966 52.1534ZM52.75 51.25C53.1477 51.25 53.483 51.1719 53.7557 51.0156C54.0313 50.8594 54.2386 50.6577 54.3778 50.4105C54.5199 50.1634 54.5909 49.9034 54.5909 49.6307V48.7102C54.5483 48.7614 54.4545 48.8082 54.3097 48.8509C54.1676 48.8906 54.0028 48.9261 53.8153 48.9574C53.6307 48.9858 53.4503 49.0114 53.2741 49.0341C53.1009 49.054 52.9602 49.071 52.8523 49.0852C52.5909 49.1193 52.3466 49.1747 52.1193 49.2514C51.8949 49.3253 51.7131 49.4375 51.5739 49.5881C51.4375 49.7358 51.3693 49.9375 51.3693 50.1932C51.3693 50.5426 51.4986 50.8068 51.7571 50.9858C52.0185 51.1619 52.3494 51.25 52.75 51.25ZM60.2788 45.4545V46.3068H56.8867V45.4545H60.2788ZM57.8754 43.8864H58.881V50.125C58.881 50.4091 58.9222 50.6222 59.0046 50.7642C59.0898 50.9034 59.1978 50.9972 59.3285 51.0455C59.462 51.0909 59.6026 51.1136 59.7504 51.1136C59.8612 51.1136 59.9521 51.108 60.0231 51.0966C60.0941 51.0824 60.1509 51.071 60.1935 51.0625L60.3981 51.9659C60.3299 51.9915 60.2347 52.017 60.1126 52.0426C59.9904 52.071 59.8356 52.0852 59.6481 52.0852C59.364 52.0852 59.0856 52.0241 58.8129 51.902C58.543 51.7798 58.3185 51.5938 58.1396 51.3438C57.9634 51.0938 57.8754 50.7784 57.8754 50.3977V43.8864ZM63.7177 52.1534C63.3029 52.1534 62.9265 52.0753 62.5884 51.919C62.2504 51.7599 61.9819 51.5312 61.783 51.233C61.5842 50.9318 61.4847 50.5682 61.4847 50.142C61.4847 49.767 61.5586 49.4631 61.7063 49.2301C61.854 48.9943 62.0515 48.8097 62.2987 48.6761C62.5458 48.5426 62.8185 48.4432 63.1168 48.3778C63.418 48.3097 63.7205 48.2557 64.0245 48.2159C64.4222 48.1648 64.7447 48.1264 64.9918 48.1009C65.2418 48.0724 65.4237 48.0256 65.5373 47.9602C65.6538 47.8949 65.712 47.7812 65.712 47.6193V47.5852C65.712 47.1648 65.5969 46.8381 65.3668 46.6051C65.1396 46.3722 64.7944 46.2557 64.3313 46.2557C63.8512 46.2557 63.4748 46.3608 63.2021 46.571C62.9293 46.7812 62.7376 47.0057 62.6268 47.2443L61.6722 46.9034C61.8427 46.5057 62.07 46.196 62.354 45.9744C62.641 45.75 62.9535 45.5937 63.2915 45.5057C63.6325 45.4148 63.9677 45.3693 64.2972 45.3693C64.5075 45.3693 64.7489 45.3949 65.0217 45.446C65.2972 45.4943 65.5629 45.5952 65.8185 45.7486C66.0771 45.902 66.2915 46.1335 66.462 46.4432C66.6325 46.7528 66.7177 47.1676 66.7177 47.6875V52H65.712V51.1136H65.6609C65.5927 51.2557 65.479 51.4077 65.32 51.5696C65.1609 51.7315 64.9492 51.8693 64.685 51.983C64.4208 52.0966 64.0984 52.1534 63.7177 52.1534ZM63.8711 51.25C64.2688 51.25 64.604 51.1719 64.8768 51.0156C65.1523 50.8594 65.3597 50.6577 65.4989 50.4105C65.641 50.1634 65.712 49.9034 65.712 49.6307V48.7102C65.6694 48.7614 65.5756 48.8082 65.4308 48.8509C65.2887 48.8906 65.1239 48.9261 64.9364 48.9574C64.7518 48.9858 64.5714 49.0114 64.3952 49.0341C64.2219 49.054 64.0813 49.071 63.9734 49.0852C63.712 49.1193 63.4677 49.1747 63.2404 49.2514C63.016 49.3253 62.8342 49.4375 62.695 49.5881C62.5586 49.7358 62.4904 49.9375 62.4904 50.1932C62.4904 50.5426 62.6197 50.8068 62.8782 50.9858C63.1396 51.1619 63.4705 51.25 63.8711 51.25ZM71.9283 52V45.4545H72.9339V52H71.9283ZM72.4396 44.3636C72.2436 44.3636 72.0746 44.2969 71.9325 44.1634C71.7933 44.0298 71.7237 43.8693 71.7237 43.6818C71.7237 43.4943 71.7933 43.3338 71.9325 43.2003C72.0746 43.0668 72.2436 43 72.4396 43C72.6357 43 72.8033 43.0668 72.9425 43.2003C73.0845 43.3338 73.1555 43.4943 73.1555 43.6818C73.1555 43.8693 73.0845 44.0298 72.9425 44.1634C72.8033 44.2969 72.6357 44.3636 72.4396 44.3636ZM75.7816 48.0625V52H74.7759V45.4545H75.7475V46.4773H75.8327C75.9862 46.1449 76.2191 45.8778 76.5316 45.6761C76.8441 45.4716 77.2475 45.3693 77.7418 45.3693C78.185 45.3693 78.5728 45.4602 78.9052 45.642C79.2376 45.821 79.4961 46.0938 79.6808 46.4602C79.8654 46.8239 79.9577 47.2841 79.9577 47.8409V52H78.9521V47.9091C78.9521 47.3949 78.8185 46.9943 78.5515 46.7074C78.2844 46.4176 77.918 46.2727 77.4521 46.2727C77.131 46.2727 76.8441 46.3423 76.5913 46.4815C76.3413 46.6207 76.1438 46.8239 75.9989 47.0909C75.854 47.358 75.7816 47.6818 75.7816 48.0625ZM30.1088 60.4545C30.0577 60.0227 29.8503 59.6875 29.4867 59.4489C29.123 59.2102 28.677 59.0909 28.1486 59.0909C27.7623 59.0909 27.4242 59.1534 27.1344 59.2784C26.8475 59.4034 26.623 59.5753 26.4611 59.794C26.302 60.0128 26.2225 60.2614 26.2225 60.5398C26.2225 60.7727 26.2779 60.973 26.3887 61.1406C26.5023 61.3054 26.6472 61.4432 26.8233 61.554C26.9995 61.6619 27.1841 61.7514 27.3773 61.8224C27.5705 61.8906 27.748 61.946 27.91 61.9886L28.7963 62.2273C29.0236 62.2869 29.2765 62.3693 29.5549 62.4744C29.8361 62.5795 30.1046 62.723 30.3603 62.9048C30.6188 63.0838 30.8319 63.3139 30.9995 63.5952C31.1671 63.8764 31.2509 64.2216 31.2509 64.6307C31.2509 65.1023 31.1273 65.5284 30.8801 65.9091C30.6358 66.2898 30.2779 66.5923 29.8063 66.8168C29.3375 67.0412 28.7679 67.1534 28.0975 67.1534C27.4725 67.1534 26.9313 67.0526 26.4739 66.8509C26.0194 66.6491 25.6614 66.3679 25.4 66.0071C25.1415 65.6463 24.9952 65.2273 24.9611 64.75H26.052C26.0804 65.0795 26.1912 65.3523 26.3844 65.5682C26.5804 65.7812 26.8276 65.9403 27.1259 66.0455C27.427 66.1477 27.7509 66.1989 28.0975 66.1989C28.5009 66.1989 28.8631 66.1335 29.1841 66.0028C29.5051 65.8693 29.7594 65.6847 29.9469 65.4489C30.1344 65.2102 30.2282 64.9318 30.2282 64.6136C30.2282 64.3239 30.1472 64.0881 29.9853 63.9062C29.8233 63.7244 29.6103 63.5767 29.3461 63.4631C29.0819 63.3494 28.7963 63.25 28.4895 63.1648L27.4157 62.858C26.7338 62.6619 26.1941 62.3821 25.7963 62.0185C25.3986 61.6548 25.1998 61.179 25.1998 60.5909C25.1998 60.1023 25.3319 59.6761 25.5961 59.3125C25.8631 58.946 26.2211 58.6619 26.6699 58.4602C27.1216 58.2557 27.6259 58.1534 28.1827 58.1534C28.7452 58.1534 29.2452 58.2543 29.6827 58.456C30.1202 58.6548 30.4668 58.9276 30.7225 59.2741C30.981 59.6207 31.1174 60.0142 31.1316 60.4545H30.1088ZM35.5112 67.1364C34.9203 67.1364 34.4018 66.9957 33.9558 66.7145C33.5126 66.4332 33.166 66.0398 32.916 65.5341C32.6689 65.0284 32.5453 64.4375 32.5453 63.7614C32.5453 63.0795 32.6689 62.4844 32.916 61.9759C33.166 61.4673 33.5126 61.0724 33.9558 60.7912C34.4018 60.5099 34.9203 60.3693 35.5112 60.3693C36.1021 60.3693 36.6191 60.5099 37.0623 60.7912C37.5083 61.0724 37.8549 61.4673 38.1021 61.9759C38.3521 62.4844 38.4771 63.0795 38.4771 63.7614C38.4771 64.4375 38.3521 65.0284 38.1021 65.5341C37.8549 66.0398 37.5083 66.4332 37.0623 66.7145C36.6191 66.9957 36.1021 67.1364 35.5112 67.1364ZM35.5112 66.233C35.96 66.233 36.3294 66.1179 36.6191 65.8878C36.9089 65.6577 37.1234 65.3551 37.2626 64.9801C37.4018 64.6051 37.4714 64.1989 37.4714 63.7614C37.4714 63.3239 37.4018 62.9162 37.2626 62.5384C37.1234 62.1605 36.9089 61.8551 36.6191 61.6222C36.3294 61.3892 35.96 61.2727 35.5112 61.2727C35.0623 61.2727 34.693 61.3892 34.4032 61.6222C34.1135 61.8551 33.899 62.1605 33.7598 62.5384C33.6206 62.9162 33.551 63.3239 33.551 63.7614C33.551 64.1989 33.6206 64.6051 33.7598 64.9801C33.899 65.3551 34.1135 65.6577 34.4032 65.8878C34.693 66.1179 35.0623 66.233 35.5112 66.233ZM44.1373 64.3239V60.4545H45.1429V67H44.1373V65.892H44.0691C43.9157 66.2244 43.677 66.5071 43.3532 66.7401C43.0293 66.9702 42.6202 67.0852 42.1259 67.0852C41.7168 67.0852 41.3532 66.9957 41.035 66.8168C40.7168 66.6349 40.4668 66.3622 40.285 65.9986C40.1032 65.6321 40.0123 65.1705 40.0123 64.6136V60.4545H41.0179V64.5455C41.0179 65.0227 41.1515 65.4034 41.4185 65.6875C41.6884 65.9716 42.0321 66.1136 42.4498 66.1136C42.6998 66.1136 42.954 66.0497 43.2125 65.9219C43.4739 65.794 43.6926 65.598 43.8688 65.3338C44.0478 65.0696 44.1373 64.733 44.1373 64.3239ZM46.9849 67V60.4545H47.9565V61.4432H48.0247C48.144 61.1193 48.3599 60.8565 48.6724 60.6548C48.9849 60.4531 49.3372 60.3523 49.7292 60.3523C49.8031 60.3523 49.8954 60.3537 50.0062 60.3565C50.117 60.3594 50.2008 60.3636 50.2576 60.3693V61.392C50.2235 61.3835 50.1454 61.3707 50.0233 61.3537C49.9039 61.3338 49.7775 61.3239 49.644 61.3239C49.3258 61.3239 49.0417 61.3906 48.7917 61.5241C48.5446 61.6548 48.3485 61.8366 48.2037 62.0696C48.0616 62.2997 47.9906 62.5625 47.9906 62.858V67H46.9849ZM53.9096 67.1364C53.296 67.1364 52.7676 66.9915 52.3244 66.7017C51.8812 66.4119 51.5403 66.0128 51.3017 65.5043C51.063 64.9957 50.9437 64.4148 50.9437 63.7614C50.9437 63.0966 51.0659 62.5099 51.3102 62.0014C51.5574 61.4901 51.9011 61.0909 52.3414 60.804C52.7846 60.5142 53.3017 60.3693 53.8926 60.3693C54.3528 60.3693 54.7676 60.4545 55.1369 60.625C55.5062 60.7955 55.8088 61.0341 56.0446 61.3409C56.2804 61.6477 56.4267 62.0057 56.4835 62.4148H55.4778C55.4011 62.1165 55.2306 61.8523 54.9664 61.6222C54.7051 61.3892 54.3528 61.2727 53.9096 61.2727C53.5176 61.2727 53.1738 61.375 52.8784 61.5795C52.5858 61.7812 52.3571 62.0668 52.1923 62.4361C52.0304 62.8026 51.9494 63.233 51.9494 63.7273C51.9494 64.233 52.0289 64.6733 52.188 65.0483C52.35 65.4233 52.5772 65.7145 52.8699 65.9219C53.1653 66.1293 53.5119 66.233 53.9096 66.233C54.171 66.233 54.4082 66.1875 54.6213 66.0966C54.8343 66.0057 55.0147 65.875 55.1625 65.7045C55.3102 65.5341 55.4153 65.3295 55.4778 65.0909H56.4835C56.4267 65.4773 56.286 65.8253 56.0616 66.1349C55.84 66.4418 55.546 66.6861 55.1795 66.8679C54.8159 67.0469 54.3926 67.1364 53.9096 67.1364ZM60.698 67.1364C60.0673 67.1364 59.5233 66.9972 59.0659 66.7188C58.6113 66.4375 58.2605 66.0455 58.0133 65.5426C57.769 65.0369 57.6468 64.4489 57.6468 63.7784C57.6468 63.108 57.769 62.517 58.0133 62.0057C58.2605 61.4915 58.6042 61.0909 59.0446 60.804C59.4877 60.5142 60.0048 60.3693 60.5957 60.3693C60.9366 60.3693 61.2733 60.4261 61.6056 60.5398C61.938 60.6534 62.2406 60.8381 62.5133 61.0938C62.786 61.3466 63.0034 61.6818 63.1653 62.0994C63.3272 62.517 63.4082 63.0312 63.4082 63.642V64.0682H58.3627V63.1989H62.3855C62.3855 62.8295 62.3116 62.5 62.1639 62.2102C62.019 61.9205 61.8116 61.6918 61.5417 61.5241C61.2747 61.3565 60.9593 61.2727 60.5957 61.2727C60.1951 61.2727 59.8485 61.3722 59.5559 61.571C59.2662 61.767 59.0431 62.0227 58.8869 62.3381C58.7306 62.6534 58.6525 62.9915 58.6525 63.3523V63.9318C58.6525 64.4261 58.7377 64.8452 58.9082 65.1889C59.0815 65.5298 59.3216 65.7898 59.6284 65.9688C59.9352 66.1449 60.2917 66.233 60.698 66.233C60.9622 66.233 61.2008 66.196 61.4139 66.1222C61.6298 66.0455 61.8159 65.9318 61.9721 65.7812C62.1284 65.6278 62.2491 65.4375 62.3343 65.2102L63.3059 65.483C63.2037 65.8125 63.0318 66.1023 62.7903 66.3523C62.5488 66.5994 62.2505 66.7926 61.8954 66.9318C61.5403 67.0682 61.1412 67.1364 60.698 67.1364ZM75.4721 61H74.4153C74.3528 60.696 74.2434 60.429 74.0872 60.1989C73.9338 59.9688 73.7463 59.7756 73.5247 59.6193C73.3059 59.4602 73.063 59.3409 72.796 59.2614C72.5289 59.1818 72.2505 59.142 71.9608 59.142C71.4324 59.142 70.9537 59.2756 70.5247 59.5426C70.0985 59.8097 69.7591 60.2031 69.5062 60.723C69.2562 61.2429 69.1312 61.8807 69.1312 62.6364C69.1312 63.392 69.2562 64.0298 69.5062 64.5497C69.7591 65.0696 70.0985 65.4631 70.5247 65.7301C70.9537 65.9972 71.4324 66.1307 71.9608 66.1307C72.2505 66.1307 72.5289 66.0909 72.796 66.0114C73.063 65.9318 73.3059 65.8139 73.5247 65.6577C73.7463 65.4986 73.9338 65.304 74.0872 65.0739C74.2434 64.8409 74.3528 64.5739 74.4153 64.2727H75.4721C75.3926 64.7187 75.2477 65.1179 75.0375 65.4702C74.8272 65.8224 74.5659 66.1222 74.2534 66.3693C73.9409 66.6136 73.59 66.7997 73.2008 66.9276C72.8145 67.0554 72.4011 67.1193 71.9608 67.1193C71.2164 67.1193 70.5545 66.9375 69.975 66.5739C69.3954 66.2102 68.9395 65.6932 68.6071 65.0227C68.2747 64.3523 68.1085 63.5568 68.1085 62.6364C68.1085 61.7159 68.2747 60.9205 68.6071 60.25C68.9395 59.5795 69.3954 59.0625 69.975 58.6989C70.5545 58.3352 71.2164 58.1534 71.9608 58.1534C72.4011 58.1534 72.8145 58.2173 73.2008 58.3452C73.59 58.473 73.9409 58.6605 74.2534 58.9077C74.5659 59.152 74.8272 59.4503 75.0375 59.8026C75.2477 60.152 75.3926 60.5511 75.4721 61ZM79.7026 67.1364C79.1117 67.1364 78.5932 66.9957 78.1472 66.7145C77.704 66.4332 77.3574 66.0398 77.1074 65.5341C76.8603 65.0284 76.7367 64.4375 76.7367 63.7614C76.7367 63.0795 76.8603 62.4844 77.1074 61.9759C77.3574 61.4673 77.704 61.0724 78.1472 60.7912C78.5932 60.5099 79.1117 60.3693 79.7026 60.3693C80.2935 60.3693 80.8105 60.5099 81.2537 60.7912C81.6998 61.0724 82.0463 61.4673 82.2935 61.9759C82.5435 62.4844 82.6685 63.0795 82.6685 63.7614C82.6685 64.4375 82.5435 65.0284 82.2935 65.5341C82.0463 66.0398 81.6998 66.4332 81.2537 66.7145C80.8105 66.9957 80.2935 67.1364 79.7026 67.1364ZM79.7026 66.233C80.1515 66.233 80.5208 66.1179 80.8105 65.8878C81.1003 65.6577 81.3148 65.3551 81.454 64.9801C81.5932 64.6051 81.6628 64.1989 81.6628 63.7614C81.6628 63.3239 81.5932 62.9162 81.454 62.5384C81.3148 62.1605 81.1003 61.8551 80.8105 61.6222C80.5208 61.3892 80.1515 61.2727 79.7026 61.2727C79.2537 61.2727 78.8844 61.3892 78.5946 61.6222C78.3049 61.8551 78.0904 62.1605 77.9512 62.5384C77.812 62.9162 77.7424 63.3239 77.7424 63.7614C77.7424 64.1989 77.812 64.6051 77.9512 64.9801C78.0904 65.3551 78.3049 65.6577 78.5946 65.8878C78.8844 66.1179 79.2537 66.233 79.7026 66.233ZM86.6752 67.1364C86.1298 67.1364 85.6483 66.9986 85.2306 66.723C84.813 66.4446 84.4863 66.0526 84.2505 65.5469C84.0147 65.0384 83.8968 64.4375 83.8968 63.7443C83.8968 63.0568 84.0147 62.4602 84.2505 61.9545C84.4863 61.4489 84.8145 61.0582 85.2349 60.7827C85.6554 60.5071 86.1412 60.3693 86.6923 60.3693C87.1184 60.3693 87.4551 60.4403 87.7022 60.5824C87.9522 60.7216 88.1426 60.8807 88.2733 61.0597C88.4068 61.2358 88.5105 61.3807 88.5843 61.4943H88.6696V58.2727H89.6752V67H88.7037V65.9943H88.5843C88.5105 66.1136 88.4054 66.2642 88.269 66.446C88.1326 66.625 87.938 66.7855 87.6852 66.9276C87.4324 67.0668 87.0957 67.1364 86.6752 67.1364ZM86.8116 66.233C87.215 66.233 87.5559 66.1278 87.8343 65.9176C88.1127 65.7045 88.3244 65.4105 88.4693 65.0355C88.6142 64.6577 88.6866 64.2216 88.6866 63.7273C88.6866 63.2386 88.6156 62.8111 88.4735 62.4446C88.3315 62.0753 88.1213 61.7884 87.8429 61.5838C87.5645 61.3764 87.2207 61.2727 86.8116 61.2727C86.3855 61.2727 86.0304 61.3821 85.7463 61.6009C85.465 61.8168 85.2534 62.1108 85.1113 62.483C84.9721 62.8523 84.9025 63.267 84.9025 63.7273C84.9025 64.1932 84.9735 64.6165 85.1156 64.9972C85.2605 65.375 85.4735 65.6761 85.7548 65.9006C86.0389 66.1222 86.3912 66.233 86.8116 66.233ZM94.4011 67.1364C93.7704 67.1364 93.2264 66.9972 92.769 66.7188C92.3145 66.4375 91.9636 66.0455 91.7164 65.5426C91.4721 65.0369 91.35 64.4489 91.35 63.7784C91.35 63.108 91.4721 62.517 91.7164 62.0057C91.9636 61.4915 92.3074 61.0909 92.7477 60.804C93.1909 60.5142 93.7079 60.3693 94.2988 60.3693C94.6397 60.3693 94.9764 60.4261 95.3088 60.5398C95.6412 60.6534 95.9437 60.8381 96.2164 61.0938C96.4892 61.3466 96.7065 61.6818 96.8684 62.0994C97.0304 62.517 97.1113 63.0312 97.1113 63.642V64.0682H92.0659V63.1989H96.0886C96.0886 62.8295 96.0147 62.5 95.867 62.2102C95.7221 61.9205 95.5147 61.6918 95.2449 61.5241C94.9778 61.3565 94.6625 61.2727 94.2988 61.2727C93.8983 61.2727 93.5517 61.3722 93.2591 61.571C92.9693 61.767 92.7463 62.0227 92.59 62.3381C92.4338 62.6534 92.3556 62.9915 92.3556 63.3523V63.9318C92.3556 64.4261 92.4409 64.8452 92.6113 65.1889C92.7846 65.5298 93.0247 65.7898 93.3315 65.9688C93.6383 66.1449 93.9949 66.233 94.4011 66.233C94.6653 66.233 94.9039 66.196 95.117 66.1222C95.3329 66.0455 95.519 65.9318 95.6752 65.7812C95.8315 65.6278 95.9522 65.4375 96.0375 65.2102L97.0091 65.483C96.9068 65.8125 96.7349 66.1023 96.4934 66.3523C96.252 66.5994 95.9537 66.7926 95.5985 66.9318C95.2434 67.0682 94.8443 67.1364 94.4011 67.1364Z" fill="black"/>
<path d="M108.1 90.26C107.644 90.26 107.232 90.34 106.864 90.5C106.496 90.652 106.184 90.88 105.928 91.184C105.672 91.48 105.476 91.844 105.34 92.276C105.204 92.7 105.136 93.18 105.136 93.716C105.136 94.42 105.244 95.032 105.46 95.552C105.684 96.072 106.012 96.472 106.444 96.752C106.884 97.032 107.432 97.172 108.088 97.172C108.464 97.172 108.82 97.14 109.156 97.076C109.492 97.012 109.82 96.932 110.14 96.836V97.772C109.82 97.892 109.488 97.98 109.144 98.036C108.808 98.092 108.404 98.12 107.932 98.12C107.06 98.12 106.332 97.94 105.748 97.58C105.164 97.22 104.724 96.708 104.428 96.044C104.14 95.38 103.996 94.6 103.996 93.704C103.996 93.056 104.084 92.464 104.26 91.928C104.444 91.392 104.708 90.928 105.052 90.536C105.404 90.144 105.836 89.844 106.348 89.636C106.86 89.42 107.448 89.312 108.112 89.312C108.552 89.312 108.976 89.356 109.384 89.444C109.792 89.532 110.156 89.656 110.476 89.816L110.044 90.728C109.78 90.608 109.484 90.5 109.156 90.404C108.836 90.308 108.484 90.26 108.1 90.26ZM117.458 94.772C117.458 95.308 117.386 95.784 117.242 96.2C117.106 96.608 116.906 96.956 116.642 97.244C116.386 97.532 116.07 97.752 115.694 97.904C115.326 98.048 114.914 98.12 114.458 98.12C114.034 98.12 113.642 98.048 113.282 97.904C112.922 97.752 112.61 97.532 112.346 97.244C112.082 96.956 111.874 96.608 111.722 96.2C111.578 95.784 111.506 95.308 111.506 94.772C111.506 94.06 111.626 93.46 111.866 92.972C112.106 92.476 112.45 92.1 112.898 91.844C113.346 91.58 113.878 91.448 114.494 91.448C115.078 91.448 115.59 91.58 116.03 91.844C116.478 92.1 116.826 92.476 117.074 92.972C117.33 93.46 117.458 94.06 117.458 94.772ZM112.598 94.772C112.598 95.276 112.662 95.716 112.79 96.092C112.926 96.46 113.134 96.744 113.414 96.944C113.694 97.144 114.05 97.244 114.482 97.244C114.914 97.244 115.27 97.144 115.55 96.944C115.83 96.744 116.034 96.46 116.162 96.092C116.298 95.716 116.366 95.276 116.366 94.772C116.366 94.26 116.298 93.824 116.162 93.464C116.026 93.104 115.818 92.828 115.538 92.636C115.266 92.436 114.91 92.336 114.47 92.336C113.814 92.336 113.338 92.552 113.042 92.984C112.746 93.416 112.598 94.012 112.598 94.772ZM126.187 91.448C126.915 91.448 127.459 91.636 127.819 92.012C128.179 92.38 128.359 92.98 128.359 93.812V98H127.315V93.86C127.315 93.356 127.207 92.976 126.991 92.72C126.783 92.464 126.455 92.336 126.007 92.336C125.383 92.336 124.935 92.516 124.663 92.876C124.399 93.236 124.267 93.76 124.267 94.448V98H123.223V93.86C123.223 93.524 123.175 93.244 123.079 93.02C122.983 92.788 122.839 92.616 122.647 92.504C122.455 92.392 122.207 92.336 121.903 92.336C121.471 92.336 121.131 92.428 120.883 92.612C120.635 92.788 120.455 93.048 120.343 93.392C120.239 93.736 120.187 94.16 120.187 94.664V98H119.131V91.568H119.983L120.139 92.444H120.199C120.335 92.22 120.499 92.036 120.691 91.892C120.891 91.74 121.111 91.628 121.351 91.556C121.591 91.484 121.839 91.448 122.095 91.448C122.591 91.448 123.003 91.536 123.331 91.712C123.667 91.888 123.911 92.16 124.063 92.528H124.123C124.339 92.16 124.631 91.888 124.999 91.712C125.375 91.536 125.771 91.448 126.187 91.448ZM133.406 91.448C134.198 91.448 134.834 91.724 135.314 92.276C135.802 92.828 136.046 93.66 136.046 94.772C136.046 95.5 135.934 96.116 135.71 96.62C135.494 97.116 135.186 97.492 134.786 97.748C134.394 97.996 133.93 98.12 133.394 98.12C133.066 98.12 132.774 98.076 132.518 97.988C132.262 97.9 132.042 97.788 131.858 97.652C131.682 97.508 131.53 97.352 131.402 97.184H131.33C131.346 97.32 131.362 97.492 131.378 97.7C131.394 97.908 131.402 98.088 131.402 98.24V100.88H130.346V91.568H131.21L131.354 92.444H131.402C131.53 92.26 131.682 92.092 131.858 91.94C132.042 91.788 132.258 91.668 132.506 91.58C132.762 91.492 133.062 91.448 133.406 91.448ZM133.214 92.336C132.782 92.336 132.434 92.42 132.17 92.588C131.906 92.748 131.714 92.992 131.594 93.32C131.474 93.648 131.41 94.064 131.402 94.568V94.772C131.402 95.3 131.458 95.748 131.57 96.116C131.682 96.484 131.87 96.764 132.134 96.956C132.406 97.148 132.774 97.244 133.238 97.244C133.63 97.244 133.95 97.136 134.198 96.92C134.454 96.704 134.642 96.412 134.762 96.044C134.89 95.668 134.954 95.24 134.954 94.76C134.954 94.024 134.81 93.436 134.522 92.996C134.242 92.556 133.806 92.336 133.214 92.336ZM138.785 91.568V98H137.729V91.568H138.785ZM138.269 89.156C138.429 89.156 138.569 89.212 138.689 89.324C138.817 89.428 138.881 89.596 138.881 89.828C138.881 90.052 138.817 90.22 138.689 90.332C138.569 90.444 138.429 90.5 138.269 90.5C138.093 90.5 137.945 90.444 137.825 90.332C137.705 90.22 137.645 90.052 137.645 89.828C137.645 89.596 137.705 89.428 137.825 89.324C137.945 89.212 138.093 89.156 138.269 89.156ZM141.879 98H140.823V88.88H141.879V98ZM146.352 91.46C147.136 91.46 147.716 91.632 148.092 91.976C148.468 92.32 148.656 92.868 148.656 93.62V98H147.888L147.684 97.088H147.636C147.452 97.32 147.26 97.516 147.06 97.676C146.868 97.828 146.644 97.94 146.388 98.012C146.14 98.084 145.836 98.12 145.476 98.12C145.092 98.12 144.744 98.052 144.432 97.916C144.128 97.78 143.888 97.572 143.712 97.292C143.536 97.004 143.448 96.644 143.448 96.212C143.448 95.572 143.7 95.08 144.204 94.736C144.708 94.384 145.484 94.192 146.532 94.16L147.624 94.124V93.74C147.624 93.204 147.508 92.832 147.276 92.624C147.044 92.416 146.716 92.312 146.292 92.312C145.956 92.312 145.636 92.364 145.332 92.468C145.028 92.564 144.744 92.676 144.48 92.804L144.156 92.012C144.436 91.86 144.768 91.732 145.152 91.628C145.536 91.516 145.936 91.46 146.352 91.46ZM146.664 94.892C145.864 94.924 145.308 95.052 144.996 95.276C144.692 95.5 144.54 95.816 144.54 96.224C144.54 96.584 144.648 96.848 144.864 97.016C145.088 97.184 145.372 97.268 145.716 97.268C146.26 97.268 146.712 97.12 147.072 96.824C147.432 96.52 147.612 96.056 147.612 95.432V94.856L146.664 94.892ZM152.791 97.256C152.951 97.256 153.115 97.244 153.283 97.22C153.451 97.188 153.587 97.156 153.691 97.124V97.928C153.579 97.984 153.419 98.028 153.211 98.06C153.003 98.1 152.803 98.12 152.611 98.12C152.275 98.12 151.963 98.064 151.675 97.952C151.395 97.832 151.167 97.628 150.991 97.34C150.815 97.052 150.727 96.648 150.727 96.128V92.384H149.815V91.88L150.739 91.46L151.159 90.092H151.783V91.568H153.643V92.384H151.783V96.104C151.783 96.496 151.875 96.788 152.059 96.98C152.251 97.164 152.495 97.256 152.791 97.256ZM156.035 91.568V98H154.979V91.568H156.035ZM155.519 89.156C155.679 89.156 155.819 89.212 155.939 89.324C156.067 89.428 156.131 89.596 156.131 89.828C156.131 90.052 156.067 90.22 155.939 90.332C155.819 90.444 155.679 90.5 155.519 90.5C155.343 90.5 155.195 90.444 155.075 90.332C154.955 90.22 154.895 90.052 154.895 89.828C154.895 89.596 154.955 89.428 155.075 89.324C155.195 89.212 155.343 89.156 155.519 89.156ZM163.665 94.772C163.665 95.308 163.593 95.784 163.449 96.2C163.313 96.608 163.113 96.956 162.849 97.244C162.593 97.532 162.277 97.752 161.901 97.904C161.533 98.048 161.121 98.12 160.665 98.12C160.241 98.12 159.849 98.048 159.489 97.904C159.129 97.752 158.817 97.532 158.553 97.244C158.289 96.956 158.081 96.608 157.929 96.2C157.785 95.784 157.713 95.308 157.713 94.772C157.713 94.06 157.833 93.46 158.073 92.972C158.313 92.476 158.657 92.1 159.105 91.844C159.553 91.58 160.085 91.448 160.701 91.448C161.285 91.448 161.797 91.58 162.237 91.844C162.685 92.1 163.033 92.476 163.281 92.972C163.537 93.46 163.665 94.06 163.665 94.772ZM158.805 94.772C158.805 95.276 158.869 95.716 158.997 96.092C159.133 96.46 159.341 96.744 159.621 96.944C159.901 97.144 160.257 97.244 160.689 97.244C161.121 97.244 161.477 97.144 161.757 96.944C162.037 96.744 162.241 96.46 162.369 96.092C162.505 95.716 162.573 95.276 162.573 94.772C162.573 94.26 162.505 93.824 162.369 93.464C162.233 93.104 162.025 92.828 161.745 92.636C161.473 92.436 161.117 92.336 160.677 92.336C160.021 92.336 159.545 92.552 159.249 92.984C158.953 93.416 158.805 94.012 158.805 94.772ZM168.434 91.448C169.202 91.448 169.782 91.636 170.174 92.012C170.566 92.38 170.762 92.98 170.762 93.812V98H169.718V93.884C169.718 93.364 169.602 92.976 169.37 92.72C169.138 92.464 168.774 92.336 168.278 92.336C167.566 92.336 167.074 92.536 166.802 92.936C166.53 93.336 166.394 93.912 166.394 94.664V98H165.338V91.568H166.19L166.346 92.444H166.406C166.55 92.22 166.726 92.036 166.934 91.892C167.15 91.74 167.386 91.628 167.642 91.556C167.898 91.484 168.162 91.448 168.434 91.448Z" fill="black"/>
<path d="M276.024 98H271.236V89.432H276.024V90.38H272.316V93.056H275.808V93.992H272.316V97.052H276.024V98ZM279.284 94.712L277.064 91.568H278.264L279.92 93.992L281.564 91.568H282.752L280.532 94.712L282.872 98H281.672L279.92 95.432L278.144 98H276.956L279.284 94.712ZM286.361 91.448C286.913 91.448 287.385 91.568 287.777 91.808C288.177 92.048 288.481 92.388 288.689 92.828C288.905 93.26 289.013 93.768 289.013 94.352V94.988H284.609C284.625 95.716 284.809 96.272 285.161 96.656C285.521 97.032 286.021 97.22 286.661 97.22C287.069 97.22 287.429 97.184 287.741 97.112C288.061 97.032 288.389 96.92 288.725 96.776V97.7C288.397 97.844 288.073 97.948 287.753 98.012C287.433 98.084 287.053 98.12 286.613 98.12C286.005 98.12 285.465 97.996 284.993 97.748C284.529 97.5 284.165 97.132 283.901 96.644C283.645 96.148 283.517 95.544 283.517 94.832C283.517 94.128 283.633 93.524 283.865 93.02C284.105 92.516 284.437 92.128 284.861 91.856C285.293 91.584 285.793 91.448 286.361 91.448ZM286.349 92.312C285.845 92.312 285.445 92.476 285.149 92.804C284.861 93.124 284.689 93.572 284.633 94.148H287.909C287.909 93.78 287.853 93.46 287.741 93.188C287.629 92.916 287.457 92.704 287.225 92.552C287.001 92.392 286.709 92.312 286.349 92.312ZM293.231 98.12C292.663 98.12 292.155 98.004 291.707 97.772C291.267 97.54 290.919 97.18 290.663 96.692C290.415 96.204 290.291 95.58 290.291 94.82C290.291 94.028 290.423 93.384 290.687 92.888C290.951 92.392 291.307 92.028 291.755 91.796C292.211 91.564 292.727 91.448 293.303 91.448C293.631 91.448 293.947 91.484 294.251 91.556C294.555 91.62 294.803 91.7 294.995 91.796L294.671 92.672C294.479 92.6 294.255 92.532 293.999 92.468C293.743 92.404 293.503 92.372 293.279 92.372C292.847 92.372 292.491 92.464 292.211 92.648C291.931 92.832 291.723 93.104 291.587 93.464C291.451 93.824 291.383 94.272 291.383 94.808C291.383 95.32 291.451 95.756 291.587 96.116C291.723 96.476 291.927 96.748 292.199 96.932C292.471 97.116 292.811 97.208 293.219 97.208C293.571 97.208 293.879 97.172 294.143 97.1C294.415 97.028 294.663 96.94 294.887 96.836V97.772C294.671 97.884 294.431 97.968 294.167 98.024C293.911 98.088 293.599 98.12 293.231 98.12ZM301.792 91.568V98H300.928L300.772 97.148H300.724C300.588 97.372 300.412 97.556 300.196 97.7C299.98 97.844 299.744 97.948 299.488 98.012C299.232 98.084 298.964 98.12 298.684 98.12C298.172 98.12 297.74 98.04 297.388 97.88C297.044 97.712 296.784 97.456 296.608 97.112C296.432 96.768 296.344 96.324 296.344 95.78V91.568H297.412V95.708C297.412 96.22 297.528 96.604 297.76 96.86C297.992 97.116 298.352 97.244 298.84 97.244C299.32 97.244 299.696 97.156 299.968 96.98C300.248 96.796 300.444 96.532 300.556 96.188C300.676 95.836 300.736 95.412 300.736 94.916V91.568H301.792ZM305.982 97.256C306.142 97.256 306.306 97.244 306.474 97.22C306.642 97.188 306.778 97.156 306.882 97.124V97.928C306.77 97.984 306.61 98.028 306.402 98.06C306.194 98.1 305.994 98.12 305.802 98.12C305.466 98.12 305.154 98.064 304.866 97.952C304.586 97.832 304.358 97.628 304.182 97.34C304.006 97.052 303.918 96.648 303.918 96.128V92.384H303.006V91.88L303.93 91.46L304.35 90.092H304.974V91.568H306.834V92.384H304.974V96.104C304.974 96.496 305.066 96.788 305.25 96.98C305.442 97.164 305.686 97.256 305.982 97.256ZM309.226 91.568V98H308.17V91.568H309.226ZM308.71 89.156C308.87 89.156 309.01 89.212 309.13 89.324C309.258 89.428 309.322 89.596 309.322 89.828C309.322 90.052 309.258 90.22 309.13 90.332C309.01 90.444 308.87 90.5 308.71 90.5C308.534 90.5 308.386 90.444 308.266 90.332C308.146 90.22 308.086 90.052 308.086 89.828C308.086 89.596 308.146 89.428 308.266 89.324C308.386 89.212 308.534 89.156 308.71 89.156ZM316.856 94.772C316.856 95.308 316.784 95.784 316.64 96.2C316.504 96.608 316.304 96.956 316.04 97.244C315.784 97.532 315.468 97.752 315.092 97.904C314.724 98.048 314.312 98.12 313.856 98.12C313.432 98.12 313.04 98.048 312.68 97.904C312.32 97.752 312.008 97.532 311.744 97.244C311.48 96.956 311.272 96.608 311.12 96.2C310.976 95.784 310.904 95.308 310.904 94.772C310.904 94.06 311.024 93.46 311.264 92.972C311.504 92.476 311.848 92.1 312.296 91.844C312.744 91.58 313.276 91.448 313.892 91.448C314.476 91.448 314.988 91.58 315.428 91.844C315.876 92.1 316.224 92.476 316.472 92.972C316.728 93.46 316.856 94.06 316.856 94.772ZM311.996 94.772C311.996 95.276 312.06 95.716 312.188 96.092C312.324 96.46 312.532 96.744 312.812 96.944C313.092 97.144 313.448 97.244 313.88 97.244C314.312 97.244 314.668 97.144 314.948 96.944C315.228 96.744 315.432 96.46 315.56 96.092C315.696 95.716 315.764 95.276 315.764 94.772C315.764 94.26 315.696 93.824 315.56 93.464C315.424 93.104 315.216 92.828 314.936 92.636C314.664 92.436 314.308 92.336 313.868 92.336C313.212 92.336 312.736 92.552 312.44 92.984C312.144 93.416 311.996 94.012 311.996 94.772ZM321.626 91.448C322.394 91.448 322.974 91.636 323.366 92.012C323.758 92.38 323.954 92.98 323.954 93.812V98H322.91V93.884C322.91 93.364 322.794 92.976 322.562 92.72C322.33 92.464 321.966 92.336 321.47 92.336C320.758 92.336 320.266 92.536 319.994 92.936C319.722 93.336 319.586 93.912 319.586 94.664V98H318.53V91.568H319.382L319.538 92.444H319.598C319.742 92.22 319.918 92.036 320.126 91.892C320.342 91.74 320.578 91.628 320.834 91.556C321.09 91.484 321.354 91.448 321.626 91.448Z" fill="black"/>
<rect x="172" y="30" width="86" height="50" rx="4" fill="#D62728"/>
<path d="M198.875 52H196.182V43.2727H198.994C199.841 43.2727 200.565 43.4474 201.168 43.7969C201.77 44.1435 202.232 44.642 202.553 45.2926C202.874 45.9403 203.034 46.7159 203.034 47.6193C203.034 48.5284 202.872 49.3111 202.548 49.9673C202.224 50.6207 201.753 51.1236 201.134 51.4759C200.514 51.8253 199.761 52 198.875 52ZM197.239 51.0625H198.807C199.528 51.0625 200.126 50.9233 200.601 50.6449C201.075 50.3665 201.429 49.9702 201.662 49.456C201.895 48.9418 202.011 48.3295 202.011 47.6193C202.011 46.9148 201.896 46.3082 201.666 45.7997C201.436 45.2884 201.092 44.8963 200.635 44.6236C200.178 44.348 199.608 44.2102 198.926 44.2102H197.239V51.0625ZM206.597 52.1534C206.182 52.1534 205.805 52.0753 205.467 51.919C205.129 51.7599 204.861 51.5312 204.662 51.233C204.463 50.9318 204.364 50.5682 204.364 50.142C204.364 49.767 204.438 49.4631 204.585 49.2301C204.733 48.9943 204.93 48.8097 205.178 48.6761C205.425 48.5426 205.697 48.4432 205.996 48.3778C206.297 48.3097 206.599 48.2557 206.903 48.2159C207.301 48.1648 207.624 48.1264 207.871 48.1009C208.121 48.0724 208.303 48.0256 208.416 47.9602C208.533 47.8949 208.591 47.7812 208.591 47.6193V47.5852C208.591 47.1648 208.476 46.8381 208.246 46.6051C208.018 46.3722 207.673 46.2557 207.21 46.2557C206.73 46.2557 206.354 46.3608 206.081 46.571C205.808 46.7812 205.616 47.0057 205.506 47.2443L204.551 46.9034C204.722 46.5057 204.949 46.196 205.233 45.9744C205.52 45.75 205.832 45.5937 206.17 45.5057C206.511 45.4148 206.847 45.3693 207.176 45.3693C207.386 45.3693 207.628 45.3949 207.901 45.446C208.176 45.4943 208.442 45.5952 208.697 45.7486C208.956 45.902 209.17 46.1335 209.341 46.4432C209.511 46.7528 209.597 47.1676 209.597 47.6875V52H208.591V51.1136H208.54C208.472 51.2557 208.358 51.4077 208.199 51.5696C208.04 51.7315 207.828 51.8693 207.564 51.983C207.3 52.0966 206.977 52.1534 206.597 52.1534ZM206.75 51.25C207.148 51.25 207.483 51.1719 207.756 51.0156C208.031 50.8594 208.239 50.6577 208.378 50.4105C208.52 50.1634 208.591 49.9034 208.591 49.6307V48.7102C208.548 48.7614 208.455 48.8082 208.31 48.8509C208.168 48.8906 208.003 48.9261 207.815 48.9574C207.631 48.9858 207.45 49.0114 207.274 49.0341C207.101 49.054 206.96 49.071 206.852 49.0852C206.591 49.1193 206.347 49.1747 206.119 49.2514C205.895 49.3253 205.713 49.4375 205.574 49.5881C205.438 49.7358 205.369 49.9375 205.369 50.1932C205.369 50.5426 205.499 50.8068 205.757 50.9858C206.018 51.1619 206.349 51.25 206.75 51.25ZM214.279 45.4545V46.3068H210.887V45.4545H214.279ZM211.875 43.8864H212.881V50.125C212.881 50.4091 212.922 50.6222 213.005 50.7642C213.09 50.9034 213.198 50.9972 213.328 51.0455C213.462 51.0909 213.603 51.1136 213.75 51.1136C213.861 51.1136 213.952 51.108 214.023 51.0966C214.094 51.0824 214.151 51.071 214.194 51.0625L214.398 51.9659C214.33 51.9915 214.235 52.017 214.113 52.0426C213.99 52.071 213.836 52.0852 213.648 52.0852C213.364 52.0852 213.086 52.0241 212.813 51.902C212.543 51.7798 212.319 51.5938 212.14 51.3438C211.963 51.0938 211.875 50.7784 211.875 50.3977V43.8864ZM217.718 52.1534C217.303 52.1534 216.926 52.0753 216.588 51.919C216.25 51.7599 215.982 51.5312 215.783 51.233C215.584 50.9318 215.485 50.5682 215.485 50.142C215.485 49.767 215.559 49.4631 215.706 49.2301C215.854 48.9943 216.051 48.8097 216.299 48.6761C216.546 48.5426 216.819 48.4432 217.117 48.3778C217.418 48.3097 217.721 48.2557 218.025 48.2159C218.422 48.1648 218.745 48.1264 218.992 48.1009C219.242 48.0724 219.424 48.0256 219.537 47.9602C219.654 47.8949 219.712 47.7812 219.712 47.6193V47.5852C219.712 47.1648 219.597 46.8381 219.367 46.6051C219.14 46.3722 218.794 46.2557 218.331 46.2557C217.851 46.2557 217.475 46.3608 217.202 46.571C216.929 46.7812 216.738 47.0057 216.627 47.2443L215.672 46.9034C215.843 46.5057 216.07 46.196 216.354 45.9744C216.641 45.75 216.953 45.5937 217.292 45.5057C217.632 45.4148 217.968 45.3693 218.297 45.3693C218.507 45.3693 218.749 45.3949 219.022 45.446C219.297 45.4943 219.563 45.5952 219.819 45.7486C220.077 45.902 220.292 46.1335 220.462 46.4432C220.632 46.7528 220.718 47.1676 220.718 47.6875V52H219.712V51.1136H219.661C219.593 51.2557 219.479 51.4077 219.32 51.5696C219.161 51.7315 218.949 51.8693 218.685 51.983C218.421 52.0966 218.098 52.1534 217.718 52.1534ZM217.871 51.25C218.269 51.25 218.604 51.1719 218.877 51.0156C219.152 50.8594 219.36 50.6577 219.499 50.4105C219.641 50.1634 219.712 49.9034 219.712 49.6307V48.7102C219.669 48.7614 219.576 48.8082 219.431 48.8509C219.289 48.8906 219.124 48.9261 218.936 48.9574C218.752 48.9858 218.571 49.0114 218.395 49.0341C218.222 49.054 218.081 49.071 217.973 49.0852C217.712 49.1193 217.468 49.1747 217.24 49.2514C217.016 49.3253 216.834 49.4375 216.695 49.5881C216.559 49.7358 216.49 49.9375 216.49 50.1932C216.49 50.5426 216.62 50.8068 216.878 50.9858C217.14 51.1619 217.471 51.25 217.871 51.25ZM225.928 52V45.4545H226.934V52H225.928ZM226.44 44.3636C226.244 44.3636 226.075 44.2969 225.933 44.1634C225.793 44.0298 225.724 43.8693 225.724 43.6818C225.724 43.4943 225.793 43.3338 225.933 43.2003C226.075 43.0668 226.244 43 226.44 43C226.636 43 226.803 43.0668 226.942 43.2003C227.085 43.3338 227.156 43.4943 227.156 43.6818C227.156 43.8693 227.085 44.0298 226.942 44.1634C226.803 44.2969 226.636 44.3636 226.44 44.3636ZM229.782 48.0625V52H228.776V45.4545H229.748V46.4773H229.833C229.986 46.1449 230.219 45.8778 230.532 45.6761C230.844 45.4716 231.248 45.3693 231.742 45.3693C232.185 45.3693 232.573 45.4602 232.905 45.642C233.238 45.821 233.496 46.0938 233.681 46.4602C233.865 46.8239 233.958 47.2841 233.958 47.8409V52H232.952V47.9091C232.952 47.3949 232.819 46.9943 232.551 46.7074C232.284 46.4176 231.918 46.2727 231.452 46.2727C231.131 46.2727 230.844 46.3423 230.591 46.4815C230.341 46.6207 230.144 46.8239 229.999 47.0909C229.854 47.358 229.782 47.6818 229.782 48.0625ZM189.028 67V58.2727H192.079C192.687 58.2727 193.188 58.3778 193.583 58.5881C193.978 58.7955 194.272 59.0753 194.465 59.4276C194.658 59.777 194.755 60.1648 194.755 60.5909C194.755 60.9659 194.688 61.2756 194.555 61.5199C194.424 61.7642 194.251 61.9574 194.035 62.0994C193.822 62.2415 193.59 62.3466 193.34 62.4148V62.5C193.607 62.517 193.876 62.6108 194.145 62.7812C194.415 62.9517 194.641 63.196 194.823 63.5142C195.005 63.8324 195.096 64.2216 195.096 64.6818C195.096 65.1193 194.996 65.5128 194.797 65.8622C194.599 66.2116 194.285 66.4886 193.856 66.6932C193.427 66.8977 192.868 67 192.181 67H189.028ZM190.084 66.0625H192.181C192.871 66.0625 193.361 65.929 193.651 65.6619C193.944 65.392 194.09 65.0653 194.09 64.6818C194.09 64.3864 194.015 64.1136 193.864 63.8636C193.714 63.6108 193.499 63.4091 193.221 63.2585C192.942 63.1051 192.613 63.0284 192.232 63.0284H190.084V66.0625ZM190.084 62.108H192.045C192.363 62.108 192.65 62.0455 192.905 61.9205C193.164 61.7955 193.368 61.6193 193.519 61.392C193.672 61.1648 193.749 60.8977 193.749 60.5909C193.749 60.2074 193.616 59.8821 193.349 59.6151C193.081 59.3452 192.658 59.2102 192.079 59.2102H190.084V62.108ZM197.344 69.4545C197.173 69.4545 197.021 69.4403 196.888 69.4119C196.754 69.3864 196.662 69.3608 196.611 69.3352L196.866 68.4489C197.111 68.5114 197.327 68.5341 197.514 68.517C197.702 68.5 197.868 68.4162 198.013 68.2656C198.16 68.1179 198.295 67.8778 198.417 67.5455L198.605 67.0341L196.184 60.4545H197.275L199.082 65.6705H199.15L200.957 60.4545H202.048L199.27 67.9545C199.145 68.2926 198.99 68.5724 198.805 68.794C198.621 69.0185 198.406 69.1847 198.162 69.2926C197.92 69.4006 197.648 69.4545 197.344 69.4545ZM206.222 60.4545V61.3068H202.83V60.4545H206.222ZM203.819 58.8864H204.824V65.125C204.824 65.4091 204.866 65.6222 204.948 65.7642C205.033 65.9034 205.141 65.9972 205.272 66.0455C205.405 66.0909 205.546 66.1136 205.694 66.1136C205.805 66.1136 205.895 66.108 205.966 66.0966C206.037 66.0824 206.094 66.071 206.137 66.0625L206.341 66.9659C206.273 66.9915 206.178 67.017 206.056 67.0426C205.934 67.071 205.779 67.0852 205.591 67.0852C205.307 67.0852 205.029 67.0241 204.756 66.902C204.486 66.7798 204.262 66.5938 204.083 66.3438C203.907 66.0938 203.819 65.7784 203.819 65.3977V58.8864ZM210.409 67.1364C209.778 67.1364 209.234 66.9972 208.777 66.7188C208.322 66.4375 207.971 66.0455 207.724 65.5426C207.48 65.0369 207.358 64.4489 207.358 63.7784C207.358 63.108 207.48 62.517 207.724 62.0057C207.971 61.4915 208.315 61.0909 208.756 60.804C209.199 60.5142 209.716 60.3693 210.307 60.3693C210.648 60.3693 210.984 60.4261 211.317 60.5398C211.649 60.6534 211.952 60.8381 212.224 61.0938C212.497 61.3466 212.714 61.6818 212.876 62.0994C213.038 62.517 213.119 63.0312 213.119 63.642V64.0682H208.074V63.1989H212.096C212.096 62.8295 212.023 62.5 211.875 62.2102C211.73 61.9205 211.523 61.6918 211.253 61.5241C210.986 61.3565 210.67 61.2727 210.307 61.2727C209.906 61.2727 209.559 61.3722 209.267 61.571C208.977 61.767 208.754 62.0227 208.598 62.3381C208.442 62.6534 208.363 62.9915 208.363 63.3523V63.9318C208.363 64.4261 208.449 64.8452 208.619 65.1889C208.792 65.5298 209.032 65.7898 209.339 65.9688C209.646 66.1449 210.003 66.233 210.409 66.233C210.673 66.233 210.912 66.196 211.125 66.1222C211.341 66.0455 211.527 65.9318 211.683 65.7812C211.839 65.6278 211.96 65.4375 212.045 65.2102L213.017 65.483C212.915 65.8125 212.743 66.1023 212.501 66.3523C212.26 66.5994 211.961 66.7926 211.606 66.9318C211.251 67.0682 210.852 67.1364 210.409 67.1364ZM217.308 67.1364C216.694 67.1364 216.166 66.9915 215.723 66.7017C215.28 66.4119 214.939 66.0128 214.7 65.5043C214.461 64.9957 214.342 64.4148 214.342 63.7614C214.342 63.0966 214.464 62.5099 214.709 62.0014C214.956 61.4901 215.3 61.0909 215.74 60.804C216.183 60.5142 216.7 60.3693 217.291 60.3693C217.751 60.3693 218.166 60.4545 218.535 60.625C218.905 60.7955 219.207 61.0341 219.443 61.3409C219.679 61.6477 219.825 62.0057 219.882 62.4148H218.876C218.8 62.1165 218.629 61.8523 218.365 61.6222C218.104 61.3892 217.751 61.2727 217.308 61.2727C216.916 61.2727 216.572 61.375 216.277 61.5795C215.984 61.7812 215.756 62.0668 215.591 62.4361C215.429 62.8026 215.348 63.233 215.348 63.7273C215.348 64.233 215.427 64.6733 215.586 65.0483C215.748 65.4233 215.976 65.7145 216.268 65.9219C216.564 66.1293 216.91 66.233 217.308 66.233C217.569 66.233 217.807 66.1875 218.02 66.0966C218.233 66.0057 218.413 65.875 218.561 65.7045C218.709 65.5341 218.814 65.3295 218.876 65.0909H219.882C219.825 65.4773 219.684 65.8253 219.46 66.1349C219.238 66.4418 218.944 66.6861 218.578 66.8679C218.214 67.0469 217.791 67.1364 217.308 67.1364ZM224.011 67.1364C223.42 67.1364 222.902 66.9957 222.456 66.7145C222.013 66.4332 221.666 66.0398 221.416 65.5341C221.169 65.0284 221.045 64.4375 221.045 63.7614C221.045 63.0795 221.169 62.4844 221.416 61.9759C221.666 61.4673 222.013 61.0724 222.456 60.7912C222.902 60.5099 223.42 60.3693 224.011 60.3693C224.602 60.3693 225.119 60.5099 225.562 60.7912C226.008 61.0724 226.355 61.4673 226.602 61.9759C226.852 62.4844 226.977 63.0795 226.977 63.7614C226.977 64.4375 226.852 65.0284 226.602 65.5341C226.355 66.0398 226.008 66.4332 225.562 66.7145C225.119 66.9957 224.602 67.1364 224.011 67.1364ZM224.011 66.233C224.46 66.233 224.829 66.1179 225.119 65.8878C225.409 65.6577 225.623 65.3551 225.763 64.9801C225.902 64.6051 225.971 64.1989 225.971 63.7614C225.971 63.3239 225.902 62.9162 225.763 62.5384C225.623 62.1605 225.409 61.8551 225.119 61.6222C224.829 61.3892 224.46 61.2727 224.011 61.2727C223.562 61.2727 223.193 61.3892 222.903 61.6222C222.613 61.8551 222.399 62.1605 222.26 62.5384C222.121 62.9162 222.051 63.3239 222.051 63.7614C222.051 64.1989 222.121 64.6051 222.26 64.9801C222.399 65.3551 222.613 65.6577 222.903 65.8878C223.193 66.1179 223.562 66.233 224.011 66.233ZM230.984 67.1364C230.438 67.1364 229.957 66.9986 229.539 66.723C229.122 66.4446 228.795 66.0526 228.559 65.5469C228.323 65.0384 228.205 64.4375 228.205 63.7443C228.205 63.0568 228.323 62.4602 228.559 61.9545C228.795 61.4489 229.123 61.0582 229.544 60.7827C229.964 60.5071 230.45 60.3693 231.001 60.3693C231.427 60.3693 231.764 60.4403 232.011 60.5824C232.261 60.7216 232.451 60.8807 232.582 61.0597C232.715 61.2358 232.819 61.3807 232.893 61.4943H232.978V58.2727H233.984V67H233.012V65.9943H232.893C232.819 66.1136 232.714 66.2642 232.578 66.446C232.441 66.625 232.247 66.7855 231.994 66.9276C231.741 67.0668 231.404 67.1364 230.984 67.1364ZM231.12 66.233C231.524 66.233 231.865 66.1278 232.143 65.9176C232.421 65.7045 232.633 65.4105 232.778 65.0355C232.923 64.6577 232.995 64.2216 232.995 63.7273C232.995 63.2386 232.924 62.8111 232.782 62.4446C232.64 62.0753 232.43 61.7884 232.151 61.5838C231.873 61.3764 231.529 61.2727 231.12 61.2727C230.694 61.2727 230.339 61.3821 230.055 61.6009C229.774 61.8168 229.562 62.1108 229.42 62.483C229.281 62.8523 229.211 63.267 229.211 63.7273C229.211 64.1932 229.282 64.6165 229.424 64.9972C229.569 65.375 229.782 65.6761 230.063 65.9006C230.347 66.1222 230.7 66.233 231.12 66.233ZM238.71 67.1364C238.079 67.1364 237.535 66.9972 237.078 66.7188C236.623 66.4375 236.272 66.0455 236.025 65.5426C235.781 65.0369 235.659 64.4489 235.659 63.7784C235.659 63.108 235.781 62.517 236.025 62.0057C236.272 61.4915 236.616 61.0909 237.056 60.804C237.499 60.5142 238.017 60.3693 238.607 60.3693C238.948 60.3693 239.285 60.4261 239.617 60.5398C239.95 60.6534 240.252 60.8381 240.525 61.0938C240.798 61.3466 241.015 61.6818 241.177 62.0994C241.339 62.517 241.42 63.0312 241.42 63.642V64.0682H236.374V63.1989H240.397C240.397 62.8295 240.323 62.5 240.176 62.2102C240.031 61.9205 239.823 61.6918 239.553 61.5241C239.286 61.3565 238.971 61.2727 238.607 61.2727C238.207 61.2727 237.86 61.3722 237.568 61.571C237.278 61.767 237.055 62.0227 236.899 62.3381C236.742 62.6534 236.664 62.9915 236.664 63.3523V63.9318C236.664 64.4261 236.749 64.8452 236.92 65.1889C237.093 65.5298 237.333 65.7898 237.64 65.9688C237.947 66.1449 238.303 66.233 238.71 66.233C238.974 66.233 239.213 66.196 239.426 66.1222C239.642 66.0455 239.828 65.9318 239.984 65.7812C240.14 65.6278 240.261 65.4375 240.346 65.2102L241.318 65.483C241.215 65.8125 241.044 66.1023 240.802 66.3523C240.561 66.5994 240.262 66.7926 239.907 66.9318C239.552 67.0682 239.153 67.1364 238.71 67.1364Z" fill="white"/>
<rect x="332" y="30" width="120" height="50" rx="4" fill="#D62728"/>
<path d="M374.188 52H371.494V43.2727H374.307C375.153 43.2727 375.878 43.4474 376.48 43.7969C377.082 44.1435 377.544 44.642 377.865 45.2926C378.186 45.9403 378.347 46.7159 378.347 47.6193C378.347 48.5284 378.185 49.3111 377.861 49.9673C377.537 50.6207 377.065 51.1236 376.446 51.4759C375.827 51.8253 375.074 52 374.188 52ZM372.551 51.0625H374.119C374.841 51.0625 375.439 50.9233 375.913 50.6449C376.388 50.3665 376.741 49.9702 376.974 49.456C377.207 48.9418 377.324 48.3295 377.324 47.6193C377.324 46.9148 377.209 46.3082 376.979 45.7997C376.749 45.2884 376.405 44.8963 375.947 44.6236C375.49 44.348 374.92 44.2102 374.239 44.2102H372.551V51.0625ZM381.909 52.1534C381.494 52.1534 381.118 52.0753 380.78 51.919C380.442 51.7599 380.173 51.5312 379.974 51.233C379.776 50.9318 379.676 50.5682 379.676 50.142C379.676 49.767 379.75 49.4631 379.898 49.2301C380.045 48.9943 380.243 48.8097 380.49 48.6761C380.737 48.5426 381.01 48.4432 381.308 48.3778C381.609 48.3097 381.912 48.2557 382.216 48.2159C382.614 48.1648 382.936 48.1264 383.183 48.1009C383.433 48.0724 383.615 48.0256 383.729 47.9602C383.845 47.8949 383.903 47.7812 383.903 47.6193V47.5852C383.903 47.1648 383.788 46.8381 383.558 46.6051C383.331 46.3722 382.986 46.2557 382.523 46.2557C382.043 46.2557 381.666 46.3608 381.393 46.571C381.121 46.7812 380.929 47.0057 380.818 47.2443L379.864 46.9034C380.034 46.5057 380.261 46.196 380.545 45.9744C380.832 45.75 381.145 45.5937 381.483 45.5057C381.824 45.4148 382.159 45.3693 382.489 45.3693C382.699 45.3693 382.94 45.3949 383.213 45.446C383.489 45.4943 383.754 45.5952 384.01 45.7486C384.268 45.902 384.483 46.1335 384.653 46.4432C384.824 46.7528 384.909 47.1676 384.909 47.6875V52H383.903V51.1136H383.852C383.784 51.2557 383.67 51.4077 383.511 51.5696C383.352 51.7315 383.141 51.8693 382.876 51.983C382.612 52.0966 382.29 52.1534 381.909 52.1534ZM382.062 51.25C382.46 51.25 382.795 51.1719 383.068 51.0156C383.344 50.8594 383.551 50.6577 383.69 50.4105C383.832 50.1634 383.903 49.9034 383.903 49.6307V48.7102C383.861 48.7614 383.767 48.8082 383.622 48.8509C383.48 48.8906 383.315 48.9261 383.128 48.9574C382.943 48.9858 382.763 49.0114 382.587 49.0341C382.413 49.054 382.273 49.071 382.165 49.0852C381.903 49.1193 381.659 49.1747 381.432 49.2514C381.207 49.3253 381.026 49.4375 380.886 49.5881C380.75 49.7358 380.682 49.9375 380.682 50.1932C380.682 50.5426 380.811 50.8068 381.07 50.9858C381.331 51.1619 381.662 51.25 382.062 51.25ZM389.591 45.4545V46.3068H386.199V45.4545H389.591ZM387.188 43.8864H388.194V50.125C388.194 50.4091 388.235 50.6222 388.317 50.7642C388.402 50.9034 388.51 50.9972 388.641 51.0455C388.775 51.0909 388.915 51.1136 389.063 51.1136C389.174 51.1136 389.265 51.108 389.336 51.0966C389.407 51.0824 389.463 51.071 389.506 51.0625L389.711 51.9659C389.642 51.9915 389.547 52.017 389.425 52.0426C389.303 52.071 389.148 52.0852 388.961 52.0852C388.676 52.0852 388.398 52.0241 388.125 51.902C387.855 51.7798 387.631 51.5938 387.452 51.3438C387.276 51.0938 387.188 50.7784 387.188 50.3977V43.8864ZM393.03 52.1534C392.615 52.1534 392.239 52.0753 391.901 51.919C391.563 51.7599 391.294 51.5312 391.096 51.233C390.897 50.9318 390.797 50.5682 390.797 50.142C390.797 49.767 390.871 49.4631 391.019 49.2301C391.167 48.9943 391.364 48.8097 391.611 48.6761C391.858 48.5426 392.131 48.4432 392.429 48.3778C392.73 48.3097 393.033 48.2557 393.337 48.2159C393.735 48.1648 394.057 48.1264 394.304 48.1009C394.554 48.0724 394.736 48.0256 394.85 47.9602C394.966 47.8949 395.025 47.7812 395.025 47.6193V47.5852C395.025 47.1648 394.909 46.8381 394.679 46.6051C394.452 46.3722 394.107 46.2557 393.644 46.2557C393.164 46.2557 392.787 46.3608 392.515 46.571C392.242 46.7812 392.05 47.0057 391.939 47.2443L390.985 46.9034C391.155 46.5057 391.382 46.196 391.667 45.9744C391.953 45.75 392.266 45.5937 392.604 45.5057C392.945 45.4148 393.28 45.3693 393.61 45.3693C393.82 45.3693 394.061 45.3949 394.334 45.446C394.61 45.4943 394.875 45.5952 395.131 45.7486C395.39 45.902 395.604 46.1335 395.775 46.4432C395.945 46.7528 396.03 47.1676 396.03 47.6875V52H395.025V51.1136H394.973C394.905 51.2557 394.792 51.4077 394.632 51.5696C394.473 51.7315 394.262 51.8693 393.998 51.983C393.733 52.0966 393.411 52.1534 393.03 52.1534ZM393.184 51.25C393.581 51.25 393.917 51.1719 394.189 51.0156C394.465 50.8594 394.672 50.6577 394.811 50.4105C394.953 50.1634 395.025 49.9034 395.025 49.6307V48.7102C394.982 48.7614 394.888 48.8082 394.743 48.8509C394.601 48.8906 394.436 48.9261 394.249 48.9574C394.064 48.9858 393.884 49.0114 393.708 49.0341C393.534 49.054 393.394 49.071 393.286 49.0852C393.025 49.1193 392.78 49.1747 392.553 49.2514C392.328 49.3253 392.147 49.4375 392.007 49.5881C391.871 49.7358 391.803 49.9375 391.803 50.1932C391.803 50.5426 391.932 50.8068 392.191 50.9858C392.452 51.1619 392.783 51.25 393.184 51.25ZM401.241 52V45.4545H402.246V52H401.241ZM401.752 44.3636C401.556 44.3636 401.387 44.2969 401.245 44.1634C401.106 44.0298 401.036 43.8693 401.036 43.6818C401.036 43.4943 401.106 43.3338 401.245 43.2003C401.387 43.0668 401.556 43 401.752 43C401.948 43 402.116 43.0668 402.255 43.2003C402.397 43.3338 402.468 43.4943 402.468 43.6818C402.468 43.8693 402.397 44.0298 402.255 44.1634C402.116 44.2969 401.948 44.3636 401.752 44.3636ZM405.094 48.0625V52H404.088V45.4545H405.06V46.4773H405.145C405.299 46.1449 405.532 45.8778 405.844 45.6761C406.157 45.4716 406.56 45.3693 407.054 45.3693C407.498 45.3693 407.885 45.4602 408.218 45.642C408.55 45.821 408.809 46.0938 408.993 46.4602C409.178 46.8239 409.27 47.2841 409.27 47.8409V52H408.265V47.9091C408.265 47.3949 408.131 46.9943 407.864 46.7074C407.597 46.4176 407.23 46.2727 406.765 46.2727C406.444 46.2727 406.157 46.3423 405.904 46.4815C405.654 46.6207 405.456 46.8239 405.311 47.0909C405.167 47.358 405.094 47.6818 405.094 48.0625ZM346.404 67V58.2727H349.353C350.035 58.2727 350.595 58.3892 351.032 58.6222C351.47 58.8523 351.794 59.169 352.004 59.5724C352.214 59.9759 352.319 60.4347 352.319 60.9489C352.319 61.4631 352.214 61.919 352.004 62.3168C351.794 62.7145 351.471 63.027 351.037 63.2543C350.602 63.4787 350.047 63.5909 349.37 63.5909H346.984V62.6364H349.336C349.802 62.6364 350.177 62.5682 350.461 62.4318C350.748 62.2955 350.956 62.1023 351.083 61.8523C351.214 61.5994 351.279 61.2983 351.279 60.9489C351.279 60.5994 351.214 60.294 351.083 60.0327C350.953 59.7713 350.744 59.5696 350.457 59.4276C350.17 59.2827 349.791 59.2102 349.319 59.2102H347.461V67H346.404ZM350.512 63.0795L352.66 67H351.433L349.319 63.0795H350.512ZM358.069 64.3239V60.4545H359.075V67H358.069V65.892H358.001C357.847 66.2244 357.609 66.5071 357.285 66.7401C356.961 66.9702 356.552 67.0852 356.058 67.0852C355.648 67.0852 355.285 66.9957 354.967 66.8168C354.648 66.6349 354.398 66.3622 354.217 65.9986C354.035 65.6321 353.944 65.1705 353.944 64.6136V60.4545H354.95V64.5455C354.95 65.0227 355.083 65.4034 355.35 65.6875C355.62 65.9716 355.964 66.1136 356.381 66.1136C356.631 66.1136 356.886 66.0497 357.144 65.9219C357.406 65.794 357.624 65.598 357.8 65.3338C357.979 65.0696 358.069 64.733 358.069 64.3239ZM361.922 63.0625V67H360.917V60.4545H361.888V61.4773H361.973C362.127 61.1449 362.36 60.8778 362.672 60.6761C362.985 60.4716 363.388 60.3693 363.882 60.3693C364.326 60.3693 364.713 60.4602 365.046 60.642C365.378 60.821 365.637 61.0938 365.821 61.4602C366.006 61.8239 366.098 62.2841 366.098 62.8409V67H365.093V62.9091C365.093 62.3949 364.959 61.9943 364.692 61.7074C364.425 61.4176 364.059 61.2727 363.593 61.2727C363.272 61.2727 362.985 61.3423 362.732 61.4815C362.482 61.6207 362.284 61.8239 362.14 62.0909C361.995 62.358 361.922 62.6818 361.922 63.0625ZM370.783 60.4545V61.3068H367.391V60.4545H370.783ZM368.379 58.8864H369.385V65.125C369.385 65.4091 369.426 65.6222 369.509 65.7642C369.594 65.9034 369.702 65.9972 369.832 66.0455C369.966 66.0909 370.107 66.1136 370.254 66.1136C370.365 66.1136 370.456 66.108 370.527 66.0966C370.598 66.0824 370.655 66.071 370.697 66.0625L370.902 66.9659C370.834 66.9915 370.739 67.017 370.616 67.0426C370.494 67.071 370.339 67.0852 370.152 67.0852C369.868 67.0852 369.589 67.0241 369.317 66.902C369.047 66.7798 368.822 66.5938 368.643 66.3438C368.467 66.0938 368.379 65.7784 368.379 65.3977V58.8864ZM372.295 67V60.4545H373.301V67H372.295ZM372.807 59.3636C372.611 59.3636 372.442 59.2969 372.3 59.1634C372.161 59.0298 372.091 58.8693 372.091 58.6818C372.091 58.4943 372.161 58.3338 372.3 58.2003C372.442 58.0668 372.611 58 372.807 58C373.003 58 373.17 58.0668 373.31 58.2003C373.452 58.3338 373.523 58.4943 373.523 58.6818C373.523 58.8693 373.452 59.0298 373.31 59.1634C373.17 59.2969 373.003 59.3636 372.807 59.3636ZM375.143 67V60.4545H376.115V61.4773H376.2C376.336 61.1278 376.556 60.8565 376.86 60.6634C377.164 60.4673 377.529 60.3693 377.956 60.3693C378.387 60.3693 378.747 60.4673 379.034 60.6634C379.324 60.8565 379.549 61.1278 379.711 61.4773H379.779C379.947 61.1392 380.199 60.8707 380.534 60.6719C380.869 60.4702 381.271 60.3693 381.74 60.3693C382.325 60.3693 382.804 60.5526 383.176 60.919C383.548 61.2827 383.734 61.8494 383.734 62.6193V67H382.728V62.6193C382.728 62.1364 382.596 61.7912 382.332 61.5838C382.068 61.3764 381.757 61.2727 381.399 61.2727C380.939 61.2727 380.582 61.4119 380.329 61.6903C380.076 61.9659 379.95 62.3153 379.95 62.7386V67H378.927V62.517C378.927 62.1449 378.806 61.8452 378.565 61.6179C378.324 61.3878 378.012 61.2727 377.632 61.2727C377.37 61.2727 377.126 61.3423 376.899 61.4815C376.674 61.6207 376.493 61.8139 376.353 62.0611C376.217 62.3054 376.149 62.5881 376.149 62.9091V67H375.143ZM388.317 67.1364C387.686 67.1364 387.142 66.9972 386.685 66.7188C386.23 66.4375 385.88 66.0455 385.632 65.5426C385.388 65.0369 385.266 64.4489 385.266 63.7784C385.266 63.108 385.388 62.517 385.632 62.0057C385.88 61.4915 386.223 61.0909 386.664 60.804C387.107 60.5142 387.624 60.3693 388.215 60.3693C388.556 60.3693 388.892 60.4261 389.225 60.5398C389.557 60.6534 389.86 60.8381 390.132 61.0938C390.405 61.3466 390.623 61.6818 390.784 62.0994C390.946 62.517 391.027 63.0312 391.027 63.642V64.0682H385.982V63.1989H390.005C390.005 62.8295 389.931 62.5 389.783 62.2102C389.638 61.9205 389.431 61.6918 389.161 61.5241C388.894 61.3565 388.578 61.2727 388.215 61.2727C387.814 61.2727 387.468 61.3722 387.175 61.571C386.885 61.767 386.662 62.0227 386.506 62.3381C386.35 62.6534 386.272 62.9915 386.272 63.3523V63.9318C386.272 64.4261 386.357 64.8452 386.527 65.1889C386.701 65.5298 386.941 65.7898 387.248 65.9688C387.554 66.1449 387.911 66.233 388.317 66.233C388.581 66.233 388.82 66.196 389.033 66.1222C389.249 66.0455 389.435 65.9318 389.591 65.7812C389.748 65.6278 389.868 65.4375 389.953 65.2102L390.925 65.483C390.823 65.8125 390.651 66.1023 390.409 66.3523C390.168 66.5994 389.87 66.7926 389.515 66.9318C389.159 67.0682 388.76 67.1364 388.317 67.1364ZM403.432 62.6364C403.432 63.5568 403.266 64.3523 402.934 65.0227C402.601 65.6932 402.145 66.2102 401.566 66.5739C400.986 66.9375 400.324 67.1193 399.58 67.1193C398.836 67.1193 398.174 66.9375 397.594 66.5739C397.015 66.2102 396.559 65.6932 396.226 65.0227C395.894 64.3523 395.728 63.5568 395.728 62.6364C395.728 61.7159 395.894 60.9205 396.226 60.25C396.559 59.5795 397.015 59.0625 397.594 58.6989C398.174 58.3352 398.836 58.1534 399.58 58.1534C400.324 58.1534 400.986 58.3352 401.566 58.6989C402.145 59.0625 402.601 59.5795 402.934 60.25C403.266 60.9205 403.432 61.7159 403.432 62.6364ZM402.409 62.6364C402.409 61.8807 402.283 61.2429 402.03 60.723C401.78 60.2031 401.441 59.8097 401.012 59.5426C400.586 59.2756 400.108 59.142 399.58 59.142C399.051 59.142 398.573 59.2756 398.144 59.5426C397.718 59.8097 397.378 60.2031 397.125 60.723C396.875 61.2429 396.75 61.8807 396.75 62.6364C396.75 63.392 396.875 64.0298 397.125 64.5497C397.378 65.0696 397.718 65.4631 398.144 65.7301C398.573 65.9972 399.051 66.1307 399.58 66.1307C400.108 66.1307 400.586 65.9972 401.012 65.7301C401.441 65.4631 401.78 65.0696 402.03 64.5497C402.283 64.0298 402.409 63.392 402.409 62.6364ZM405.209 67V58.2727H406.215V61.4943H406.3C406.374 61.3807 406.476 61.2358 406.607 61.0597C406.74 60.8807 406.931 60.7216 407.178 60.5824C407.428 60.4403 407.766 60.3693 408.192 60.3693C408.743 60.3693 409.229 60.5071 409.65 60.7827C410.07 61.0582 410.398 61.4489 410.634 61.9545C410.87 62.4602 410.988 63.0568 410.988 63.7443C410.988 64.4375 410.87 65.0384 410.634 65.5469C410.398 66.0526 410.071 66.4446 409.654 66.723C409.236 66.9986 408.755 67.1364 408.209 67.1364C407.789 67.1364 407.452 67.0668 407.199 66.9276C406.946 66.7855 406.752 66.625 406.615 66.446C406.479 66.2642 406.374 66.1136 406.3 65.9943H406.181V67H405.209ZM406.198 63.7273C406.198 64.2216 406.27 64.6577 406.415 65.0355C406.56 65.4105 406.772 65.7045 407.05 65.9176C407.328 66.1278 407.669 66.233 408.073 66.233C408.493 66.233 408.844 66.1222 409.125 65.9006C409.409 65.6761 409.623 65.375 409.765 64.9972C409.909 64.6165 409.982 64.1932 409.982 63.7273C409.982 63.267 409.911 62.8523 409.769 62.483C409.63 62.1108 409.418 61.8168 409.134 61.6009C408.853 61.3821 408.499 61.2727 408.073 61.2727C407.664 61.2727 407.32 61.3764 407.042 61.5838C406.763 61.7884 406.553 62.0753 406.411 62.4446C406.269 62.8111 406.198 63.2386 406.198 63.7273ZM412.526 60.4545H413.532V67.4773C413.532 67.8807 413.462 68.2301 413.323 68.5256C413.186 68.821 412.979 69.0497 412.701 69.2116C412.425 69.3736 412.077 69.4545 411.657 69.4545C411.623 69.4545 411.588 69.4545 411.554 69.4545C411.52 69.4545 411.486 69.4545 411.452 69.4545V68.517C411.486 68.517 411.517 68.517 411.546 68.517C411.574 68.517 411.605 68.517 411.64 68.517C411.946 68.517 412.171 68.4261 412.313 68.2443C412.455 68.0653 412.526 67.8097 412.526 67.4773V60.4545ZM413.02 59.3636C412.824 59.3636 412.655 59.2969 412.513 59.1634C412.374 59.0298 412.304 58.8693 412.304 58.6818C412.304 58.4943 412.374 58.3338 412.513 58.2003C412.655 58.0668 412.824 58 413.02 58C413.216 58 413.384 58.0668 413.523 58.2003C413.665 58.3338 413.736 58.4943 413.736 58.6818C413.736 58.8693 413.665 59.0298 413.523 59.1634C413.384 59.2969 413.216 59.3636 413.02 59.3636ZM418.118 67.1364C417.487 67.1364 416.943 66.9972 416.486 66.7188C416.031 66.4375 415.68 66.0455 415.433 65.5426C415.189 65.0369 415.067 64.4489 415.067 63.7784C415.067 63.108 415.189 62.517 415.433 62.0057C415.68 61.4915 416.024 61.0909 416.464 60.804C416.908 60.5142 417.425 60.3693 418.016 60.3693C418.357 60.3693 418.693 60.4261 419.026 60.5398C419.358 60.6534 419.661 60.8381 419.933 61.0938C420.206 61.3466 420.423 61.6818 420.585 62.0994C420.747 62.517 420.828 63.0312 420.828 63.642V64.0682H415.783V63.1989H419.805C419.805 62.8295 419.732 62.5 419.584 62.2102C419.439 61.9205 419.232 61.6918 418.962 61.5241C418.695 61.3565 418.379 61.2727 418.016 61.2727C417.615 61.2727 417.268 61.3722 416.976 61.571C416.686 61.767 416.463 62.0227 416.307 62.3381C416.151 62.6534 416.072 62.9915 416.072 63.3523V63.9318C416.072 64.4261 416.158 64.8452 416.328 65.1889C416.501 65.5298 416.741 65.7898 417.048 65.9688C417.355 66.1449 417.712 66.233 418.118 66.233C418.382 66.233 418.621 66.196 418.834 66.1222C419.05 66.0455 419.236 65.9318 419.392 65.7812C419.548 65.6278 419.669 65.4375 419.754 65.2102L420.726 65.483C420.624 65.8125 420.452 66.1023 420.21 66.3523C419.969 66.5994 419.67 66.7926 419.315 66.9318C418.96 67.0682 418.561 67.1364 418.118 67.1364ZM425.017 67.1364C424.403 67.1364 423.875 66.9915 423.432 66.7017C422.989 66.4119 422.648 66.0128 422.409 65.5043C422.17 64.9957 422.051 64.4148 422.051 63.7614C422.051 63.0966 422.173 62.5099 422.418 62.0014C422.665 61.4901 423.009 61.0909 423.449 60.804C423.892 60.5142 424.409 60.3693 425 60.3693C425.46 60.3693 425.875 60.4545 426.244 60.625C426.614 60.7955 426.916 61.0341 427.152 61.3409C427.388 61.6477 427.534 62.0057 427.591 62.4148H426.585C426.509 62.1165 426.338 61.8523 426.074 61.6222C425.813 61.3892 425.46 61.2727 425.017 61.2727C424.625 61.2727 424.281 61.375 423.986 61.5795C423.693 61.7812 423.464 62.0668 423.3 62.4361C423.138 62.8026 423.057 63.233 423.057 63.7273C423.057 64.233 423.136 64.6733 423.295 65.0483C423.457 65.4233 423.685 65.7145 423.977 65.9219C424.273 66.1293 424.619 66.233 425.017 66.233C425.278 66.233 425.516 66.1875 425.729 66.0966C425.942 66.0057 426.122 65.875 426.27 65.7045C426.418 65.5341 426.523 65.3295 426.585 65.0909H427.591C427.534 65.4773 427.393 65.8253 427.169 66.1349C426.947 66.4418 426.653 66.6861 426.287 66.8679C425.923 67.0469 425.5 67.1364 425.017 67.1364ZM431.908 60.4545V61.3068H428.516V60.4545H431.908ZM429.504 58.8864H430.51V65.125C430.51 65.4091 430.551 65.6222 430.634 65.7642C430.719 65.9034 430.827 65.9972 430.957 66.0455C431.091 66.0909 431.232 66.1136 431.379 66.1136C431.49 66.1136 431.581 66.108 431.652 66.0966C431.723 66.0824 431.78 66.071 431.822 66.0625L432.027 66.9659C431.959 66.9915 431.864 67.017 431.741 67.0426C431.619 67.071 431.464 67.0852 431.277 67.0852C430.993 67.0852 430.714 67.0241 430.442 66.902C430.172 66.7798 429.947 66.5938 429.768 66.3438C429.592 66.0938 429.504 65.7784 429.504 65.3977V58.8864ZM437.94 61.9205L437.036 62.1761C436.979 62.0256 436.896 61.8793 436.785 61.7372C436.677 61.5923 436.529 61.473 436.342 61.3793C436.154 61.2855 435.914 61.2386 435.621 61.2386C435.221 61.2386 434.887 61.331 434.62 61.5156C434.356 61.6974 434.224 61.929 434.224 62.2102C434.224 62.4602 434.315 62.6577 434.496 62.8026C434.678 62.9474 434.962 63.0682 435.349 63.1648L436.32 63.4034C436.906 63.5455 437.342 63.7628 437.629 64.0554C437.915 64.3452 438.059 64.7187 438.059 65.1761C438.059 65.5511 437.951 65.8864 437.735 66.1818C437.522 66.4773 437.224 66.7102 436.84 66.8807C436.457 67.0511 436.011 67.1364 435.502 67.1364C434.835 67.1364 434.282 66.9915 433.844 66.7017C433.407 66.4119 433.13 65.9886 433.013 65.4318L433.968 65.1932C434.059 65.5455 434.231 65.8097 434.484 65.9858C434.739 66.1619 435.073 66.25 435.485 66.25C435.954 66.25 436.326 66.1506 436.602 65.9517C436.88 65.75 437.019 65.5085 437.019 65.2273C437.019 65 436.94 64.8097 436.781 64.6562C436.621 64.5 436.377 64.3835 436.048 64.3068L434.957 64.0511C434.357 63.9091 433.917 63.6889 433.636 63.3906C433.357 63.0895 433.218 62.7131 433.218 62.2614C433.218 61.892 433.322 61.5653 433.529 61.2812C433.739 60.9972 434.025 60.7741 434.386 60.6122C434.749 60.4503 435.161 60.3693 435.621 60.3693C436.269 60.3693 436.778 60.5114 437.147 60.7955C437.519 61.0795 437.783 61.4545 437.94 61.9205Z" fill="white"/>
<path d="M162.707 55.7071C163.098 55.3166 163.098 54.6834 162.707 54.2929L156.343 47.9289C155.953 47.5384 155.319 47.5384 154.929 47.9289C154.538 48.3195 154.538 48.9526 154.929 49.3431L160.586 55L154.929 60.6569C154.538 61.0474 154.538 61.6805 154.929 62.0711C155.319 62.4616 155.953 62.4616 156.343 62.0711L162.707 55.7071ZM120 55V56H162V55V54H120V55Z" fill="black"/>
<path d="M316.707 55.7071C317.098 55.3166 317.098 54.6834 316.707 54.2929L310.343 47.9289C309.953 47.5384 309.319 47.5384 308.929 47.9289C308.538 48.3195 308.538 48.9526 308.929 49.3431L314.586 55L308.929 60.6569C308.538 61.0474 308.538 61.6805 308.929 62.0711C309.319 62.4616 309.953 62.4616 310.343 62.0711L316.707 55.7071ZM274 55V56H316V55V54H274V55Z" fill="black"/>
<path d="M57.8675 26H56.4915V18.016C56.4915 17.7067 56.4915 17.4453 56.4915 17.232C56.5022 17.0187 56.5128 16.8213 56.5235 16.64C56.5342 16.448 56.5448 16.2507 56.5555 16.048C56.3848 16.2187 56.2302 16.3627 56.0915 16.48C55.9528 16.5973 55.7768 16.7467 55.5635 16.928L54.3475 17.92L53.6115 16.976L56.6995 14.576H57.8675V26ZM64.7358 21.616L61.7758 17.424H63.3758L65.5838 20.656L67.7758 17.424H69.3598L66.3998 21.616L69.5198 26H67.9198L65.5838 22.576L63.2158 26H61.6318L64.7358 21.616Z" fill="black"/>
<path d="M214.508 26H206.956V24.832L209.948 21.808C210.524 21.232 211.009 20.72 211.404 20.272C211.798 19.824 212.097 19.3867 212.3 18.96C212.502 18.5227 212.604 18.048 212.604 17.536C212.604 16.9067 212.417 16.432 212.044 16.112C211.67 15.7813 211.185 15.616 210.588 15.616C210.033 15.616 209.542 15.712 209.116 15.904C208.7 16.096 208.273 16.3627 207.836 16.704L207.084 15.76C207.382 15.504 207.708 15.2747 208.06 15.072C208.422 14.8693 208.812 14.7093 209.228 14.592C209.654 14.4747 210.108 14.416 210.588 14.416C211.302 14.416 211.916 14.5387 212.428 14.784C212.94 15.0293 213.334 15.3813 213.612 15.84C213.9 16.288 214.044 16.8267 214.044 17.456C214.044 17.904 213.974 18.3307 213.836 18.736C213.697 19.1307 213.5 19.52 213.244 19.904C212.988 20.288 212.678 20.6773 212.316 21.072C211.953 21.4667 211.553 21.8773 211.116 22.304L208.732 24.656V24.72H214.508V26ZM218.736 21.616L215.776 17.424H217.376L219.584 20.656L221.776 17.424H223.36L220.4 21.616L223.52 26H221.92L219.584 22.576L217.216 26H215.632L218.736 21.616Z" fill="black"/>
<path d="M391.076 17.248C391.076 17.76 390.98 18.2027 390.788 18.576C390.596 18.9493 390.318 19.2533 389.956 19.488C389.604 19.7227 389.188 19.888 388.708 19.984V20.048C389.625 20.1547 390.308 20.4427 390.756 20.912C391.204 21.3813 391.428 21.9947 391.428 22.752C391.428 23.4133 391.273 24.0053 390.964 24.528C390.654 25.04 390.174 25.44 389.524 25.728C388.884 26.016 388.057 26.16 387.044 26.16C386.446 26.16 385.892 26.112 385.38 26.016C384.868 25.9307 384.377 25.7707 383.908 25.536V24.224C384.388 24.4587 384.905 24.6453 385.46 24.784C386.014 24.912 386.548 24.976 387.06 24.976C388.084 24.976 388.82 24.7787 389.268 24.384C389.726 23.9787 389.956 23.424 389.956 22.72C389.956 22.24 389.828 21.856 389.572 21.568C389.326 21.2693 388.964 21.0507 388.484 20.912C388.004 20.7733 387.428 20.704 386.756 20.704H385.652V19.504H386.772C387.401 19.504 387.924 19.4133 388.34 19.232C388.766 19.0507 389.086 18.8 389.3 18.48C389.524 18.1493 389.636 17.7707 389.636 17.344C389.636 16.7893 389.449 16.3627 389.076 16.064C388.702 15.7547 388.196 15.6 387.556 15.6C387.15 15.6 386.782 15.6427 386.452 15.728C386.121 15.8027 385.812 15.9147 385.524 16.064C385.246 16.2027 384.964 16.368 384.676 16.56L383.972 15.6C384.249 15.3867 384.564 15.1893 384.916 15.008C385.278 14.8267 385.678 14.6827 386.116 14.576C386.553 14.4693 387.028 14.416 387.54 14.416C388.734 14.416 389.62 14.6827 390.196 15.216C390.782 15.7493 391.076 16.4267 391.076 17.248ZM395.736 21.616L392.776 17.424H394.376L396.584 20.656L398.776 17.424H400.36L397.4 21.616L400.52 26H398.92L396.584 22.576L394.216 26H392.632L395.736 21.616Z" fill="black"/>
</svg>
