<svg width="113" height="128" viewBox="0 0 113 128" fill="none" xmlns="http://www.w3.org/2000/svg">
<rect width="113" height="128" fill="white"/>
<rect x="5.25" y="6.25" width="52.5" height="11.5" rx="2.75" fill="#D2DC46"/>
<rect x="5.25" y="6.25" width="52.5" height="11.5" rx="2.75" stroke="black" stroke-width="0.5"/>
<path d="M12.007 14.06C11.743 14.06 11.515 14.01 11.323 13.91C11.135 13.81 10.989 13.666 10.885 13.478C10.785 13.286 10.735 13.06 10.735 12.8V10.82C10.735 10.556 10.785 10.33 10.885 10.142C10.989 9.954 11.135 9.81 11.323 9.71C11.515 9.61 11.743 9.56 12.007 9.56C12.271 9.56 12.497 9.61 12.685 9.71C12.877 9.81 13.023 9.954 13.123 10.142C13.227 10.33 13.279 10.554 13.279 10.814V12.8C13.279 13.06 13.227 13.286 13.123 13.478C13.023 13.666 12.877 13.81 12.685 13.91C12.497 14.01 12.271 14.06 12.007 14.06ZM12.007 13.574C12.243 13.574 12.423 13.508 12.547 13.376C12.675 13.24 12.739 13.048 12.739 12.8V10.82C12.739 10.572 12.675 10.382 12.547 10.25C12.423 10.114 12.243 10.046 12.007 10.046C11.775 10.046 11.595 10.114 11.467 10.25C11.339 10.382 11.275 10.572 11.275 10.82V12.8C11.275 13.048 11.339 13.24 11.467 13.376C11.595 13.508 11.775 13.574 12.007 13.574ZM14.3567 15.08V10.7H14.8967V11.33H15.0047L14.8967 11.456C14.8967 11.204 14.9787 11.006 15.1427 10.862C15.3107 10.714 15.5307 10.64 15.8027 10.64C16.1347 10.64 16.3987 10.75 16.5947 10.97C16.7947 11.186 16.8947 11.484 16.8947 11.864V12.83C16.8947 13.082 16.8487 13.3 16.7567 13.484C16.6687 13.668 16.5427 13.81 16.3787 13.91C16.2187 14.01 16.0267 14.06 15.8027 14.06C15.5347 14.06 15.3167 13.986 15.1487 13.838C14.9807 13.69 14.8967 13.492 14.8967 13.244L15.0047 13.37H14.8847L14.8967 14.12V15.08H14.3567ZM15.6227 13.592C15.8507 13.592 16.0287 13.524 16.1567 13.388C16.2887 13.252 16.3547 13.056 16.3547 12.8V11.9C16.3547 11.644 16.2887 11.448 16.1567 11.312C16.0287 11.176 15.8507 11.108 15.6227 11.108C15.4027 11.108 15.2267 11.178 15.0947 11.318C14.9627 11.458 14.8967 11.652 14.8967 11.9V12.8C14.8967 13.048 14.9627 13.242 15.0947 13.382C15.2267 13.522 15.4027 13.592 15.6227 13.592ZM19.2263 14.06C18.9623 14.06 18.7303 14.01 18.5303 13.91C18.3343 13.81 18.1823 13.666 18.0743 13.478C17.9663 13.286 17.9123 13.06 17.9123 12.8V11.9C17.9123 11.636 17.9663 11.41 18.0743 11.222C18.1823 11.034 18.3343 10.89 18.5303 10.79C18.7303 10.69 18.9623 10.64 19.2263 10.64C19.6063 10.64 19.9123 10.742 20.1443 10.946C20.3763 11.15 20.4983 11.428 20.5103 11.78H19.9703C19.9583 11.568 19.8863 11.406 19.7543 11.294C19.6263 11.178 19.4503 11.12 19.2263 11.12C18.9903 11.12 18.8023 11.188 18.6623 11.324C18.5223 11.456 18.4523 11.646 18.4523 11.894V12.8C18.4523 13.048 18.5223 13.24 18.6623 13.376C18.8023 13.512 18.9903 13.58 19.2263 13.58C19.4503 13.58 19.6263 13.522 19.7543 13.406C19.8863 13.29 19.9583 13.128 19.9703 12.92H20.5103C20.4983 13.272 20.3763 13.55 20.1443 13.754C19.9123 13.958 19.6063 14.06 19.2263 14.06ZM22.8 14.048C22.536 14.048 22.308 13.998 22.116 13.898C21.924 13.798 21.774 13.654 21.666 13.466C21.562 13.274 21.51 13.048 21.51 12.788V11.912C21.51 11.648 21.562 11.422 21.666 11.234C21.774 11.046 21.924 10.902 22.116 10.802C22.308 10.702 22.536 10.652 22.8 10.652C23.064 10.652 23.292 10.702 23.484 10.802C23.676 10.902 23.824 11.046 23.928 11.234C24.036 11.422 24.09 11.646 24.09 11.906V12.788C24.09 13.048 24.036 13.274 23.928 13.466C23.824 13.654 23.676 13.798 23.484 13.898C23.292 13.998 23.064 14.048 22.8 14.048ZM22.8 13.568C23.036 13.568 23.22 13.502 23.352 13.37C23.484 13.238 23.55 13.044 23.55 12.788V11.912C23.55 11.656 23.484 11.462 23.352 11.33C23.22 11.198 23.036 11.132 22.8 11.132C22.568 11.132 22.384 11.198 22.248 11.33C22.116 11.462 22.05 11.656 22.05 11.912V12.788C22.05 13.044 22.116 13.238 22.248 13.37C22.384 13.502 22.568 13.568 22.8 13.568ZM26.2057 14.06C25.8777 14.06 25.6117 13.95 25.4077 13.73C25.2077 13.51 25.1077 13.212 25.1077 12.836V11.87C25.1077 11.49 25.2077 11.19 25.4077 10.97C25.6077 10.75 25.8737 10.64 26.2057 10.64C26.4777 10.64 26.6957 10.714 26.8597 10.862C27.0237 11.01 27.1057 11.208 27.1057 11.456L26.9977 11.33H27.1177L27.1057 10.58V9.62H27.6457V14H27.1057V13.37H26.9977L27.1057 13.244C27.1057 13.496 27.0237 13.696 26.8597 13.844C26.6957 13.988 26.4777 14.06 26.2057 14.06ZM26.3857 13.592C26.6097 13.592 26.7857 13.522 26.9137 13.382C27.0417 13.242 27.1057 13.048 27.1057 12.8V11.9C27.1057 11.652 27.0417 11.458 26.9137 11.318C26.7857 11.178 26.6097 11.108 26.3857 11.108C26.1577 11.108 25.9777 11.176 25.8457 11.312C25.7137 11.448 25.6477 11.644 25.6477 11.9V12.8C25.6477 13.056 25.7137 13.252 25.8457 13.388C25.9777 13.524 26.1577 13.592 26.3857 13.592ZM29.9953 14.06C29.7353 14.06 29.5073 14.008 29.3113 13.904C29.1193 13.8 28.9693 13.654 28.8613 13.466C28.7573 13.274 28.7053 13.052 28.7053 12.8V11.9C28.7053 11.644 28.7573 11.422 28.8613 11.234C28.9693 11.046 29.1193 10.9 29.3113 10.796C29.5073 10.692 29.7353 10.64 29.9953 10.64C30.2553 10.64 30.4813 10.692 30.6733 10.796C30.8693 10.9 31.0193 11.046 31.1233 11.234C31.2313 11.422 31.2853 11.644 31.2853 11.9V12.482H29.2333V12.8C29.2333 13.06 29.2993 13.26 29.4313 13.4C29.5633 13.536 29.7513 13.604 29.9953 13.604C30.2033 13.604 30.3713 13.568 30.4993 13.496C30.6273 13.42 30.7053 13.308 30.7333 13.16H31.2733C31.2373 13.436 31.1013 13.656 30.8653 13.82C30.6333 13.98 30.3433 14.06 29.9953 14.06ZM30.7573 12.122V11.9C30.7573 11.64 30.6913 11.44 30.5593 11.3C30.4313 11.16 30.2433 11.09 29.9953 11.09C29.7513 11.09 29.5633 11.16 29.4313 11.3C29.2993 11.44 29.2333 11.64 29.2333 11.9V12.074H30.7993L30.7573 12.122Z" fill="black"/>
<line x1="37.25" y1="6" x2="37.25" y2="18" stroke="black" stroke-width="0.5"/>
<path d="M42.9035 14.06C42.6395 14.06 42.4115 14.01 42.2195 13.91C42.0315 13.81 41.8855 13.666 41.7815 13.478C41.6815 13.286 41.6315 13.06 41.6315 12.8V10.82C41.6315 10.556 41.6815 10.33 41.7815 10.142C41.8855 9.954 42.0315 9.81 42.2195 9.71C42.4115 9.61 42.6395 9.56 42.9035 9.56C43.1675 9.56 43.3935 9.61 43.5815 9.71C43.7735 9.81 43.9195 9.954 44.0195 10.142C44.1235 10.33 44.1755 10.554 44.1755 10.814V12.8C44.1755 13.06 44.1235 13.286 44.0195 13.478C43.9195 13.666 43.7735 13.81 43.5815 13.91C43.3935 14.01 43.1675 14.06 42.9035 14.06ZM42.9035 13.574C43.1395 13.574 43.3195 13.508 43.4435 13.376C43.5715 13.24 43.6355 13.048 43.6355 12.8V10.82C43.6355 10.572 43.5715 10.382 43.4435 10.25C43.3195 10.114 43.1395 10.046 42.9035 10.046C42.6715 10.046 42.4915 10.114 42.3635 10.25C42.2355 10.382 42.1715 10.572 42.1715 10.82V12.8C42.1715 13.048 42.2355 13.24 42.3635 13.376C42.4915 13.508 42.6715 13.574 42.9035 13.574ZM45.2532 15.08V10.7H45.7932V11.33H45.9012L45.7932 11.456C45.7932 11.204 45.8752 11.006 46.0392 10.862C46.2072 10.714 46.4272 10.64 46.6992 10.64C47.0312 10.64 47.2952 10.75 47.4912 10.97C47.6912 11.186 47.7912 11.484 47.7912 11.864V12.83C47.7912 13.082 47.7452 13.3 47.6532 13.484C47.5652 13.668 47.4392 13.81 47.2752 13.91C47.1152 14.01 46.9232 14.06 46.6992 14.06C46.4312 14.06 46.2132 13.986 46.0452 13.838C45.8772 13.69 45.7932 13.492 45.7932 13.244L45.9012 13.37H45.7812L45.7932 14.12V15.08H45.2532ZM46.5192 13.592C46.7472 13.592 46.9252 13.524 47.0532 13.388C47.1852 13.252 47.2512 13.056 47.2512 12.8V11.9C47.2512 11.644 47.1852 11.448 47.0532 11.312C46.9252 11.176 46.7472 11.108 46.5192 11.108C46.2992 11.108 46.1232 11.178 45.9912 11.318C45.8592 11.458 45.7932 11.652 45.7932 11.9V12.8C45.7932 13.048 45.8592 13.242 45.9912 13.382C46.1232 13.522 46.2992 13.592 46.5192 13.592ZM48.8388 14V13.508H50.0268V10.07L48.8388 10.958V10.358L49.8288 9.62H50.5668V13.508H51.5388V14H48.8388Z" fill="black"/>
<g clip-path="url(#clip0_123_3)">
<mask id="path-5-inside-1_123_3" fill="white">
<path d="M31 38H69V82H31V38Z"/>
</mask>
<mask id="path-7-inside-2_123_3" fill="white">
<path d="M31 38H69V49H31V38Z"/>
</mask>
<path d="M31 38H69V49H31V38Z" fill="#8CE6D7"/>
<path d="M69 49V48.6H31V49V49.4H69V49Z" fill="black" mask="url(#path-7-inside-2_123_3)"/>
<path d="M45.8035 45.56C45.4755 45.56 45.2175 45.472 45.0295 45.296C44.8455 45.12 44.7535 44.878 44.7535 44.57V43.82C44.7535 43.608 44.8075 43.43 44.9155 43.286C45.0275 43.138 45.1855 43.034 45.3895 42.974L45.3475 42.914C45.2235 42.746 45.1335 42.59 45.0775 42.446C45.0215 42.302 44.9935 42.158 44.9935 42.014C44.9935 41.822 45.0375 41.654 45.1255 41.51C45.2175 41.366 45.3435 41.256 45.5035 41.18C45.6675 41.1 45.8575 41.06 46.0735 41.06C46.3055 41.06 46.5055 41.102 46.6735 41.186C46.8455 41.27 46.9775 41.388 47.0695 41.54C47.1615 41.692 47.2075 41.874 47.2075 42.086H46.6675C46.6675 41.97 46.6435 41.87 46.5955 41.786C46.5475 41.702 46.4795 41.638 46.3915 41.594C46.3035 41.55 46.1975 41.528 46.0735 41.528C45.9655 41.528 45.8695 41.548 45.7855 41.588C45.7055 41.628 45.6435 41.686 45.5995 41.762C45.5555 41.834 45.5335 41.922 45.5335 42.026C45.5335 42.126 45.5535 42.234 45.5935 42.35C45.6375 42.466 45.6975 42.576 45.7735 42.68L46.8055 44.102L47.2315 43.34H47.7955L47.1175 44.534L47.8195 45.5H47.2255L46.8475 44.978C46.5515 45.366 46.2035 45.56 45.8035 45.56ZM42.5935 45.08C42.7295 45.08 42.8615 45.036 42.9895 44.948C43.1135 44.856 43.2195 44.73 43.3075 44.57L42.4255 43.352C42.3015 43.372 42.2095 43.422 42.1495 43.502C42.0855 43.582 42.0535 43.688 42.0535 43.82V44.57C42.0535 44.73 42.1015 44.856 42.1975 44.948C42.2895 45.036 42.4215 45.08 42.5935 45.08ZM42.5635 45.56C42.2355 45.56 41.9795 45.472 41.7955 45.296C41.6075 45.12 41.5135 44.878 41.5135 44.57V43.82C41.5135 43.608 41.5695 43.43 41.6815 43.286C41.7895 43.138 41.9455 43.034 42.1495 42.974L42.1075 42.914C41.9835 42.746 41.8935 42.59 41.8375 42.446C41.7815 42.302 41.7535 42.158 41.7535 42.014C41.7535 41.822 41.7995 41.654 41.8915 41.51C41.9795 41.366 42.1055 41.256 42.2695 41.18C42.4295 41.1 42.6175 41.06 42.8335 41.06C43.0655 41.06 43.2675 41.102 43.4395 41.186C43.6075 41.27 43.7375 41.388 43.8295 41.54C43.9215 41.692 43.9675 41.874 43.9675 42.086H43.4275C43.4275 41.97 43.4035 41.87 43.3555 41.786C43.3075 41.702 43.2395 41.638 43.1515 41.594C43.0635 41.55 42.9575 41.528 42.8335 41.528C42.7255 41.528 42.6315 41.548 42.5515 41.588C42.4675 41.628 42.4035 41.686 42.3595 41.762C42.3155 41.834 42.2935 41.922 42.2935 42.026C42.2935 42.126 42.3155 42.234 42.3595 42.35C42.3995 42.466 42.4575 42.576 42.5335 42.68L44.5795 45.5H43.9855L43.6075 44.978C43.3115 45.366 42.9635 45.56 42.5635 45.56ZM45.8335 45.08C45.9695 45.08 46.0995 45.036 46.2235 44.948C46.3515 44.856 46.4595 44.73 46.5475 44.57L45.6655 43.352C45.5415 43.372 45.4475 43.422 45.3835 43.502C45.3235 43.582 45.2935 43.688 45.2935 43.82V44.57C45.2935 44.73 45.3395 44.856 45.4315 44.948C45.5275 45.036 45.6615 45.08 45.8335 45.08ZM48.5012 45.5L49.6412 41.12H50.3672L51.5012 45.5H50.9552L50.6672 44.336H49.3412L49.0532 45.5H48.5012ZM49.4492 43.88H50.5532L50.2172 42.53C50.1532 42.274 50.1032 42.06 50.0672 41.888C50.0312 41.716 50.0092 41.604 50.0012 41.552C49.9932 41.604 49.9712 41.716 49.9352 41.888C49.8992 42.06 49.8492 42.272 49.7852 42.524L49.4492 43.88ZM53.4068 45.56C53.0788 45.56 52.8128 45.45 52.6088 45.23C52.4088 45.01 52.3088 44.712 52.3088 44.336V43.37C52.3088 42.99 52.4088 42.69 52.6088 42.47C52.8088 42.25 53.0748 42.14 53.4068 42.14C53.6788 42.14 53.8968 42.214 54.0608 42.362C54.2248 42.51 54.3068 42.708 54.3068 42.956L54.1988 42.83H54.3188L54.3068 42.08V41.12H54.8468V45.5H54.3068V44.87H54.1988L54.3068 44.744C54.3068 44.996 54.2248 45.196 54.0608 45.344C53.8968 45.488 53.6788 45.56 53.4068 45.56ZM53.5868 45.092C53.8108 45.092 53.9868 45.022 54.1148 44.882C54.2428 44.742 54.3068 44.548 54.3068 44.3V43.4C54.3068 43.152 54.2428 42.958 54.1148 42.818C53.9868 42.678 53.8108 42.608 53.5868 42.608C53.3588 42.608 53.1788 42.676 53.0468 42.812C52.9148 42.948 52.8488 43.144 52.8488 43.4V44.3C52.8488 44.556 52.9148 44.752 53.0468 44.888C53.1788 45.024 53.3588 45.092 53.5868 45.092ZM57.0045 45.56C56.6765 45.56 56.4105 45.45 56.2065 45.23C56.0065 45.01 55.9065 44.712 55.9065 44.336V43.37C55.9065 42.99 56.0065 42.69 56.2065 42.47C56.4065 42.25 56.6725 42.14 57.0045 42.14C57.2765 42.14 57.4945 42.214 57.6585 42.362C57.8225 42.51 57.9045 42.708 57.9045 42.956L57.7965 42.83H57.9165L57.9045 42.08V41.12H58.4445V45.5H57.9045V44.87H57.7965L57.9045 44.744C57.9045 44.996 57.8225 45.196 57.6585 45.344C57.4945 45.488 57.2765 45.56 57.0045 45.56ZM57.1845 45.092C57.4085 45.092 57.5845 45.022 57.7125 44.882C57.8405 44.742 57.9045 44.548 57.9045 44.3V43.4C57.9045 43.152 57.8405 42.958 57.7125 42.818C57.5845 42.678 57.4085 42.608 57.1845 42.608C56.9565 42.608 56.7765 42.676 56.6445 42.812C56.5125 42.948 56.4465 43.144 56.4465 43.4V44.3C56.4465 44.556 56.5125 44.752 56.6445 44.888C56.7765 45.024 56.9565 45.092 57.1845 45.092Z" fill="black"/>
<mask id="path-10-inside-3_123_3" fill="white">
<path d="M31 49H69V60H31V49Z"/>
</mask>
<path d="M31 49H69V60H31V49Z" fill="#8CE6D7"/>
<path d="M69 60V59.6H31V60V60.4H69V60Z" fill="black" mask="url(#path-10-inside-3_123_3)"/>
<path d="M45.8035 56.56C45.4755 56.56 45.2175 56.472 45.0295 56.296C44.8455 56.12 44.7535 55.878 44.7535 55.57V54.82C44.7535 54.608 44.8075 54.43 44.9155 54.286C45.0275 54.138 45.1855 54.034 45.3895 53.974L45.3475 53.914C45.2235 53.746 45.1335 53.59 45.0775 53.446C45.0215 53.302 44.9935 53.158 44.9935 53.014C44.9935 52.822 45.0375 52.654 45.1255 52.51C45.2175 52.366 45.3435 52.256 45.5035 52.18C45.6675 52.1 45.8575 52.06 46.0735 52.06C46.3055 52.06 46.5055 52.102 46.6735 52.186C46.8455 52.27 46.9775 52.388 47.0695 52.54C47.1615 52.692 47.2075 52.874 47.2075 53.086H46.6675C46.6675 52.97 46.6435 52.87 46.5955 52.786C46.5475 52.702 46.4795 52.638 46.3915 52.594C46.3035 52.55 46.1975 52.528 46.0735 52.528C45.9655 52.528 45.8695 52.548 45.7855 52.588C45.7055 52.628 45.6435 52.686 45.5995 52.762C45.5555 52.834 45.5335 52.922 45.5335 53.026C45.5335 53.126 45.5535 53.234 45.5935 53.35C45.6375 53.466 45.6975 53.576 45.7735 53.68L46.8055 55.102L47.2315 54.34H47.7955L47.1175 55.534L47.8195 56.5H47.2255L46.8475 55.978C46.5515 56.366 46.2035 56.56 45.8035 56.56ZM42.5935 56.08C42.7295 56.08 42.8615 56.036 42.9895 55.948C43.1135 55.856 43.2195 55.73 43.3075 55.57L42.4255 54.352C42.3015 54.372 42.2095 54.422 42.1495 54.502C42.0855 54.582 42.0535 54.688 42.0535 54.82V55.57C42.0535 55.73 42.1015 55.856 42.1975 55.948C42.2895 56.036 42.4215 56.08 42.5935 56.08ZM42.5635 56.56C42.2355 56.56 41.9795 56.472 41.7955 56.296C41.6075 56.12 41.5135 55.878 41.5135 55.57V54.82C41.5135 54.608 41.5695 54.43 41.6815 54.286C41.7895 54.138 41.9455 54.034 42.1495 53.974L42.1075 53.914C41.9835 53.746 41.8935 53.59 41.8375 53.446C41.7815 53.302 41.7535 53.158 41.7535 53.014C41.7535 52.822 41.7995 52.654 41.8915 52.51C41.9795 52.366 42.1055 52.256 42.2695 52.18C42.4295 52.1 42.6175 52.06 42.8335 52.06C43.0655 52.06 43.2675 52.102 43.4395 52.186C43.6075 52.27 43.7375 52.388 43.8295 52.54C43.9215 52.692 43.9675 52.874 43.9675 53.086H43.4275C43.4275 52.97 43.4035 52.87 43.3555 52.786C43.3075 52.702 43.2395 52.638 43.1515 52.594C43.0635 52.55 42.9575 52.528 42.8335 52.528C42.7255 52.528 42.6315 52.548 42.5515 52.588C42.4675 52.628 42.4035 52.686 42.3595 52.762C42.3155 52.834 42.2935 52.922 42.2935 53.026C42.2935 53.126 42.3155 53.234 42.3595 53.35C42.3995 53.466 42.4575 53.576 42.5335 53.68L44.5795 56.5H43.9855L43.6075 55.978C43.3115 56.366 42.9635 56.56 42.5635 56.56ZM45.8335 56.08C45.9695 56.08 46.0995 56.036 46.2235 55.948C46.3515 55.856 46.4595 55.73 46.5475 55.57L45.6655 54.352C45.5415 54.372 45.4475 54.422 45.3835 54.502C45.3235 54.582 45.2935 54.688 45.2935 54.82V55.57C45.2935 55.73 45.3395 55.856 45.4315 55.948C45.5275 56.036 45.6615 56.08 45.8335 56.08ZM50.0252 56.56C49.7372 56.56 49.4892 56.512 49.2812 56.416C49.0772 56.32 48.9192 56.182 48.8072 56.002C48.6952 55.822 48.6372 55.608 48.6332 55.36H49.1732C49.1732 55.58 49.2472 55.754 49.3952 55.882C49.5472 56.01 49.7572 56.074 50.0252 56.074C50.2772 56.074 50.4732 56.012 50.6132 55.888C50.7572 55.764 50.8292 55.592 50.8292 55.372C50.8292 55.196 50.7812 55.042 50.6852 54.91C50.5932 54.778 50.4592 54.686 50.2832 54.634L49.6892 54.448C49.3892 54.356 49.1572 54.202 48.9932 53.986C48.8332 53.77 48.7532 53.516 48.7532 53.224C48.7532 52.988 48.8052 52.784 48.9092 52.612C49.0172 52.436 49.1672 52.3 49.3592 52.204C49.5512 52.104 49.7772 52.054 50.0372 52.054C50.4212 52.054 50.7292 52.162 50.9612 52.378C51.1932 52.59 51.3112 52.874 51.3152 53.23H50.7752C50.7752 53.014 50.7092 52.846 50.5772 52.726C50.4492 52.602 50.2672 52.54 50.0312 52.54C49.7992 52.54 49.6172 52.596 49.4852 52.708C49.3572 52.82 49.2932 52.976 49.2932 53.176C49.2932 53.356 49.3412 53.512 49.4372 53.644C49.5332 53.776 49.6712 53.87 49.8512 53.926L50.4512 54.118C50.7432 54.21 50.9692 54.366 51.1292 54.586C51.2892 54.806 51.3692 55.064 51.3692 55.36C51.3692 55.6 51.3132 55.81 51.2012 55.99C51.0892 56.17 50.9312 56.31 50.7272 56.41C50.5272 56.51 50.2932 56.56 50.0252 56.56ZM53.5928 56.56C53.2128 56.56 52.9088 56.448 52.6808 56.224C52.4528 55.996 52.3388 55.688 52.3388 55.3V53.2H52.8788V55.3C52.8788 55.548 52.9428 55.742 53.0708 55.882C53.1988 56.018 53.3728 56.086 53.5928 56.086C53.8168 56.086 53.9928 56.018 54.1208 55.882C54.2528 55.742 54.3188 55.548 54.3188 55.3V53.2H54.8588V55.3C54.8588 55.688 54.7428 55.996 54.5108 56.224C54.2788 56.448 53.9728 56.56 53.5928 56.56ZM57.3885 56.56C57.1165 56.56 56.8985 56.488 56.7345 56.344C56.5705 56.196 56.4885 55.996 56.4885 55.744L56.5965 55.87H56.4885V56.5H55.9485V52.12H56.4885V53.08L56.4765 53.83H56.5965L56.4885 53.956C56.4885 53.708 56.5705 53.51 56.7345 53.362C56.9025 53.214 57.1205 53.14 57.3885 53.14C57.7205 53.14 57.9865 53.25 58.1865 53.47C58.3865 53.69 58.4865 53.99 58.4865 54.37V55.336C58.4865 55.712 58.3865 56.01 58.1865 56.23C57.9865 56.45 57.7205 56.56 57.3885 56.56ZM57.2085 56.092C57.4365 56.092 57.6165 56.024 57.7485 55.888C57.8805 55.752 57.9465 55.556 57.9465 55.3V54.4C57.9465 54.144 57.8805 53.948 57.7485 53.812C57.6165 53.676 57.4365 53.608 57.2085 53.608C56.9885 53.608 56.8125 53.678 56.6805 53.818C56.5525 53.958 56.4885 54.152 56.4885 54.4V55.3C56.4885 55.548 56.5525 55.742 56.6805 55.882C56.8125 56.022 56.9885 56.092 57.2085 56.092Z" fill="black"/>
<mask id="path-13-inside-4_123_3" fill="white">
<path d="M31 60H69V72H31V60Z"/>
</mask>
<path d="M31 60H69V72H31V60Z" fill="#8CE6D7"/>
<path d="M69 72V71.6H31V72V72.4H69V72Z" fill="black" mask="url(#path-13-inside-4_123_3)"/>
<path d="M45.8035 68.06C45.4755 68.06 45.2175 67.972 45.0295 67.796C44.8455 67.62 44.7535 67.378 44.7535 67.07V66.32C44.7535 66.108 44.8075 65.93 44.9155 65.786C45.0275 65.638 45.1855 65.534 45.3895 65.474L45.3475 65.414C45.2235 65.246 45.1335 65.09 45.0775 64.946C45.0215 64.802 44.9935 64.658 44.9935 64.514C44.9935 64.322 45.0375 64.154 45.1255 64.01C45.2175 63.866 45.3435 63.756 45.5035 63.68C45.6675 63.6 45.8575 63.56 46.0735 63.56C46.3055 63.56 46.5055 63.602 46.6735 63.686C46.8455 63.77 46.9775 63.888 47.0695 64.04C47.1615 64.192 47.2075 64.374 47.2075 64.586H46.6675C46.6675 64.47 46.6435 64.37 46.5955 64.286C46.5475 64.202 46.4795 64.138 46.3915 64.094C46.3035 64.05 46.1975 64.028 46.0735 64.028C45.9655 64.028 45.8695 64.048 45.7855 64.088C45.7055 64.128 45.6435 64.186 45.5995 64.262C45.5555 64.334 45.5335 64.422 45.5335 64.526C45.5335 64.626 45.5535 64.734 45.5935 64.85C45.6375 64.966 45.6975 65.076 45.7735 65.18L46.8055 66.602L47.2315 65.84H47.7955L47.1175 67.034L47.8195 68H47.2255L46.8475 67.478C46.5515 67.866 46.2035 68.06 45.8035 68.06ZM42.5935 67.58C42.7295 67.58 42.8615 67.536 42.9895 67.448C43.1135 67.356 43.2195 67.23 43.3075 67.07L42.4255 65.852C42.3015 65.872 42.2095 65.922 42.1495 66.002C42.0855 66.082 42.0535 66.188 42.0535 66.32V67.07C42.0535 67.23 42.1015 67.356 42.1975 67.448C42.2895 67.536 42.4215 67.58 42.5935 67.58ZM42.5635 68.06C42.2355 68.06 41.9795 67.972 41.7955 67.796C41.6075 67.62 41.5135 67.378 41.5135 67.07V66.32C41.5135 66.108 41.5695 65.93 41.6815 65.786C41.7895 65.638 41.9455 65.534 42.1495 65.474L42.1075 65.414C41.9835 65.246 41.8935 65.09 41.8375 64.946C41.7815 64.802 41.7535 64.658 41.7535 64.514C41.7535 64.322 41.7995 64.154 41.8915 64.01C41.9795 63.866 42.1055 63.756 42.2695 63.68C42.4295 63.6 42.6175 63.56 42.8335 63.56C43.0655 63.56 43.2675 63.602 43.4395 63.686C43.6075 63.77 43.7375 63.888 43.8295 64.04C43.9215 64.192 43.9675 64.374 43.9675 64.586H43.4275C43.4275 64.47 43.4035 64.37 43.3555 64.286C43.3075 64.202 43.2395 64.138 43.1515 64.094C43.0635 64.05 42.9575 64.028 42.8335 64.028C42.7255 64.028 42.6315 64.048 42.5515 64.088C42.4675 64.128 42.4035 64.186 42.3595 64.262C42.3155 64.334 42.2935 64.422 42.2935 64.526C42.2935 64.626 42.3155 64.734 42.3595 64.85C42.3995 64.966 42.4575 65.076 42.5335 65.18L44.5795 68H43.9855L43.6075 67.478C43.3115 67.866 42.9635 68.06 42.5635 68.06ZM45.8335 67.58C45.9695 67.58 46.0995 67.536 46.2235 67.448C46.3515 67.356 46.4595 67.23 46.5475 67.07L45.6655 65.852C45.5415 65.872 45.4475 65.922 45.3835 66.002C45.3235 66.082 45.2935 66.188 45.2935 66.32V67.07C45.2935 67.23 45.3395 67.356 45.4315 67.448C45.5275 67.536 45.6615 67.58 45.8335 67.58ZM48.6572 68V63.62H49.3652L49.8212 65.036C49.8652 65.164 49.9052 65.292 49.9412 65.42C49.9772 65.544 50.0032 65.64 50.0192 65.708C50.0392 65.64 50.0652 65.544 50.0972 65.42C50.1292 65.292 50.1652 65.162 50.2052 65.03L50.6372 63.62H51.3452V68H50.8172V66.41C50.8172 66.234 50.8232 66.034 50.8352 65.81C50.8472 65.586 50.8632 65.358 50.8832 65.126C50.9032 64.89 50.9232 64.666 50.9432 64.454C50.9672 64.238 50.9872 64.05 51.0032 63.89L50.2952 66.08H49.7252L49.0112 63.89C49.0312 64.046 49.0512 64.228 49.0712 64.436C49.0912 64.64 49.1092 64.858 49.1252 65.09C49.1412 65.318 49.1552 65.546 49.1672 65.774C49.1792 66.002 49.1852 66.214 49.1852 66.41V68H48.6572ZM53.5928 68.06C53.2128 68.06 52.9088 67.948 52.6808 67.724C52.4528 67.496 52.3388 67.188 52.3388 66.8V64.7H52.8788V66.8C52.8788 67.048 52.9428 67.242 53.0708 67.382C53.1988 67.518 53.3728 67.586 53.5928 67.586C53.8168 67.586 53.9928 67.518 54.1208 67.382C54.2528 67.242 54.3188 67.048 54.3188 66.8V64.7H54.8588V66.8C54.8588 67.188 54.7428 67.496 54.5108 67.724C54.2788 67.948 53.9728 68.06 53.5928 68.06ZM57.6465 68C57.4545 68 57.2865 67.962 57.1425 67.886C56.9985 67.81 56.8865 67.702 56.8065 67.562C56.7265 67.422 56.6865 67.258 56.6865 67.07V64.112H55.5765V63.62H57.2265V67.07C57.2265 67.206 57.2645 67.314 57.3405 67.394C57.4165 67.47 57.5185 67.508 57.6465 67.508H58.6965V68H57.6465Z" fill="black"/>
<circle cx="46.5" cy="77.25" r="0.75" transform="rotate(-90 46.5 77.25)" fill="black"/>
<circle cx="50" cy="77.25" r="0.75" transform="rotate(-90 50 77.25)" fill="black"/>
<circle cx="53.5" cy="77.25" r="0.75" transform="rotate(-90 53.5 77.25)" fill="black"/>
</g>
<path d="M31 38V37.5H30.5V38H31ZM69 38H69.5V37.5H69V38ZM31 38V38.5H69V38V37.5H31V38ZM69 38H68.5V82H69H69.5V38H69ZM31 82H31.5V38H31H30.5V82H31Z" fill="black" mask="url(#path-5-inside-1_123_3)"/>
<path d="M20.0409 30H18.4929V29.688L18.9969 29.574V26.148L18.4929 26.028V25.716H20.0409V26.028L19.5369 26.148V29.574L20.0409 29.688V30ZM22.3441 26.724C22.7281 26.724 23.0181 26.818 23.2141 27.006C23.4101 27.19 23.5081 27.49 23.5081 27.906V30H22.9861V27.942C22.9861 27.682 22.9281 27.488 22.8121 27.36C22.6961 27.232 22.5141 27.168 22.2661 27.168C21.9101 27.168 21.6641 27.268 21.5281 27.468C21.3921 27.668 21.3241 27.956 21.3241 28.332V30H20.7961V26.784H21.2221L21.3001 27.222H21.3301C21.4021 27.11 21.4901 27.018 21.5941 26.946C21.7021 26.87 21.8201 26.814 21.9481 26.778C22.0761 26.742 22.2081 26.724 22.3441 26.724ZM25.6451 30.06C25.2451 30.06 24.9251 29.922 24.6851 29.646C24.4451 29.366 24.3251 28.95 24.3251 28.398C24.3251 27.846 24.4451 27.43 24.6851 27.15C24.9291 26.866 25.2511 26.724 25.6511 26.724C25.8191 26.724 25.9651 26.746 26.0891 26.79C26.2131 26.83 26.3211 26.886 26.4131 26.958C26.5051 27.03 26.5831 27.11 26.6471 27.198H26.6831C26.6791 27.146 26.6711 27.07 26.6591 26.97C26.6511 26.866 26.6471 26.784 26.6471 26.724V25.44H27.1751V30H26.7491L26.6711 29.568H26.6471C26.5831 29.66 26.5051 29.744 26.4131 29.82C26.3211 29.892 26.2111 29.95 26.0831 29.994C25.9591 30.038 25.8131 30.06 25.6451 30.06ZM25.7291 29.622C26.0691 29.622 26.3071 29.53 26.4431 29.346C26.5831 29.158 26.6531 28.876 26.6531 28.5V28.404C26.6531 28.004 26.5871 27.698 26.4551 27.486C26.3231 27.27 26.0791 27.162 25.7231 27.162C25.4391 27.162 25.2251 27.276 25.0811 27.504C24.9411 27.728 24.8711 28.03 24.8711 28.41C24.8711 28.794 24.9411 29.092 25.0811 29.304C25.2251 29.516 25.4411 29.622 25.7291 29.622ZM29.4385 26.724C29.7145 26.724 29.9505 26.784 30.1465 26.904C30.3465 27.024 30.4985 27.194 30.6025 27.414C30.7105 27.63 30.7645 27.884 30.7645 28.176V28.494H28.5625C28.5705 28.858 28.6625 29.136 28.8385 29.328C29.0185 29.516 29.2685 29.61 29.5885 29.61C29.7925 29.61 29.9725 29.592 30.1285 29.556C30.2885 29.516 30.4525 29.46 30.6205 29.388V29.85C30.4565 29.922 30.2945 29.974 30.1345 30.006C29.9745 30.042 29.7845 30.06 29.5645 30.06C29.2605 30.06 28.9905 29.998 28.7545 29.874C28.5225 29.75 28.3405 29.566 28.2085 29.322C28.0805 29.074 28.0165 28.772 28.0165 28.416C28.0165 28.064 28.0745 27.762 28.1905 27.51C28.3105 27.258 28.4765 27.064 28.6885 26.928C28.9045 26.792 29.1545 26.724 29.4385 26.724ZM29.4325 27.156C29.1805 27.156 28.9805 27.238 28.8325 27.402C28.6885 27.562 28.6025 27.786 28.5745 28.074H30.2125C30.2125 27.89 30.1845 27.73 30.1285 27.594C30.0725 27.458 29.9865 27.352 29.8705 27.276C29.7585 27.196 29.6125 27.156 29.4325 27.156ZM32.2281 28.356L31.1181 26.784H31.7181L32.5461 27.996L33.3681 26.784H33.9621L32.8521 28.356L34.0221 30H33.4221L32.5461 28.716L31.6581 30H31.0641L32.2281 28.356ZM36.7284 26.784V30H36.2004V26.784H36.7284ZM36.4704 25.578C36.5504 25.578 36.6204 25.606 36.6804 25.662C36.7444 25.714 36.7764 25.798 36.7764 25.914C36.7764 26.026 36.7444 26.11 36.6804 26.166C36.6204 26.222 36.5504 26.25 36.4704 26.25C36.3824 26.25 36.3084 26.222 36.2484 26.166C36.1884 26.11 36.1584 26.026 36.1584 25.914C36.1584 25.798 36.1884 25.714 36.2484 25.662C36.3084 25.606 36.3824 25.578 36.4704 25.578ZM39.2953 26.724C39.6793 26.724 39.9693 26.818 40.1653 27.006C40.3613 27.19 40.4593 27.49 40.4593 27.906V30H39.9373V27.942C39.9373 27.682 39.8793 27.488 39.7633 27.36C39.6473 27.232 39.4653 27.168 39.2173 27.168C38.8613 27.168 38.6153 27.268 38.4793 27.468C38.3433 27.668 38.2753 27.956 38.2753 28.332V30H37.7473V26.784H38.1733L38.2513 27.222H38.2813C38.3533 27.11 38.4413 27.018 38.5453 26.946C38.6533 26.87 38.7713 26.814 38.8993 26.778C39.0273 26.742 39.1593 26.724 39.2953 26.724ZM42.5303 29.628C42.6103 29.628 42.6923 29.622 42.7763 29.61C42.8603 29.594 42.9283 29.578 42.9803 29.562V29.964C42.9243 29.992 42.8443 30.014 42.7403 30.03C42.6363 30.05 42.5363 30.06 42.4403 30.06C42.2723 30.06 42.1163 30.032 41.9723 29.976C41.8323 29.916 41.7183 29.814 41.6303 29.67C41.5423 29.526 41.4983 29.324 41.4983 29.064V27.192H41.0423V26.94L41.5043 26.73L41.7143 26.046H42.0263V26.784H42.9563V27.192H42.0263V29.052C42.0263 29.248 42.0723 29.394 42.1643 29.49C42.2603 29.582 42.3823 29.628 42.5303 29.628ZM46.4203 28.386C46.4203 28.654 46.3843 28.892 46.3123 29.1C46.2443 29.304 46.1443 29.478 46.0123 29.622C45.8843 29.766 45.7263 29.876 45.5383 29.952C45.3543 30.024 45.1483 30.06 44.9203 30.06C44.7083 30.06 44.5123 30.024 44.3323 29.952C44.1523 29.876 43.9963 29.766 43.8643 29.622C43.7323 29.478 43.6283 29.304 43.5523 29.1C43.4803 28.892 43.4443 28.654 43.4443 28.386C43.4443 28.03 43.5043 27.73 43.6243 27.486C43.7443 27.238 43.9163 27.05 44.1403 26.922C44.3643 26.79 44.6303 26.724 44.9383 26.724C45.2303 26.724 45.4863 26.79 45.7063 26.922C45.9303 27.05 46.1043 27.238 46.2283 27.486C46.3563 27.73 46.4203 28.03 46.4203 28.386ZM43.9903 28.386C43.9903 28.638 44.0223 28.858 44.0863 29.046C44.1543 29.23 44.2583 29.372 44.3983 29.472C44.5383 29.572 44.7163 29.622 44.9323 29.622C45.1483 29.622 45.3263 29.572 45.4663 29.472C45.6063 29.372 45.7083 29.23 45.7723 29.046C45.8403 28.858 45.8743 28.638 45.8743 28.386C45.8743 28.13 45.8403 27.912 45.7723 27.732C45.7043 27.552 45.6003 27.414 45.4603 27.318C45.3243 27.218 45.1463 27.168 44.9263 27.168C44.5983 27.168 44.3603 27.276 44.2123 27.492C44.0643 27.708 43.9903 28.006 43.9903 28.386Z" fill="black"/>
<path d="M7.582 54V49.716H8.122V53.52H9.994V54H7.582ZM13.4525 52.386C13.4525 52.654 13.4165 52.892 13.3445 53.1C13.2765 53.304 13.1765 53.478 13.0445 53.622C12.9165 53.766 12.7585 53.876 12.5705 53.952C12.3865 54.024 12.1805 54.06 11.9525 54.06C11.7405 54.06 11.5445 54.024 11.3645 53.952C11.1845 53.876 11.0285 53.766 10.8965 53.622C10.7645 53.478 10.6605 53.304 10.5845 53.1C10.5125 52.892 10.4765 52.654 10.4765 52.386C10.4765 52.03 10.5365 51.73 10.6565 51.486C10.7765 51.238 10.9485 51.05 11.1725 50.922C11.3965 50.79 11.6625 50.724 11.9705 50.724C12.2625 50.724 12.5185 50.79 12.7385 50.922C12.9625 51.05 13.1365 51.238 13.2605 51.486C13.3885 51.73 13.4525 52.03 13.4525 52.386ZM11.0225 52.386C11.0225 52.638 11.0545 52.858 11.1185 53.046C11.1865 53.23 11.2905 53.372 11.4305 53.472C11.5705 53.572 11.7485 53.622 11.9645 53.622C12.1805 53.622 12.3585 53.572 12.4985 53.472C12.6385 53.372 12.7405 53.23 12.8045 53.046C12.8725 52.858 12.9065 52.638 12.9065 52.386C12.9065 52.13 12.8725 51.912 12.8045 51.732C12.7365 51.552 12.6325 51.414 12.4925 51.318C12.3565 51.218 12.1785 51.168 11.9585 51.168C11.6305 51.168 11.3925 51.276 11.2445 51.492C11.0965 51.708 11.0225 52.006 11.0225 52.386ZM17.0853 52.386C17.0853 52.654 17.0493 52.892 16.9773 53.1C16.9093 53.304 16.8093 53.478 16.6773 53.622C16.5493 53.766 16.3913 53.876 16.2033 53.952C16.0193 54.024 15.8133 54.06 15.5853 54.06C15.3733 54.06 15.1773 54.024 14.9973 53.952C14.8173 53.876 14.6613 53.766 14.5293 53.622C14.3973 53.478 14.2933 53.304 14.2173 53.1C14.1453 52.892 14.1093 52.654 14.1093 52.386C14.1093 52.03 14.1693 51.73 14.2893 51.486C14.4093 51.238 14.5813 51.05 14.8053 50.922C15.0293 50.79 15.2953 50.724 15.6033 50.724C15.8953 50.724 16.1513 50.79 16.3713 50.922C16.5953 51.05 16.7693 51.238 16.8933 51.486C17.0213 51.73 17.0853 52.03 17.0853 52.386ZM14.6553 52.386C14.6553 52.638 14.6873 52.858 14.7513 53.046C14.8193 53.23 14.9233 53.372 15.0633 53.472C15.2033 53.572 15.3813 53.622 15.5973 53.622C15.8133 53.622 15.9913 53.572 16.1313 53.472C16.2713 53.372 16.3733 53.23 16.4373 53.046C16.5053 52.858 16.5393 52.638 16.5393 52.386C16.5393 52.13 16.5053 51.912 16.4373 51.732C16.3693 51.552 16.2653 51.414 16.1253 51.318C15.9893 51.218 15.8113 51.168 15.5913 51.168C15.2633 51.168 15.0253 51.276 14.8773 51.492C14.7293 51.708 14.6553 52.006 14.6553 52.386ZM18.4441 51.822C18.4441 51.886 18.4401 51.97 18.4321 52.074C18.4281 52.178 18.4241 52.268 18.4201 52.344H18.4441C18.4681 52.312 18.5041 52.266 18.5521 52.206C18.6001 52.146 18.6481 52.086 18.6961 52.026C18.7481 51.962 18.7921 51.91 18.8281 51.87L19.8541 50.784H20.4721L19.1701 52.158L20.5621 54H19.9261L18.8101 52.5L18.4441 52.818V54H17.9221V49.44H18.4441V51.822ZM23.8152 50.784V54H23.3832L23.3052 53.574H23.2812C23.2132 53.686 23.1252 53.778 23.0172 53.85C22.9092 53.922 22.7912 53.974 22.6632 54.006C22.5352 54.042 22.4012 54.06 22.2612 54.06C22.0052 54.06 21.7892 54.02 21.6132 53.94C21.4412 53.856 21.3112 53.728 21.2232 53.556C21.1352 53.384 21.0912 53.162 21.0912 52.89V50.784H21.6252V52.854C21.6252 53.11 21.6832 53.302 21.7992 53.43C21.9152 53.558 22.0952 53.622 22.3392 53.622C22.5792 53.622 22.7672 53.578 22.9032 53.49C23.0432 53.398 23.1412 53.266 23.1972 53.094C23.2572 52.918 23.2872 52.706 23.2872 52.458V50.784H23.8152ZM26.3662 50.724C26.7622 50.724 27.0802 50.862 27.3202 51.138C27.5642 51.414 27.6862 51.83 27.6862 52.386C27.6862 52.75 27.6302 53.058 27.5182 53.31C27.4102 53.558 27.2562 53.746 27.0562 53.874C26.8602 53.998 26.6282 54.06 26.3602 54.06C26.1962 54.06 26.0502 54.038 25.9222 53.994C25.7942 53.95 25.6842 53.894 25.5922 53.826C25.5042 53.754 25.4282 53.676 25.3642 53.592H25.3282C25.3362 53.66 25.3442 53.746 25.3522 53.85C25.3602 53.954 25.3642 54.044 25.3642 54.12V55.44H24.8362V50.784H25.2682L25.3402 51.222H25.3642C25.4282 51.13 25.5042 51.046 25.5922 50.97C25.6842 50.894 25.7922 50.834 25.9162 50.79C26.0442 50.746 26.1942 50.724 26.3662 50.724ZM26.2702 51.168C26.0542 51.168 25.8802 51.21 25.7482 51.294C25.6162 51.374 25.5202 51.496 25.4602 51.66C25.4002 51.824 25.3682 52.032 25.3642 52.284V52.386C25.3642 52.65 25.3922 52.874 25.4482 53.058C25.5042 53.242 25.5982 53.382 25.7302 53.478C25.8662 53.574 26.0502 53.622 26.2822 53.622C26.4782 53.622 26.6382 53.568 26.7622 53.46C26.8902 53.352 26.9842 53.206 27.0442 53.022C27.1082 52.834 27.1402 52.62 27.1402 52.38C27.1402 52.012 27.0682 51.718 26.9242 51.498C26.7842 51.278 26.5662 51.168 26.2702 51.168ZM8.938 62H8.398V58.19H7.06V57.716H10.27V58.19H8.938V62ZM11.5815 58.73C11.9735 58.73 12.2635 58.816 12.4515 58.988C12.6395 59.16 12.7335 59.434 12.7335 59.81V62H12.3495L12.2475 61.544H12.2235C12.1315 61.66 12.0355 61.758 11.9355 61.838C11.8395 61.914 11.7275 61.97 11.5995 62.006C11.4755 62.042 11.3235 62.06 11.1435 62.06C10.9515 62.06 10.7775 62.026 10.6215 61.958C10.4695 61.89 10.3495 61.786 10.2615 61.646C10.1735 61.502 10.1295 61.322 10.1295 61.106C10.1295 60.786 10.2555 60.54 10.5075 60.368C10.7595 60.192 11.1475 60.096 11.6715 60.08L12.2175 60.062V59.87C12.2175 59.602 12.1595 59.416 12.0435 59.312C11.9275 59.208 11.7635 59.156 11.5515 59.156C11.3835 59.156 11.2235 59.182 11.0715 59.234C10.9195 59.282 10.7775 59.338 10.6455 59.402L10.4835 59.006C10.6235 58.93 10.7895 58.866 10.9815 58.814C11.1735 58.758 11.3735 58.73 11.5815 58.73ZM11.7375 60.446C11.3375 60.462 11.0595 60.526 10.9035 60.638C10.7515 60.75 10.6755 60.908 10.6755 61.112C10.6755 61.292 10.7295 61.424 10.8375 61.508C10.9495 61.592 11.0915 61.634 11.2635 61.634C11.5355 61.634 11.7615 61.56 11.9415 61.412C12.1215 61.26 12.2115 61.028 12.2115 60.716V60.428L11.7375 60.446ZM14.2548 58.55C14.2548 58.686 14.2508 58.814 14.2428 58.934C14.2388 59.05 14.2328 59.142 14.2248 59.21H14.2548C14.3468 59.074 14.4728 58.96 14.6328 58.868C14.7928 58.776 14.9988 58.73 15.2508 58.73C15.6508 58.73 15.9708 58.87 16.2108 59.15C16.4548 59.426 16.5768 59.84 16.5768 60.392C16.5768 60.76 16.5208 61.068 16.4088 61.316C16.3008 61.564 16.1468 61.75 15.9468 61.874C15.7468 61.998 15.5148 62.06 15.2508 62.06C14.9988 62.06 14.7928 62.014 14.6328 61.922C14.4728 61.83 14.3468 61.72 14.2548 61.592H14.2128L14.1048 62H13.7268V57.44H14.2548V58.55ZM15.1608 59.168C14.9328 59.168 14.7528 59.212 14.6208 59.3C14.4888 59.384 14.3948 59.516 14.3388 59.696C14.2828 59.872 14.2548 60.098 14.2548 60.374V60.398C14.2548 60.794 14.3188 61.098 14.4468 61.31C14.5788 61.518 14.8208 61.622 15.1728 61.622C15.4608 61.622 15.6748 61.516 15.8148 61.304C15.9588 61.092 16.0308 60.786 16.0308 60.386C16.0308 59.982 15.9588 59.678 15.8148 59.474C15.6748 59.27 15.4568 59.168 15.1608 59.168ZM17.9462 62H17.4182V57.44H17.9462V62ZM20.2071 58.724C20.4831 58.724 20.7191 58.784 20.9151 58.904C21.1151 59.024 21.2671 59.194 21.3711 59.414C21.4791 59.63 21.5331 59.884 21.5331 60.176V60.494H19.3311C19.3391 60.858 19.4311 61.136 19.6071 61.328C19.7871 61.516 20.0371 61.61 20.3571 61.61C20.5611 61.61 20.7411 61.592 20.8971 61.556C21.0571 61.516 21.2211 61.46 21.3891 61.388V61.85C21.2251 61.922 21.0631 61.974 20.9031 62.006C20.7431 62.042 20.5531 62.06 20.3331 62.06C20.0291 62.06 19.7591 61.998 19.5231 61.874C19.2911 61.75 19.1091 61.566 18.9771 61.322C18.8491 61.074 18.7851 60.772 18.7851 60.416C18.7851 60.064 18.8431 59.762 18.9591 59.51C19.0791 59.258 19.2451 59.064 19.4571 58.928C19.6731 58.792 19.9231 58.724 20.2071 58.724ZM20.2011 59.156C19.9491 59.156 19.7491 59.238 19.6011 59.402C19.4571 59.562 19.3711 59.786 19.3431 60.074H20.9811C20.9811 59.89 20.9531 59.73 20.8971 59.594C20.8411 59.458 20.7551 59.352 20.6391 59.276C20.5271 59.196 20.3811 59.156 20.2011 59.156Z" fill="black"/>
<path d="M84.976 71.14C84.88 71.14 84.796 71.132 84.724 71.116C84.652 71.104 84.588 71.086 84.532 71.062V70.606C84.596 70.622 84.664 70.636 84.736 70.648C84.808 70.66 84.884 70.666 84.964 70.666C85.064 70.666 85.158 70.646 85.246 70.606C85.338 70.566 85.412 70.496 85.468 70.396C85.524 70.296 85.552 70.156 85.552 69.976V65.716H86.092V69.934C86.092 70.21 86.046 70.436 85.954 70.612C85.862 70.792 85.732 70.924 85.564 71.008C85.396 71.096 85.2 71.14 84.976 71.14ZM89.8386 66.784V70H89.4066L89.3286 69.574H89.3046C89.2366 69.686 89.1486 69.778 89.0406 69.85C88.9326 69.922 88.8146 69.974 88.6866 70.006C88.5586 70.042 88.4246 70.06 88.2846 70.06C88.0286 70.06 87.8126 70.02 87.6366 69.94C87.4646 69.856 87.3346 69.728 87.2466 69.556C87.1586 69.384 87.1146 69.162 87.1146 68.89V66.784H87.6486V68.854C87.6486 69.11 87.7066 69.302 87.8226 69.43C87.9386 69.558 88.1186 69.622 88.3626 69.622C88.6026 69.622 88.7906 69.578 88.9266 69.49C89.0666 69.398 89.1646 69.266 89.2206 69.094C89.2806 68.918 89.3106 68.706 89.3106 68.458V66.784H89.8386ZM94.3876 66.724C94.7516 66.724 95.0236 66.818 95.2036 67.006C95.3836 67.19 95.4736 67.49 95.4736 67.906V70H94.9516V67.93C94.9516 67.678 94.8976 67.488 94.7896 67.36C94.6856 67.232 94.5216 67.168 94.2976 67.168C93.9856 67.168 93.7616 67.258 93.6256 67.438C93.4936 67.618 93.4276 67.88 93.4276 68.224V70H92.9056V67.93C92.9056 67.762 92.8816 67.622 92.8336 67.51C92.7856 67.394 92.7136 67.308 92.6176 67.252C92.5216 67.196 92.3976 67.168 92.2456 67.168C92.0296 67.168 91.8596 67.214 91.7356 67.306C91.6116 67.394 91.5216 67.524 91.4656 67.696C91.4136 67.868 91.3876 68.08 91.3876 68.332V70H90.8596V66.784H91.2856L91.3636 67.222H91.3936C91.4616 67.11 91.5436 67.018 91.6396 66.946C91.7396 66.87 91.8496 66.814 91.9696 66.778C92.0896 66.742 92.2136 66.724 92.3416 66.724C92.5896 66.724 92.7956 66.768 92.9596 66.856C93.1276 66.944 93.2496 67.08 93.3256 67.264H93.3556C93.4636 67.08 93.6096 66.944 93.7936 66.856C93.9816 66.768 94.1796 66.724 94.3876 66.724ZM97.997 66.724C98.393 66.724 98.711 66.862 98.951 67.138C99.195 67.414 99.317 67.83 99.317 68.386C99.317 68.75 99.261 69.058 99.149 69.31C99.041 69.558 98.887 69.746 98.687 69.874C98.491 69.998 98.259 70.06 97.991 70.06C97.827 70.06 97.681 70.038 97.553 69.994C97.425 69.95 97.315 69.894 97.223 69.826C97.135 69.754 97.059 69.676 96.995 69.592H96.959C96.967 69.66 96.975 69.746 96.983 69.85C96.991 69.954 96.995 70.044 96.995 70.12V71.44H96.467V66.784H96.899L96.971 67.222H96.995C97.059 67.13 97.135 67.046 97.223 66.97C97.315 66.894 97.423 66.834 97.547 66.79C97.675 66.746 97.825 66.724 97.997 66.724ZM97.901 67.168C97.685 67.168 97.511 67.21 97.379 67.294C97.247 67.374 97.151 67.496 97.091 67.66C97.031 67.824 96.999 68.032 96.995 68.284V68.386C96.995 68.65 97.023 68.874 97.079 69.058C97.135 69.242 97.229 69.382 97.361 69.478C97.497 69.574 97.681 69.622 97.913 69.622C98.109 69.622 98.269 69.568 98.393 69.46C98.521 69.352 98.615 69.206 98.675 69.022C98.739 68.834 98.771 68.62 98.771 68.38C98.771 68.012 98.699 67.718 98.555 67.498C98.415 67.278 98.197 67.168 97.901 67.168Z" fill="black"/>
<g clip-path="url(#clip1_123_3)">
<mask id="path-22-inside-5_123_3" fill="white">
<path d="M56 99H108V121H56V99Z"/>
</mask>
<mask id="path-24-inside-6_123_3" fill="white">
<path d="M56 99H108V110H56V99Z"/>
</mask>
<path d="M56 99H108V110H56V99Z" fill="#8CE6AA"/>
<path d="M108 110V109.6H56V110V110.4H108V110Z" fill="black" mask="url(#path-24-inside-6_123_3)"/>
<path d="M60.7141 106.5L61.8541 102.12H62.5801L63.7141 106.5H63.1681L62.8801 105.336H61.5541L61.2661 106.5H60.7141ZM61.6621 104.88H62.7661L62.4301 103.53C62.3661 103.274 62.3161 103.06 62.2801 102.888C62.2441 102.716 62.2221 102.604 62.2141 102.552C62.2061 102.604 62.1841 102.716 62.1481 102.888C62.1121 103.06 62.0621 103.272 61.9981 103.524L61.6621 104.88ZM65.6197 106.56C65.2917 106.56 65.0257 106.45 64.8217 106.23C64.6217 106.01 64.5217 105.712 64.5217 105.336V104.37C64.5217 103.99 64.6217 103.69 64.8217 103.47C65.0217 103.25 65.2877 103.14 65.6197 103.14C65.8917 103.14 66.1097 103.214 66.2737 103.362C66.4377 103.51 66.5197 103.708 66.5197 103.956L66.4117 103.83H66.5317L66.5197 103.08V102.12H67.0597V106.5H66.5197V105.87H66.4117L66.5197 105.744C66.5197 105.996 66.4377 106.196 66.2737 106.344C66.1097 106.488 65.8917 106.56 65.6197 106.56ZM65.7997 106.092C66.0237 106.092 66.1997 106.022 66.3277 105.882C66.4557 105.742 66.5197 105.548 66.5197 105.3V104.4C66.5197 104.152 66.4557 103.958 66.3277 103.818C66.1997 103.678 66.0237 103.608 65.7997 103.608C65.5717 103.608 65.3917 103.676 65.2597 103.812C65.1277 103.948 65.0617 104.144 65.0617 104.4V105.3C65.0617 105.556 65.1277 105.752 65.2597 105.888C65.3917 106.024 65.5717 106.092 65.7997 106.092ZM69.2174 106.56C68.8894 106.56 68.6234 106.45 68.4194 106.23C68.2194 106.01 68.1194 105.712 68.1194 105.336V104.37C68.1194 103.99 68.2194 103.69 68.4194 103.47C68.6194 103.25 68.8854 103.14 69.2174 103.14C69.4894 103.14 69.7074 103.214 69.8714 103.362C70.0354 103.51 70.1174 103.708 70.1174 103.956L70.0094 103.83H70.1294L70.1174 103.08V102.12H70.6574V106.5H70.1174V105.87H70.0094L70.1174 105.744C70.1174 105.996 70.0354 106.196 69.8714 106.344C69.7074 106.488 69.4894 106.56 69.2174 106.56ZM69.3974 106.092C69.6214 106.092 69.7974 106.022 69.9254 105.882C70.0534 105.742 70.1174 105.548 70.1174 105.3V104.4C70.1174 104.152 70.0534 103.958 69.9254 103.818C69.7974 103.678 69.6214 103.608 69.3974 103.608C69.1694 103.608 68.9894 103.676 68.8574 103.812C68.7254 103.948 68.6594 104.144 68.6594 104.4V105.3C68.6594 105.556 68.7254 105.752 68.8574 105.888C68.9894 106.024 69.1694 106.092 69.3974 106.092ZM75.3627 106.5V102.12H75.9027V103.992H77.3067V102.12H77.8467V106.5H77.3067V104.484H75.9027V106.5H75.3627ZM79.9143 106.56C79.5663 106.56 79.2923 106.472 79.0923 106.296C78.8923 106.116 78.7923 105.874 78.7923 105.57C78.7923 105.262 78.8923 105.02 79.0923 104.844C79.2923 104.668 79.5623 104.58 79.9023 104.58H80.9223V104.25C80.9223 104.046 80.8603 103.89 80.7363 103.782C80.6163 103.67 80.4443 103.614 80.2203 103.614C80.0243 103.614 79.8603 103.656 79.7283 103.74C79.5963 103.82 79.5203 103.93 79.5003 104.07H78.9603C78.9963 103.786 79.1303 103.56 79.3623 103.392C79.5943 103.224 79.8843 103.14 80.2323 103.14C80.6123 103.14 80.9123 103.238 81.1323 103.434C81.3523 103.63 81.4623 103.896 81.4623 104.232V106.5H80.9343V105.87H80.8443L80.9343 105.78C80.9343 106.02 80.8403 106.21 80.6523 106.35C80.4683 106.49 80.2223 106.56 79.9143 106.56ZM80.0463 106.134C80.3023 106.134 80.5123 106.07 80.6763 105.942C80.8403 105.814 80.9223 105.65 80.9223 105.45V104.982H79.9143C79.7343 104.982 79.5923 105.032 79.4883 105.132C79.3843 105.232 79.3323 105.368 79.3323 105.54C79.3323 105.724 79.3943 105.87 79.5183 105.978C79.6463 106.082 79.8223 106.134 80.0463 106.134ZM82.552 106.5V103.2H83.092V103.83H83.206L83.092 103.956C83.092 103.696 83.17 103.496 83.326 103.356C83.482 103.212 83.698 103.14 83.974 103.14C84.306 103.14 84.57 103.242 84.766 103.446C84.962 103.65 85.06 103.928 85.06 104.28V106.5H84.52V104.34C84.52 104.104 84.456 103.924 84.328 103.8C84.204 103.672 84.034 103.608 83.818 103.608C83.594 103.608 83.416 103.676 83.284 103.812C83.156 103.948 83.092 104.144 83.092 104.4V106.5H82.552ZM87.2057 106.56C86.8777 106.56 86.6117 106.45 86.4077 106.23C86.2077 106.01 86.1077 105.712 86.1077 105.336V104.37C86.1077 103.99 86.2077 103.69 86.4077 103.47C86.6077 103.25 86.8737 103.14 87.2057 103.14C87.4777 103.14 87.6957 103.214 87.8597 103.362C88.0237 103.51 88.1057 103.708 88.1057 103.956L87.9977 103.83H88.1177L88.1057 103.08V102.12H88.6457V106.5H88.1057V105.87H87.9977L88.1057 105.744C88.1057 105.996 88.0237 106.196 87.8597 106.344C87.6957 106.488 87.4777 106.56 87.2057 106.56ZM87.3857 106.092C87.6097 106.092 87.7857 106.022 87.9137 105.882C88.0417 105.742 88.1057 105.548 88.1057 105.3V104.4C88.1057 104.152 88.0417 103.958 87.9137 103.818C87.7857 103.678 87.6097 103.608 87.3857 103.608C87.1577 103.608 86.9777 103.676 86.8457 103.812C86.7137 103.948 86.6477 104.144 86.6477 104.4V105.3C86.6477 105.556 86.7137 105.752 86.8457 105.888C86.9777 106.024 87.1577 106.092 87.3857 106.092ZM91.4453 106.5C91.2533 106.5 91.0853 106.462 90.9413 106.386C90.7973 106.31 90.6853 106.202 90.6053 106.062C90.5253 105.922 90.4853 105.758 90.4853 105.57V102.612H89.3753V102.12H91.0253V105.57C91.0253 105.706 91.0633 105.814 91.1393 105.894C91.2153 105.97 91.3173 106.008 91.4453 106.008H92.4953V106.5H91.4453ZM94.593 106.56C94.333 106.56 94.105 106.508 93.909 106.404C93.717 106.3 93.567 106.154 93.459 105.966C93.355 105.774 93.303 105.552 93.303 105.3V104.4C93.303 104.144 93.355 103.922 93.459 103.734C93.567 103.546 93.717 103.4 93.909 103.296C94.105 103.192 94.333 103.14 94.593 103.14C94.853 103.14 95.079 103.192 95.271 103.296C95.467 103.4 95.617 103.546 95.721 103.734C95.829 103.922 95.883 104.144 95.883 104.4V104.982H93.831V105.3C93.831 105.56 93.897 105.76 94.029 105.9C94.161 106.036 94.349 106.104 94.593 106.104C94.801 106.104 94.969 106.068 95.097 105.996C95.225 105.92 95.303 105.808 95.331 105.66H95.871C95.835 105.936 95.699 106.156 95.463 106.32C95.231 106.48 94.941 106.56 94.593 106.56ZM95.355 104.622V104.4C95.355 104.14 95.289 103.94 95.157 103.8C95.029 103.66 94.841 103.59 94.593 103.59C94.349 103.59 94.161 103.66 94.029 103.8C93.897 103.94 93.831 104.14 93.831 104.4V104.574H95.397L95.355 104.622ZM97.0566 106.5V103.2H97.5846V103.83H97.7106L97.5366 104.22C97.5366 103.864 97.6126 103.596 97.7646 103.416C97.9206 103.232 98.1506 103.14 98.4546 103.14C98.8026 103.14 99.0786 103.25 99.2826 103.47C99.4906 103.686 99.5946 103.98 99.5946 104.352V104.55H99.0546V104.4C99.0546 104.14 98.9906 103.942 98.8626 103.806C98.7386 103.666 98.5606 103.596 98.3286 103.596C98.1006 103.596 97.9206 103.666 97.7886 103.806C97.6606 103.946 97.5966 104.144 97.5966 104.4V106.5H97.0566ZM101.788 104.04C101.64 104.04 101.52 104 101.428 103.92C101.336 103.836 101.29 103.726 101.29 103.59C101.29 103.454 101.336 103.346 101.428 103.266C101.52 103.182 101.64 103.14 101.788 103.14C101.94 103.14 102.06 103.182 102.148 103.266C102.24 103.346 102.286 103.454 102.286 103.59C102.286 103.726 102.24 103.836 102.148 103.92C102.06 104 101.94 104.04 101.788 104.04ZM101.788 106.56C101.64 106.56 101.52 106.52 101.428 106.44C101.336 106.356 101.29 106.246 101.29 106.11C101.29 105.974 101.336 105.866 101.428 105.786C101.52 105.702 101.64 105.66 101.788 105.66C101.94 105.66 102.06 105.702 102.148 105.786C102.24 105.866 102.286 105.974 102.286 106.11C102.286 106.246 102.24 106.356 102.148 106.44C102.06 106.52 101.94 106.56 101.788 106.56Z" fill="black"/>
<mask id="path-27-inside-7_123_3" fill="white">
<path d="M56 110H108V121H56V110Z"/>
</mask>
<path d="M56 110H108V121H56V110Z" fill="#8CE6AA"/>
<path d="M108 121V120.6H56V121V121.4H108V121Z" fill="black" mask="url(#path-27-inside-7_123_3)"/>
<circle cx="78.5" cy="115.75" r="0.75" transform="rotate(-90 78.5 115.75)" fill="black"/>
<circle cx="82" cy="115.75" r="0.75" transform="rotate(-90 82 115.75)" fill="black"/>
<circle cx="85.5" cy="115.75" r="0.75" transform="rotate(-90 85.5 115.75)" fill="black"/>
</g>
<path d="M56 99V98.5H55.5V99H56ZM108 99H108.5V98.5H108V99ZM56 99V99.5H108V99V98.5H56V99ZM108 99H107.5V121H108H108.5V99H108ZM56 121H56.5V99H56H55.5V121H56Z" fill="black" mask="url(#path-22-inside-5_123_3)"/>
<path d="M81 44.25L81.5 44.25L81.5 43.75L81 43.75L81 44.25ZM81 96.25L83.8867 91.25L78.1132 91.25L81 96.25ZM81 44.25L80.5 44.25L80.5 91.75L81 91.75L81.5 91.75L81.5 44.25L81 44.25ZM71 44.25L71 44.75L76 44.75L76 44.25L76 43.75L71 43.75L71 44.25ZM76 44.25L76 44.75L81 44.75L81 44.25L81 43.75L76 43.75L76 44.25Z" fill="black"/>
<path d="M15 43.5L14.5 43.5L14.5 44L15 44L15 43.5ZM29 43.5L24 40.6132L24 46.3868L29 43.5ZM15 21.5L14.5 21.5L14.5 43.5L15 43.5L15.5 43.5L15.5 21.5L15 21.5ZM15 43.5L15 44L24.5 44L24.5 43.5L24.5 43L15 43L15 43.5Z" fill="black"/>
<defs>
<clipPath id="clip0_123_3">
<path d="M31 38H69V82H31V38Z" fill="white"/>
</clipPath>
<clipPath id="clip1_123_3">
<path d="M56 99H108V121H56V99Z" fill="white"/>
</clipPath>
</defs>
</svg>
