<svg width="276" height="46" viewBox="0 0 276 46" fill="none" xmlns="http://www.w3.org/2000/svg">
<rect width="276" height="46" fill="white"/>
<rect x="3.25" y="7.25" width="37.5" height="11.5" rx="2.75" fill="#DDDDDD"/>
<rect x="3.25" y="7.25" width="37.5" height="11.5" rx="2.75" stroke="black" stroke-width="0.5"/>
<path d="M8.95434 15V10.62H10.3103C10.5703 10.62 10.7983 10.674 10.9943 10.782C11.1903 10.886 11.3423 11.032 11.4503 11.22C11.5583 11.408 11.6123 11.628 11.6123 11.88C11.6123 12.176 11.5343 12.43 11.3783 12.642C11.2263 12.854 11.0183 13 10.7543 13.08L11.6723 15H11.0363L10.1963 13.14H9.49434V15H8.95434ZM9.49434 12.654H10.3103C10.5343 12.654 10.7143 12.584 10.8503 12.444C10.9863 12.3 11.0543 12.112 11.0543 11.88C11.0543 11.644 10.9863 11.456 10.8503 11.316C10.7143 11.176 10.5343 11.106 10.3103 11.106H9.49434V12.654ZM12.552 15V14.448L13.89 13.026C14.118 12.782 14.284 12.566 14.388 12.378C14.492 12.186 14.544 12.002 14.544 11.826C14.544 11.582 14.476 11.39 14.34 11.25C14.208 11.11 14.026 11.04 13.794 11.04C13.538 11.04 13.336 11.112 13.188 11.256C13.044 11.4 12.972 11.598 12.972 11.85H12.432C12.44 11.586 12.5 11.358 12.612 11.166C12.728 10.97 12.886 10.82 13.086 10.716C13.29 10.612 13.526 10.56 13.794 10.56C14.058 10.56 14.286 10.612 14.478 10.716C14.674 10.816 14.824 10.96 14.928 11.148C15.032 11.336 15.084 11.56 15.084 11.82C15.084 12.068 15.018 12.314 14.886 12.558C14.754 12.802 14.538 13.08 14.238 13.392L13.158 14.508H15.156V15H12.552Z" fill="black"/>
<line x1="21.25" y1="7" x2="21.25" y2="19" stroke="black" stroke-width="0.5"/>
<rect x="3.25" y="7.25" width="37.5" height="11.5" rx="2.75" fill="#DDDDDD"/>
<rect x="3.25" y="7.25" width="37.5" height="11.5" rx="2.75" stroke="black" stroke-width="0.5"/>
<path d="M8.95434 15V10.62H10.3103C10.5703 10.62 10.7983 10.674 10.9943 10.782C11.1903 10.886 11.3423 11.032 11.4503 11.22C11.5583 11.408 11.6123 11.628 11.6123 11.88C11.6123 12.176 11.5343 12.43 11.3783 12.642C11.2263 12.854 11.0183 13 10.7543 13.08L11.6723 15H11.0363L10.1963 13.14H9.49434V15H8.95434ZM9.49434 12.654H10.3103C10.5343 12.654 10.7143 12.584 10.8503 12.444C10.9863 12.3 11.0543 12.112 11.0543 11.88C11.0543 11.644 10.9863 11.456 10.8503 11.316C10.7143 11.176 10.5343 11.106 10.3103 11.106H9.49434V12.654ZM12.552 15V14.448L13.89 13.026C14.118 12.782 14.284 12.566 14.388 12.378C14.492 12.186 14.544 12.002 14.544 11.826C14.544 11.582 14.476 11.39 14.34 11.25C14.208 11.11 14.026 11.04 13.794 11.04C13.538 11.04 13.336 11.112 13.188 11.256C13.044 11.4 12.972 11.598 12.972 11.85H12.432C12.44 11.586 12.5 11.358 12.612 11.166C12.728 10.97 12.886 10.82 13.086 10.716C13.29 10.612 13.526 10.56 13.794 10.56C14.058 10.56 14.286 10.612 14.478 10.716C14.674 10.816 14.824 10.96 14.928 11.148C15.032 11.336 15.084 11.56 15.084 11.82C15.084 12.068 15.018 12.314 14.886 12.558C14.754 12.802 14.538 13.08 14.238 13.392L13.158 14.508H15.156V15H12.552Z" fill="black"/>
<line x1="21.25" y1="7" x2="21.25" y2="19" stroke="black" stroke-width="0.5"/>
<g clip-path="url(#clip0_62_98)">
<rect x="3" y="27" width="38" height="12" rx="3" fill="#DDDDDD"/>
<path d="M8.95434 35V30.62H10.3103C10.5703 30.62 10.7983 30.674 10.9943 30.782C11.1903 30.886 11.3423 31.032 11.4503 31.22C11.5583 31.408 11.6123 31.628 11.6123 31.88C11.6123 32.176 11.5343 32.43 11.3783 32.642C11.2263 32.854 11.0183 33 10.7543 33.08L11.6723 35H11.0363L10.1963 33.14H9.49434V35H8.95434ZM9.49434 32.654H10.3103C10.5343 32.654 10.7143 32.584 10.8503 32.444C10.9863 32.3 11.0543 32.112 11.0543 31.88C11.0543 31.644 10.9863 31.456 10.8503 31.316C10.7143 31.176 10.5343 31.106 10.3103 31.106H9.49434V32.654ZM12.54 35V34.508H13.728V31.07L12.54 31.958V31.358L13.53 30.62H14.268V34.508H15.24V35H12.54Z" fill="black"/>
<line x1="21.25" y1="27" x2="21.25" y2="39" stroke="black" stroke-width="0.5"/>
<path d="M33.1363 35.06C32.8723 35.06 32.6403 35.008 32.4403 34.904C32.2443 34.796 32.0923 34.648 31.9843 34.46C31.8763 34.272 31.8223 34.052 31.8223 33.8H32.3623C32.3623 34.044 32.4303 34.236 32.5663 34.376C32.7063 34.512 32.8983 34.58 33.1423 34.58C33.3903 34.58 33.5823 34.508 33.7183 34.364C33.8543 34.22 33.9223 34.032 33.9223 33.8V33.488C33.9223 33.24 33.8543 33.048 33.7183 32.912C33.5823 32.776 33.3903 32.708 33.1423 32.708H32.6923V32.168L33.7783 31.112H32.0023V30.62H34.3243V31.16L33.1543 32.294V32.228C33.5543 32.228 33.8723 32.342 34.1083 32.57C34.3443 32.798 34.4623 33.104 34.4623 33.488V33.8C34.4623 34.052 34.4063 34.272 34.2943 34.46C34.1863 34.648 34.0323 34.796 33.8323 34.904C33.6323 35.008 33.4003 35.06 33.1363 35.06Z" fill="black"/>
</g>
<rect x="3.25" y="27.25" width="37.5" height="11.5" rx="2.75" stroke="black" stroke-width="0.5"/>
<path d="M44 33L46.5 34.4434L46.5 31.5566L44 33ZM54 33L54 32.75L46.25 32.75L46.25 33L46.25 33.25L54 33.25L54 33Z" fill="black"/>
<path d="M56.0005 35V30.62H56.5405V34.508H58.5205V35H56.0005ZM60.7082 35.06C60.4442 35.06 60.2162 35.01 60.0242 34.91C59.8362 34.81 59.6902 34.666 59.5862 34.478C59.4862 34.286 59.4362 34.06 59.4362 33.8V31.82C59.4362 31.556 59.4862 31.33 59.5862 31.142C59.6902 30.954 59.8362 30.81 60.0242 30.71C60.2162 30.61 60.4442 30.56 60.7082 30.56C60.9722 30.56 61.1982 30.61 61.3862 30.71C61.5782 30.81 61.7242 30.954 61.8242 31.142C61.9282 31.33 61.9802 31.554 61.9802 31.814V33.8C61.9802 34.06 61.9282 34.286 61.8242 34.478C61.7242 34.666 61.5782 34.81 61.3862 34.91C61.1982 35.01 60.9722 35.06 60.7082 35.06ZM60.7082 34.574C60.9442 34.574 61.1242 34.508 61.2482 34.376C61.3762 34.24 61.4402 34.048 61.4402 33.8V31.82C61.4402 31.572 61.3762 31.382 61.2482 31.25C61.1242 31.114 60.9442 31.046 60.7082 31.046C60.4762 31.046 60.2962 31.114 60.1682 31.25C60.0402 31.382 59.9762 31.572 59.9762 31.82V33.8C59.9762 34.048 60.0402 34.24 60.1682 34.376C60.2962 34.508 60.4762 34.574 60.7082 34.574ZM62.8059 35L63.9459 30.62H64.6719L65.8059 35H65.2599L64.9719 33.836H63.6459L63.3579 35H62.8059ZM63.7539 33.38H64.8579L64.5219 32.03C64.4579 31.774 64.4079 31.56 64.3719 31.388C64.3359 31.216 64.3139 31.104 64.3059 31.052C64.2979 31.104 64.2759 31.216 64.2399 31.388C64.2039 31.56 64.1539 31.772 64.0899 32.024L63.7539 33.38ZM66.6555 35V30.62H67.7895C68.0735 30.62 68.3175 30.674 68.5215 30.782C68.7295 30.89 68.8895 31.042 69.0015 31.238C69.1175 31.434 69.1755 31.666 69.1755 31.934V33.68C69.1755 33.948 69.1175 34.182 69.0015 34.382C68.8895 34.578 68.7295 34.73 68.5215 34.838C68.3175 34.946 68.0735 35 67.7895 35H66.6555ZM67.1955 34.52H67.7895C68.0535 34.52 68.2595 34.446 68.4075 34.298C68.5595 34.15 68.6355 33.944 68.6355 33.68V31.934C68.6355 31.674 68.5595 31.47 68.4075 31.322C68.2595 31.174 68.0535 31.1 67.7895 31.1H67.1955V34.52ZM73.8508 35V30.62H75.2068C75.4668 30.62 75.6948 30.674 75.8908 30.782C76.0868 30.886 76.2388 31.032 76.3468 31.22C76.4548 31.408 76.5088 31.628 76.5088 31.88C76.5088 32.176 76.4308 32.43 76.2748 32.642C76.1228 32.854 75.9148 33 75.6508 33.08L76.5688 35H75.9328L75.0928 33.14H74.3908V35H73.8508ZM74.3908 32.654H75.2068C75.4308 32.654 75.6108 32.584 75.7468 32.444C75.8828 32.3 75.9508 32.112 75.9508 31.88C75.9508 31.644 75.8828 31.456 75.7468 31.316C75.6108 31.176 75.4308 31.106 75.2068 31.106H74.3908V32.654ZM77.4365 35V34.508H78.6245V31.07L77.4365 31.958V31.358L78.4265 30.62H79.1645V34.508H80.1365V35H77.4365ZM85.8258 35.06C85.5618 35.06 85.3298 35.008 85.1298 34.904C84.9338 34.796 84.7818 34.648 84.6738 34.46C84.5658 34.272 84.5118 34.052 84.5118 33.8H85.0518C85.0518 34.044 85.1198 34.236 85.2558 34.376C85.3958 34.512 85.5878 34.58 85.8318 34.58C86.0798 34.58 86.2718 34.508 86.4078 34.364C86.5438 34.22 86.6118 34.032 86.6118 33.8V33.488C86.6118 33.24 86.5438 33.048 86.4078 32.912C86.2718 32.776 86.0798 32.708 85.8318 32.708H85.3818V32.168L86.4678 31.112H84.6918V30.62H87.0138V31.16L85.8438 32.294V32.228C86.2438 32.228 86.5618 32.342 86.7978 32.57C87.0338 32.798 87.1518 33.104 87.1518 33.488V33.8C87.1518 34.052 87.0958 34.272 86.9838 34.46C86.8758 34.648 86.7218 34.796 86.5218 34.904C86.3218 35.008 86.0898 35.06 85.8258 35.06Z" fill="black"/>
<g clip-path="url(#clip1_62_98)">
<rect x="98" y="27" width="38" height="12" rx="3" fill="#DDDDDD"/>
<path d="M103.954 35V30.62H105.31C105.57 30.62 105.798 30.674 105.994 30.782C106.19 30.886 106.342 31.032 106.45 31.22C106.558 31.408 106.612 31.628 106.612 31.88C106.612 32.176 106.534 32.43 106.378 32.642C106.226 32.854 106.018 33 105.754 33.08L106.672 35H106.036L105.196 33.14H104.494V35H103.954ZM104.494 32.654H105.31C105.534 32.654 105.714 32.584 105.85 32.444C105.986 32.3 106.054 32.112 106.054 31.88C106.054 31.644 105.986 31.456 105.85 31.316C105.714 31.176 105.534 31.106 105.31 31.106H104.494V32.654ZM107.54 35V34.508H108.728V31.07L107.54 31.958V31.358L108.53 30.62H109.268V34.508H110.24V35H107.54Z" fill="black"/>
<line x1="116.25" y1="27" x2="116.25" y2="39" stroke="black" stroke-width="0.5"/>
<path d="M128.136 35.06C127.872 35.06 127.64 35.008 127.44 34.904C127.244 34.796 127.092 34.648 126.984 34.46C126.876 34.272 126.822 34.052 126.822 33.8H127.362C127.362 34.044 127.43 34.236 127.566 34.376C127.706 34.512 127.898 34.58 128.142 34.58C128.39 34.58 128.582 34.508 128.718 34.364C128.854 34.22 128.922 34.032 128.922 33.8V33.488C128.922 33.24 128.854 33.048 128.718 32.912C128.582 32.776 128.39 32.708 128.142 32.708H127.692V32.168L128.778 31.112H127.002V30.62H129.324V31.16L128.154 32.294V32.228C128.554 32.228 128.872 32.342 129.108 32.57C129.344 32.798 129.462 33.104 129.462 33.488V33.8C129.462 34.052 129.406 34.272 129.294 34.46C129.186 34.648 129.032 34.796 128.832 34.904C128.632 35.008 128.4 35.06 128.136 35.06Z" fill="black"/>
</g>
<rect x="98.25" y="27.25" width="37.5" height="11.5" rx="2.75" stroke="black" stroke-width="0.5"/>
<g clip-path="url(#clip2_62_98)">
<rect x="98" y="7" width="38" height="12" rx="3" fill="#DDDDDD"/>
<path d="M103.954 15V10.62H105.31C105.57 10.62 105.798 10.674 105.994 10.782C106.19 10.886 106.342 11.032 106.45 11.22C106.558 11.408 106.612 11.628 106.612 11.88C106.612 12.176 106.534 12.43 106.378 12.642C106.226 12.854 106.018 13 105.754 13.08L106.672 15H106.036L105.196 13.14H104.494V15H103.954ZM104.494 12.654H105.31C105.534 12.654 105.714 12.584 105.85 12.444C105.986 12.3 106.054 12.112 106.054 11.88C106.054 11.644 105.986 11.456 105.85 11.316C105.714 11.176 105.534 11.106 105.31 11.106H104.494V12.654ZM107.552 15V14.448L108.89 13.026C109.118 12.782 109.284 12.566 109.388 12.378C109.492 12.186 109.544 12.002 109.544 11.826C109.544 11.582 109.476 11.39 109.34 11.25C109.208 11.11 109.026 11.04 108.794 11.04C108.538 11.04 108.336 11.112 108.188 11.256C108.044 11.4 107.972 11.598 107.972 11.85H107.432C107.44 11.586 107.5 11.358 107.612 11.166C107.728 10.97 107.886 10.82 108.086 10.716C108.29 10.612 108.526 10.56 108.794 10.56C109.058 10.56 109.286 10.612 109.478 10.716C109.674 10.816 109.824 10.96 109.928 11.148C110.032 11.336 110.084 11.56 110.084 11.82C110.084 12.068 110.018 12.314 109.886 12.558C109.754 12.802 109.538 13.08 109.238 13.392L108.158 14.508H110.156V15H107.552Z" fill="black"/>
<line x1="116.25" y1="7" x2="116.25" y2="19" stroke="black" stroke-width="0.5"/>
<path d="M128.208 15.06C127.928 15.06 127.682 15.002 127.47 14.886C127.262 14.766 127.1 14.6 126.984 14.388C126.868 14.176 126.81 13.93 126.81 13.65C126.81 13.43 126.84 13.214 126.9 13.002C126.964 12.79 127.058 12.586 127.182 12.39L128.28 10.62H128.88L127.638 12.612L127.662 12.63C127.738 12.518 127.842 12.432 127.974 12.372C128.106 12.312 128.254 12.282 128.418 12.282C128.658 12.282 128.866 12.338 129.042 12.45C129.218 12.562 129.354 12.72 129.45 12.924C129.546 13.128 129.594 13.37 129.594 13.65C129.594 13.93 129.536 14.176 129.42 14.388C129.304 14.6 129.142 14.766 128.934 14.886C128.73 15.002 128.488 15.06 128.208 15.06ZM128.202 14.58C128.458 14.58 128.664 14.496 128.82 14.328C128.976 14.156 129.054 13.93 129.054 13.65C129.054 13.37 128.976 13.146 128.82 12.978C128.664 12.806 128.458 12.72 128.202 12.72C127.946 12.72 127.74 12.806 127.584 12.978C127.428 13.146 127.35 13.37 127.35 13.65C127.35 13.93 127.428 14.156 127.584 14.328C127.74 14.496 127.946 14.58 128.202 14.58Z" fill="black"/>
</g>
<rect x="98.25" y="7.25" width="37.5" height="11.5" rx="2.75" stroke="black" stroke-width="0.5"/>
<path d="M139 13L141.5 14.4434L141.5 11.5566L139 13ZM149 13L149 12.75L141.25 12.75L141.25 13L141.25 13.25L149 13.25L149 13Z" fill="black"/>
<path d="M151.001 15V10.62H151.541V14.508H153.521V15H151.001ZM155.708 15.06C155.444 15.06 155.216 15.01 155.024 14.91C154.836 14.81 154.69 14.666 154.586 14.478C154.486 14.286 154.436 14.06 154.436 13.8V11.82C154.436 11.556 154.486 11.33 154.586 11.142C154.69 10.954 154.836 10.81 155.024 10.71C155.216 10.61 155.444 10.56 155.708 10.56C155.972 10.56 156.198 10.61 156.386 10.71C156.578 10.81 156.724 10.954 156.824 11.142C156.928 11.33 156.98 11.554 156.98 11.814V13.8C156.98 14.06 156.928 14.286 156.824 14.478C156.724 14.666 156.578 14.81 156.386 14.91C156.198 15.01 155.972 15.06 155.708 15.06ZM155.708 14.574C155.944 14.574 156.124 14.508 156.248 14.376C156.376 14.24 156.44 14.048 156.44 13.8V11.82C156.44 11.572 156.376 11.382 156.248 11.25C156.124 11.114 155.944 11.046 155.708 11.046C155.476 11.046 155.296 11.114 155.168 11.25C155.04 11.382 154.976 11.572 154.976 11.82V13.8C154.976 14.048 155.04 14.24 155.168 14.376C155.296 14.508 155.476 14.574 155.708 14.574ZM157.806 15L158.946 10.62H159.672L160.806 15H160.26L159.972 13.836H158.646L158.358 15H157.806ZM158.754 13.38H159.858L159.522 12.03C159.458 11.774 159.408 11.56 159.372 11.388C159.336 11.216 159.314 11.104 159.306 11.052C159.298 11.104 159.276 11.216 159.24 11.388C159.204 11.56 159.154 11.772 159.09 12.024L158.754 13.38ZM161.656 15V10.62H162.79C163.074 10.62 163.318 10.674 163.522 10.782C163.73 10.89 163.89 11.042 164.002 11.238C164.118 11.434 164.176 11.666 164.176 11.934V13.68C164.176 13.948 164.118 14.182 164.002 14.382C163.89 14.578 163.73 14.73 163.522 14.838C163.318 14.946 163.074 15 162.79 15H161.656ZM162.196 14.52H162.79C163.054 14.52 163.26 14.446 163.408 14.298C163.56 14.15 163.636 13.944 163.636 13.68V11.934C163.636 11.674 163.56 11.47 163.408 11.322C163.26 11.174 163.054 11.1 162.79 11.1H162.196V14.52ZM168.851 15V10.62H170.207C170.467 10.62 170.695 10.674 170.891 10.782C171.087 10.886 171.239 11.032 171.347 11.22C171.455 11.408 171.509 11.628 171.509 11.88C171.509 12.176 171.431 12.43 171.275 12.642C171.123 12.854 170.915 13 170.651 13.08L171.569 15H170.933L170.093 13.14H169.391V15H168.851ZM169.391 12.654H170.207C170.431 12.654 170.611 12.584 170.747 12.444C170.883 12.3 170.951 12.112 170.951 11.88C170.951 11.644 170.883 11.456 170.747 11.316C170.611 11.176 170.431 11.106 170.207 11.106H169.391V12.654ZM172.448 15V14.448L173.786 13.026C174.014 12.782 174.18 12.566 174.284 12.378C174.388 12.186 174.44 12.002 174.44 11.826C174.44 11.582 174.372 11.39 174.236 11.25C174.104 11.11 173.922 11.04 173.69 11.04C173.434 11.04 173.232 11.112 173.084 11.256C172.94 11.4 172.868 11.598 172.868 11.85H172.328C172.336 11.586 172.396 11.358 172.508 11.166C172.624 10.97 172.782 10.82 172.982 10.716C173.186 10.612 173.422 10.56 173.69 10.56C173.954 10.56 174.182 10.612 174.374 10.716C174.57 10.816 174.72 10.96 174.824 11.148C174.928 11.336 174.98 11.56 174.98 11.82C174.98 12.068 174.914 12.314 174.782 12.558C174.65 12.802 174.434 13.08 174.134 13.392L173.054 14.508H175.052V15H172.448ZM180.898 15.06C180.618 15.06 180.372 15.002 180.16 14.886C179.952 14.766 179.79 14.6 179.674 14.388C179.558 14.176 179.5 13.93 179.5 13.65C179.5 13.43 179.53 13.214 179.59 13.002C179.654 12.79 179.748 12.586 179.872 12.39L180.97 10.62H181.57L180.328 12.612L180.352 12.63C180.428 12.518 180.532 12.432 180.664 12.372C180.796 12.312 180.944 12.282 181.108 12.282C181.348 12.282 181.556 12.338 181.732 12.45C181.908 12.562 182.044 12.72 182.14 12.924C182.236 13.128 182.284 13.37 182.284 13.65C182.284 13.93 182.226 14.176 182.11 14.388C181.994 14.6 181.832 14.766 181.624 14.886C181.42 15.002 181.178 15.06 180.898 15.06ZM180.892 14.58C181.148 14.58 181.354 14.496 181.51 14.328C181.666 14.156 181.744 13.93 181.744 13.65C181.744 13.37 181.666 13.146 181.51 12.978C181.354 12.806 181.148 12.72 180.892 12.72C180.636 12.72 180.43 12.806 180.274 12.978C180.118 13.146 180.04 13.37 180.04 13.65C180.04 13.93 180.118 14.156 180.274 14.328C180.43 14.496 180.636 14.58 180.892 14.58Z" fill="black"/>
<g clip-path="url(#clip3_62_98)">
<rect x="188" y="27" width="38" height="12" rx="3" fill="#DDDDDD"/>
<path d="M193.954 35V30.62H195.31C195.57 30.62 195.798 30.674 195.994 30.782C196.19 30.886 196.342 31.032 196.45 31.22C196.558 31.408 196.612 31.628 196.612 31.88C196.612 32.176 196.534 32.43 196.378 32.642C196.226 32.854 196.018 33 195.754 33.08L196.672 35H196.036L195.196 33.14H194.494V35H193.954ZM194.494 32.654H195.31C195.534 32.654 195.714 32.584 195.85 32.444C195.986 32.3 196.054 32.112 196.054 31.88C196.054 31.644 195.986 31.456 195.85 31.316C195.714 31.176 195.534 31.106 195.31 31.106H194.494V32.654ZM197.54 35V34.508H198.728V31.07L197.54 31.958V31.358L198.53 30.62H199.268V34.508H200.24V35H197.54Z" fill="black"/>
<line x1="206.25" y1="27" x2="206.25" y2="39" stroke="black" stroke-width="0.5"/>
<path d="M218.136 35.06C217.872 35.06 217.64 35.008 217.44 34.904C217.244 34.796 217.092 34.648 216.984 34.46C216.876 34.272 216.822 34.052 216.822 33.8H217.362C217.362 34.044 217.43 34.236 217.566 34.376C217.706 34.512 217.898 34.58 218.142 34.58C218.39 34.58 218.582 34.508 218.718 34.364C218.854 34.22 218.922 34.032 218.922 33.8V33.488C218.922 33.24 218.854 33.048 218.718 32.912C218.582 32.776 218.39 32.708 218.142 32.708H217.692V32.168L218.778 31.112H217.002V30.62H219.324V31.16L218.154 32.294V32.228C218.554 32.228 218.872 32.342 219.108 32.57C219.344 32.798 219.462 33.104 219.462 33.488V33.8C219.462 34.052 219.406 34.272 219.294 34.46C219.186 34.648 219.032 34.796 218.832 34.904C218.632 35.008 218.4 35.06 218.136 35.06Z" fill="black"/>
</g>
<rect x="188.25" y="27.25" width="37.5" height="11.5" rx="2.75" stroke="black" stroke-width="0.5"/>
<g clip-path="url(#clip4_62_98)">
<rect x="188" y="7" width="38" height="12" rx="3" fill="#DDDDDD"/>
<path d="M193.954 15V10.62H195.31C195.57 10.62 195.798 10.674 195.994 10.782C196.19 10.886 196.342 11.032 196.45 11.22C196.558 11.408 196.612 11.628 196.612 11.88C196.612 12.176 196.534 12.43 196.378 12.642C196.226 12.854 196.018 13 195.754 13.08L196.672 15H196.036L195.196 13.14H194.494V15H193.954ZM194.494 12.654H195.31C195.534 12.654 195.714 12.584 195.85 12.444C195.986 12.3 196.054 12.112 196.054 11.88C196.054 11.644 195.986 11.456 195.85 11.316C195.714 11.176 195.534 11.106 195.31 11.106H194.494V12.654ZM197.552 15V14.448L198.89 13.026C199.118 12.782 199.284 12.566 199.388 12.378C199.492 12.186 199.544 12.002 199.544 11.826C199.544 11.582 199.476 11.39 199.34 11.25C199.208 11.11 199.026 11.04 198.794 11.04C198.538 11.04 198.336 11.112 198.188 11.256C198.044 11.4 197.972 11.598 197.972 11.85H197.432C197.44 11.586 197.5 11.358 197.612 11.166C197.728 10.97 197.886 10.82 198.086 10.716C198.29 10.612 198.526 10.56 198.794 10.56C199.058 10.56 199.286 10.612 199.478 10.716C199.674 10.816 199.824 10.96 199.928 11.148C200.032 11.336 200.084 11.56 200.084 11.82C200.084 12.068 200.018 12.314 199.886 12.558C199.754 12.802 199.538 13.08 199.238 13.392L198.158 14.508H200.156V15H197.552Z" fill="black"/>
<line x1="206.25" y1="7" x2="206.25" y2="19" stroke="black" stroke-width="0.5"/>
<path d="M217.524 15L218.766 13.008L218.742 12.99C218.666 13.102 218.562 13.188 218.43 13.248C218.298 13.308 218.15 13.338 217.986 13.338C217.75 13.338 217.542 13.282 217.362 13.17C217.186 13.058 217.05 12.9 216.954 12.696C216.858 12.488 216.81 12.246 216.81 11.97C216.81 11.686 216.868 11.44 216.984 11.232C217.1 11.02 217.262 10.856 217.47 10.74C217.678 10.62 217.92 10.56 218.196 10.56C218.476 10.56 218.72 10.62 218.928 10.74C219.14 10.856 219.304 11.02 219.42 11.232C219.536 11.44 219.594 11.686 219.594 11.97C219.594 12.19 219.562 12.406 219.498 12.618C219.438 12.83 219.346 13.034 219.222 13.23L218.124 15H217.524ZM218.202 12.9C218.458 12.9 218.664 12.816 218.82 12.648C218.976 12.476 219.054 12.25 219.054 11.97C219.054 11.69 218.976 11.466 218.82 11.298C218.664 11.126 218.458 11.04 218.202 11.04C217.946 11.04 217.74 11.126 217.584 11.298C217.428 11.466 217.35 11.69 217.35 11.97C217.35 12.25 217.428 12.476 217.584 12.648C217.74 12.816 217.946 12.9 218.202 12.9Z" fill="black"/>
</g>
<rect x="188.25" y="7.25" width="37.5" height="11.5" rx="2.75" stroke="black" stroke-width="0.5"/>
<path d="M229 13L231.5 14.4434L231.5 11.5566L229 13ZM239 13L239 12.75L231.25 12.75L231.25 13L231.25 13.25L239 13.25L239 13Z" fill="black"/>
<path d="M240.611 15L241.751 10.62H242.477L243.611 15H243.065L242.777 13.836H241.451L241.163 15H240.611ZM241.559 13.38H242.663L242.327 12.03C242.263 11.774 242.213 11.56 242.177 11.388C242.141 11.216 242.119 11.104 242.111 11.052C242.103 11.104 242.081 11.216 242.045 11.388C242.009 11.56 241.959 11.772 241.895 12.024L241.559 13.38ZM244.46 15V10.62H245.594C245.878 10.62 246.122 10.674 246.326 10.782C246.534 10.89 246.694 11.042 246.806 11.238C246.922 11.434 246.98 11.666 246.98 11.934V13.68C246.98 13.948 246.922 14.182 246.806 14.382C246.694 14.578 246.534 14.73 246.326 14.838C246.122 14.946 245.878 15 245.594 15H244.46ZM245 14.52H245.594C245.858 14.52 246.064 14.446 246.212 14.298C246.364 14.15 246.44 13.944 246.44 13.68V11.934C246.44 11.674 246.364 11.47 246.212 11.322C246.064 11.174 245.858 11.1 245.594 11.1H245V14.52ZM248.058 15V10.62H249.192C249.476 10.62 249.72 10.674 249.924 10.782C250.132 10.89 250.292 11.042 250.404 11.238C250.52 11.434 250.578 11.666 250.578 11.934V13.68C250.578 13.948 250.52 14.182 250.404 14.382C250.292 14.578 250.132 14.73 249.924 14.838C249.72 14.946 249.476 15 249.192 15H248.058ZM248.598 14.52H249.192C249.456 14.52 249.662 14.446 249.81 14.298C249.962 14.15 250.038 13.944 250.038 13.68V11.934C250.038 11.674 249.962 11.47 249.81 11.322C249.662 11.174 249.456 11.1 249.192 11.1H248.598V14.52ZM255.253 15V10.62H256.609C256.869 10.62 257.097 10.674 257.293 10.782C257.489 10.886 257.641 11.032 257.749 11.22C257.857 11.408 257.911 11.628 257.911 11.88C257.911 12.176 257.833 12.43 257.677 12.642C257.525 12.854 257.317 13 257.053 13.08L257.971 15H257.335L256.495 13.14H255.793V15H255.253ZM255.793 12.654H256.609C256.833 12.654 257.013 12.584 257.149 12.444C257.285 12.3 257.353 12.112 257.353 11.88C257.353 11.644 257.285 11.456 257.149 11.316C257.013 11.176 256.833 11.106 256.609 11.106H255.793V12.654ZM258.839 15V14.508H260.027V11.07L258.839 11.958V11.358L259.829 10.62H260.567V14.508H261.539V15H258.839ZM266.046 15V10.62H267.402C267.662 10.62 267.89 10.674 268.086 10.782C268.282 10.886 268.434 11.032 268.542 11.22C268.65 11.408 268.704 11.628 268.704 11.88C268.704 12.176 268.626 12.43 268.47 12.642C268.318 12.854 268.11 13 267.846 13.08L268.764 15H268.128L267.288 13.14H266.586V15H266.046ZM266.586 12.654H267.402C267.626 12.654 267.806 12.584 267.942 12.444C268.078 12.3 268.146 12.112 268.146 11.88C268.146 11.644 268.078 11.456 267.942 11.316C267.806 11.176 267.626 11.106 267.402 11.106H266.586V12.654ZM269.644 15V14.448L270.982 13.026C271.21 12.782 271.376 12.566 271.48 12.378C271.584 12.186 271.636 12.002 271.636 11.826C271.636 11.582 271.568 11.39 271.432 11.25C271.3 11.11 271.118 11.04 270.886 11.04C270.63 11.04 270.428 11.112 270.28 11.256C270.136 11.4 270.064 11.598 270.064 11.85H269.524C269.532 11.586 269.592 11.358 269.704 11.166C269.82 10.97 269.978 10.82 270.178 10.716C270.382 10.612 270.618 10.56 270.886 10.56C271.15 10.56 271.378 10.612 271.57 10.716C271.766 10.816 271.916 10.96 272.02 11.148C272.124 11.336 272.176 11.56 272.176 11.82C272.176 12.068 272.11 12.314 271.978 12.558C271.846 12.802 271.63 13.08 271.33 13.392L270.25 14.508H272.248V15H269.644Z" fill="black"/>
<defs>
<clipPath id="clip0_62_98">
<rect x="3" y="27" width="38" height="12" rx="3" fill="white"/>
</clipPath>
<clipPath id="clip1_62_98">
<rect x="98" y="27" width="38" height="12" rx="3" fill="white"/>
</clipPath>
<clipPath id="clip2_62_98">
<rect x="98" y="7" width="38" height="12" rx="3" fill="white"/>
</clipPath>
<clipPath id="clip3_62_98">
<rect x="188" y="27" width="38" height="12" rx="3" fill="white"/>
</clipPath>
<clipPath id="clip4_62_98">
<rect x="188" y="7" width="38" height="12" rx="3" fill="white"/>
</clipPath>
</defs>
</svg>
