<svg width="276" height="69" viewBox="0 0 276 69" fill="none" xmlns="http://www.w3.org/2000/svg">
<rect width="276" height="69" fill="white"/>
<g clip-path="url(#clip0_62_2)">
<mask id="path-1-inside-1_62_2" fill="white">
<path d="M3 5H41V58H3V5Z"/>
</mask>
<mask id="path-3-inside-2_62_2" fill="white">
<path d="M3 5H41V15H3V5Z"/>
</mask>
<path d="M41 15V14.6H3V15V15.4H41V15Z" fill="black" mask="url(#path-3-inside-2_62_2)"/>
<circle cx="18.5" cy="10.25" r="0.75" transform="rotate(-90 18.5 10.25)" fill="black"/>
<circle cx="22" cy="10.25" r="0.75" transform="rotate(-90 22 10.25)" fill="black"/>
<circle cx="25.5" cy="10.25" r="0.75" transform="rotate(-90 25.5 10.25)" fill="black"/>
<mask id="path-8-inside-3_62_2" fill="white">
<path d="M3 15H41V26H3V15Z"/>
</mask>
<path d="M3 15H41V26H3V15Z" fill="#DDDDDD"/>
<path d="M41 26V25.6H3V26V26.4H41V26Z" fill="black" mask="url(#path-8-inside-3_62_2)"/>
<mask id="path-10-inside-4_62_2" fill="white">
<path d="M3 26H41V37H3V26Z"/>
</mask>
<path d="M3 26H41V37H3V26Z" fill="#DDDDDD"/>
<path d="M41 37V36.6H3V37V37.4H41V37Z" fill="black" mask="url(#path-10-inside-4_62_2)"/>
<mask id="path-12-inside-5_62_2" fill="white">
<path d="M3 37H41V48H3V37Z"/>
</mask>
<path d="M3 37H41V48H3V37Z" fill="#DDDDDD"/>
<path d="M41 48V47.6H3V48V48.4H41V48Z" fill="black" mask="url(#path-12-inside-5_62_2)"/>
<path d="M22.016 45.0597C21.7347 45.0597 21.484 45.0114 21.2638 44.9148C21.0451 44.8182 20.8711 44.6839 20.7418 44.5121C20.614 44.3388 20.5444 44.1378 20.533 43.9091H21.07C21.0813 44.0497 21.1296 44.1712 21.2148 44.2734C21.3001 44.3743 21.4116 44.4524 21.5494 44.5078C21.6871 44.5632 21.8398 44.5909 22.0075 44.5909C22.195 44.5909 22.3612 44.5582 22.506 44.4929C22.6509 44.4276 22.7646 44.3366 22.8469 44.2202C22.9293 44.1037 22.9705 43.9688 22.9705 43.8153C22.9705 43.6548 22.9308 43.5135 22.8512 43.3913C22.7717 43.2678 22.6552 43.1712 22.5018 43.1016C22.3484 43.032 22.1609 42.9972 21.9393 42.9972H21.5898V42.5284H21.9393C22.1126 42.5284 22.2646 42.4972 22.3952 42.4347C22.5273 42.3722 22.6303 42.2841 22.7042 42.1705C22.7795 42.0568 22.8171 41.9233 22.8171 41.7699C22.8171 41.6222 22.7844 41.4936 22.7191 41.3842C22.6538 41.2749 22.5614 41.1896 22.4421 41.1286C22.3242 41.0675 22.185 41.0369 22.0245 41.0369C21.8739 41.0369 21.7319 41.0646 21.5984 41.12C21.4663 41.174 21.3583 41.2528 21.2745 41.3565C21.1907 41.4588 21.1452 41.5824 21.1381 41.7273H20.6268C20.6353 41.4986 20.7042 41.2983 20.8335 41.1264C20.9627 40.9531 21.1317 40.8182 21.3406 40.7216C21.5508 40.625 21.7816 40.5767 22.033 40.5767C22.3029 40.5767 22.5344 40.6314 22.7276 40.7408C22.9208 40.8487 23.0692 40.9915 23.1729 41.169C23.2766 41.3466 23.3285 41.5384 23.3285 41.7443C23.3285 41.9901 23.2638 42.1996 23.1346 42.3729C23.0067 42.5462 22.8327 42.6662 22.6126 42.733V42.767C22.8881 42.8125 23.1033 42.9297 23.2582 43.1186C23.413 43.3061 23.4904 43.5384 23.4904 43.8153C23.4904 44.0526 23.4258 44.2656 23.2965 44.4545C23.1687 44.642 22.994 44.7898 22.7724 44.8977C22.5508 45.0057 22.2987 45.0597 22.016 45.0597Z" fill="black"/>
<circle cx="18.5" cy="53.25" r="0.75" transform="rotate(-90 18.5 53.25)" fill="black"/>
<circle cx="22" cy="53.25" r="0.75" transform="rotate(-90 22 53.25)" fill="black"/>
<circle cx="25.5" cy="53.25" r="0.75" transform="rotate(-90 25.5 53.25)" fill="black"/>
</g>
<path d="M41 5H40.5V58H41H41.5V5H41ZM3 58H3.5V5H3H2.5V58H3Z" fill="black" mask="url(#path-1-inside-1_62_2)"/>
<path d="M44 43L46.5 44.4434L46.5 41.5566L44 43ZM54 43L54 42.75L46.25 42.75L46.25 43L46.25 43.25L54 43.25L54 43Z" fill="black"/>
<path d="M56.759 45V40.62H58.169C58.441 40.62 58.677 40.674 58.877 40.782C59.077 40.886 59.231 41.034 59.339 41.226C59.451 41.418 59.507 41.646 59.507 41.91C59.507 42.17 59.451 42.398 59.339 42.594C59.231 42.786 59.077 42.936 58.877 43.044C58.677 43.148 58.441 43.2 58.169 43.2H57.299V45H56.759ZM57.299 42.714H58.169C58.405 42.714 58.593 42.642 58.733 42.498C58.877 42.35 58.949 42.154 58.949 41.91C58.949 41.662 58.877 41.466 58.733 41.322C58.593 41.178 58.405 41.106 58.169 41.106H57.299V42.714ZM61.6047 45.06C61.1967 45.06 60.8847 44.948 60.6687 44.724C60.4527 44.496 60.3447 44.188 60.3447 43.8V40.62H60.8847V43.8C60.8847 44.04 60.9427 44.23 61.0587 44.37C61.1787 44.51 61.3607 44.58 61.6047 44.58C61.8447 44.58 62.0247 44.51 62.1447 44.37C62.2647 44.23 62.3247 44.04 62.3247 43.8V40.62H62.8647V43.8C62.8647 44.192 62.7567 44.5 62.5407 44.724C62.3287 44.948 62.0167 45.06 61.6047 45.06ZM65.2263 45.06C64.9383 45.06 64.6903 45.012 64.4823 44.916C64.2783 44.82 64.1203 44.682 64.0083 44.502C63.8963 44.322 63.8383 44.108 63.8343 43.86H64.3743C64.3743 44.08 64.4483 44.254 64.5963 44.382C64.7483 44.51 64.9583 44.574 65.2263 44.574C65.4783 44.574 65.6743 44.512 65.8143 44.388C65.9583 44.264 66.0303 44.092 66.0303 43.872C66.0303 43.696 65.9823 43.542 65.8863 43.41C65.7943 43.278 65.6603 43.186 65.4843 43.134L64.8903 42.948C64.5903 42.856 64.3583 42.702 64.1943 42.486C64.0343 42.27 63.9543 42.016 63.9543 41.724C63.9543 41.488 64.0063 41.284 64.1103 41.112C64.2183 40.936 64.3683 40.8 64.5603 40.704C64.7523 40.604 64.9783 40.554 65.2383 40.554C65.6223 40.554 65.9303 40.662 66.1623 40.878C66.3943 41.09 66.5123 41.374 66.5163 41.73H65.9763C65.9763 41.514 65.9103 41.346 65.7783 41.226C65.6503 41.102 65.4683 41.04 65.2323 41.04C65.0003 41.04 64.8183 41.096 64.6863 41.208C64.5583 41.32 64.4943 41.476 64.4943 41.676C64.4943 41.856 64.5423 42.012 64.6383 42.144C64.7343 42.276 64.8723 42.37 65.0523 42.426L65.6523 42.618C65.9443 42.71 66.1703 42.866 66.3303 43.086C66.4903 43.306 66.5703 43.564 66.5703 43.86C66.5703 44.1 66.5143 44.31 66.4023 44.49C66.2903 44.67 66.1323 44.81 65.9283 44.91C65.7283 45.01 65.4943 45.06 65.2263 45.06ZM67.558 45V40.62H68.098V42.492H69.502V40.62H70.042V45H69.502V42.984H68.098V45H67.558ZM75.9293 45.06C75.6653 45.06 75.4333 45.008 75.2333 44.904C75.0373 44.796 74.8853 44.648 74.7773 44.46C74.6693 44.272 74.6153 44.052 74.6153 43.8H75.1553C75.1553 44.044 75.2233 44.236 75.3593 44.376C75.4993 44.512 75.6913 44.58 75.9353 44.58C76.1833 44.58 76.3753 44.508 76.5113 44.364C76.6473 44.22 76.7153 44.032 76.7153 43.8V43.488C76.7153 43.24 76.6473 43.048 76.5113 42.912C76.3753 42.776 76.1833 42.708 75.9353 42.708H75.4853V42.168L76.5713 41.112H74.7953V40.62H77.1173V41.16L75.9473 42.294V42.228C76.3473 42.228 76.6653 42.342 76.9013 42.57C77.1373 42.798 77.2553 43.104 77.2553 43.488V43.8C77.2553 44.052 77.1993 44.272 77.0873 44.46C76.9793 44.648 76.8253 44.796 76.6253 44.904C76.4253 45.008 76.1933 45.06 75.9293 45.06Z" fill="black"/>
<g clip-path="url(#clip1_62_2)">
<mask id="path-20-inside-6_62_2" fill="white">
<path d="M98 5H136V58H98V5Z"/>
</mask>
<mask id="path-22-inside-7_62_2" fill="white">
<path d="M98 5H136V15H98V5Z"/>
</mask>
<path d="M136 15V14.6H98V15V15.4H136V15Z" fill="black" mask="url(#path-22-inside-7_62_2)"/>
<circle cx="113.5" cy="10.25" r="0.75" transform="rotate(-90 113.5 10.25)" fill="black"/>
<circle cx="117" cy="10.25" r="0.75" transform="rotate(-90 117 10.25)" fill="black"/>
<circle cx="120.5" cy="10.25" r="0.75" transform="rotate(-90 120.5 10.25)" fill="black"/>
<mask id="path-27-inside-8_62_2" fill="white">
<path d="M98 15H136V26H98V15Z"/>
</mask>
<path d="M98 15H136V26H98V15Z" fill="#DDDDDD"/>
<path d="M136 26V25.6H98V26V26.4H136V26Z" fill="black" mask="url(#path-27-inside-8_62_2)"/>
<mask id="path-29-inside-9_62_2" fill="white">
<path d="M98 26H136V37H98V26Z"/>
</mask>
<path d="M98 26H136V37H98V26Z" fill="#DDDDDD"/>
<path d="M136 37V36.6H98V37V37.4H136V37Z" fill="black" mask="url(#path-29-inside-9_62_2)"/>
<path d="M117.028 34.0597C116.85 34.0568 116.671 34.0227 116.492 33.9574C116.313 33.892 116.149 33.782 116.002 33.6271C115.854 33.4709 115.735 33.2599 115.646 32.9943C115.556 32.7273 115.511 32.392 115.511 31.9886C115.511 31.6023 115.548 31.2599 115.62 30.9616C115.693 30.6619 115.798 30.4098 115.935 30.2053C116.073 29.9993 116.239 29.843 116.434 29.7365C116.63 29.63 116.851 29.5767 117.097 29.5767C117.341 29.5767 117.558 29.6257 117.749 29.7237C117.94 29.8203 118.097 29.9553 118.217 30.1286C118.338 30.3018 118.416 30.5014 118.452 30.7273H117.932C117.884 30.5312 117.79 30.3686 117.651 30.2393C117.511 30.1101 117.327 30.0455 117.097 30.0455C116.759 30.0455 116.492 30.1925 116.298 30.4865C116.104 30.7805 116.007 31.1932 116.006 31.7244H116.04C116.119 31.6037 116.214 31.5007 116.323 31.4155C116.434 31.3288 116.556 31.2621 116.69 31.2152C116.823 31.1683 116.965 31.1449 117.114 31.1449C117.364 31.1449 117.592 31.2074 117.8 31.3324C118.007 31.456 118.173 31.6271 118.298 31.8459C118.423 32.0632 118.486 32.3125 118.486 32.5938C118.486 32.8636 118.426 33.1108 118.305 33.3352C118.184 33.5582 118.014 33.7358 117.796 33.8679C117.578 33.9986 117.323 34.0625 117.028 34.0597ZM117.028 33.5909C117.207 33.5909 117.368 33.5462 117.51 33.4567C117.653 33.3672 117.766 33.2472 117.849 33.0966C117.933 32.946 117.975 32.7784 117.975 32.5938C117.975 32.4134 117.934 32.2493 117.853 32.1016C117.774 31.9524 117.663 31.8338 117.523 31.7457C117.384 31.6577 117.225 31.6136 117.046 31.6136C116.911 31.6136 116.785 31.6406 116.668 31.6946C116.552 31.7472 116.45 31.8196 116.362 31.9119C116.275 32.0043 116.207 32.1101 116.157 32.2294C116.107 32.3473 116.082 32.4716 116.082 32.6023C116.082 32.7756 116.123 32.9375 116.204 33.0881C116.286 33.2386 116.399 33.3601 116.541 33.4524C116.684 33.5447 116.847 33.5909 117.028 33.5909Z" fill="black"/>
<mask id="path-32-inside-10_62_2" fill="white">
<path d="M98 37H136V48H98V37Z"/>
</mask>
<path d="M98 37H136V48H98V37Z" fill="#DDDDDD"/>
<path d="M136 48V47.6H98V48V48.4H136V48Z" fill="black" mask="url(#path-32-inside-10_62_2)"/>
<path d="M117.016 45.0597C116.735 45.0597 116.484 45.0114 116.264 44.9148C116.045 44.8182 115.871 44.6839 115.742 44.5121C115.614 44.3388 115.544 44.1378 115.533 43.9091H116.07C116.081 44.0497 116.13 44.1712 116.215 44.2734C116.3 44.3743 116.412 44.4524 116.549 44.5078C116.687 44.5632 116.84 44.5909 117.007 44.5909C117.195 44.5909 117.361 44.5582 117.506 44.4929C117.651 44.4276 117.765 44.3366 117.847 44.2202C117.929 44.1037 117.971 43.9688 117.971 43.8153C117.971 43.6548 117.931 43.5135 117.851 43.3913C117.772 43.2678 117.655 43.1712 117.502 43.1016C117.348 43.032 117.161 42.9972 116.939 42.9972H116.59V42.5284H116.939C117.113 42.5284 117.265 42.4972 117.395 42.4347C117.527 42.3722 117.63 42.2841 117.704 42.1705C117.779 42.0568 117.817 41.9233 117.817 41.7699C117.817 41.6222 117.784 41.4936 117.719 41.3842C117.654 41.2749 117.561 41.1896 117.442 41.1286C117.324 41.0675 117.185 41.0369 117.025 41.0369C116.874 41.0369 116.732 41.0646 116.598 41.12C116.466 41.174 116.358 41.2528 116.275 41.3565C116.191 41.4588 116.145 41.5824 116.138 41.7273H115.627C115.635 41.4986 115.704 41.2983 115.833 41.1264C115.963 40.9531 116.132 40.8182 116.341 40.7216C116.551 40.625 116.782 40.5767 117.033 40.5767C117.303 40.5767 117.534 40.6314 117.728 40.7408C117.921 40.8487 118.069 40.9915 118.173 41.169C118.277 41.3466 118.328 41.5384 118.328 41.7443C118.328 41.9901 118.264 42.1996 118.135 42.3729C118.007 42.5462 117.833 42.6662 117.613 42.733V42.767C117.888 42.8125 118.103 42.9297 118.258 43.1186C118.413 43.3061 118.49 43.5384 118.49 43.8153C118.49 44.0526 118.426 44.2656 118.297 44.4545C118.169 44.642 117.994 44.7898 117.772 44.8977C117.551 45.0057 117.299 45.0597 117.016 45.0597Z" fill="black"/>
<circle cx="113.5" cy="53.25" r="0.75" transform="rotate(-90 113.5 53.25)" fill="black"/>
<circle cx="117" cy="53.25" r="0.75" transform="rotate(-90 117 53.25)" fill="black"/>
<circle cx="120.5" cy="53.25" r="0.75" transform="rotate(-90 120.5 53.25)" fill="black"/>
</g>
<path d="M136 5H135.5V58H136H136.5V5H136ZM98 58H98.5V5H98H97.5V58H98Z" fill="black" mask="url(#path-20-inside-6_62_2)"/>
<path d="M139 32L141.5 33.4434L141.5 30.5566L139 32ZM149 32L149 31.75L141.25 31.75L141.25 32L141.25 32.25L149 32.25L149 32Z" fill="black"/>
<path d="M151.759 34V29.62H153.169C153.441 29.62 153.677 29.674 153.877 29.782C154.077 29.886 154.231 30.034 154.339 30.226C154.451 30.418 154.507 30.646 154.507 30.91C154.507 31.17 154.451 31.398 154.339 31.594C154.231 31.786 154.077 31.936 153.877 32.044C153.677 32.148 153.441 32.2 153.169 32.2H152.299V34H151.759ZM152.299 31.714H153.169C153.405 31.714 153.593 31.642 153.733 31.498C153.877 31.35 153.949 31.154 153.949 30.91C153.949 30.662 153.877 30.466 153.733 30.322C153.593 30.178 153.405 30.106 153.169 30.106H152.299V31.714ZM156.605 34.06C156.197 34.06 155.885 33.948 155.669 33.724C155.453 33.496 155.345 33.188 155.345 32.8V29.62H155.885V32.8C155.885 33.04 155.943 33.23 156.059 33.37C156.179 33.51 156.361 33.58 156.605 33.58C156.845 33.58 157.025 33.51 157.145 33.37C157.265 33.23 157.325 33.04 157.325 32.8V29.62H157.865V32.8C157.865 33.192 157.757 33.5 157.541 33.724C157.329 33.948 157.017 34.06 156.605 34.06ZM160.226 34.06C159.938 34.06 159.69 34.012 159.482 33.916C159.278 33.82 159.12 33.682 159.008 33.502C158.896 33.322 158.838 33.108 158.834 32.86H159.374C159.374 33.08 159.448 33.254 159.596 33.382C159.748 33.51 159.958 33.574 160.226 33.574C160.478 33.574 160.674 33.512 160.814 33.388C160.958 33.264 161.03 33.092 161.03 32.872C161.03 32.696 160.982 32.542 160.886 32.41C160.794 32.278 160.66 32.186 160.484 32.134L159.89 31.948C159.59 31.856 159.358 31.702 159.194 31.486C159.034 31.27 158.954 31.016 158.954 30.724C158.954 30.488 159.006 30.284 159.11 30.112C159.218 29.936 159.368 29.8 159.56 29.704C159.752 29.604 159.978 29.554 160.238 29.554C160.622 29.554 160.93 29.662 161.162 29.878C161.394 30.09 161.512 30.374 161.516 30.73H160.976C160.976 30.514 160.91 30.346 160.778 30.226C160.65 30.102 160.468 30.04 160.232 30.04C160 30.04 159.818 30.096 159.686 30.208C159.558 30.32 159.494 30.476 159.494 30.676C159.494 30.856 159.542 31.012 159.638 31.144C159.734 31.276 159.872 31.37 160.052 31.426L160.652 31.618C160.944 31.71 161.17 31.866 161.33 32.086C161.49 32.306 161.57 32.564 161.57 32.86C161.57 33.1 161.514 33.31 161.402 33.49C161.29 33.67 161.132 33.81 160.928 33.91C160.728 34.01 160.494 34.06 160.226 34.06ZM162.558 34V29.62H163.098V31.492H164.502V29.62H165.042V34H164.502V31.984H163.098V34H162.558ZM171.001 34.06C170.721 34.06 170.475 34.002 170.263 33.886C170.055 33.766 169.893 33.6 169.777 33.388C169.661 33.176 169.603 32.93 169.603 32.65C169.603 32.43 169.633 32.214 169.693 32.002C169.757 31.79 169.851 31.586 169.975 31.39L171.073 29.62H171.673L170.431 31.612L170.455 31.63C170.531 31.518 170.635 31.432 170.767 31.372C170.899 31.312 171.047 31.282 171.211 31.282C171.451 31.282 171.659 31.338 171.835 31.45C172.011 31.562 172.147 31.72 172.243 31.924C172.339 32.128 172.387 32.37 172.387 32.65C172.387 32.93 172.329 33.176 172.213 33.388C172.097 33.6 171.935 33.766 171.727 33.886C171.523 34.002 171.281 34.06 171.001 34.06ZM170.995 33.58C171.251 33.58 171.457 33.496 171.613 33.328C171.769 33.156 171.847 32.93 171.847 32.65C171.847 32.37 171.769 32.146 171.613 31.978C171.457 31.806 171.251 31.72 170.995 31.72C170.739 31.72 170.533 31.806 170.377 31.978C170.221 32.146 170.143 32.37 170.143 32.65C170.143 32.93 170.221 33.156 170.377 33.328C170.533 33.496 170.739 33.58 170.995 33.58Z" fill="black"/>
<g clip-path="url(#clip2_62_2)">
<mask id="path-40-inside-11_62_2" fill="white">
<path d="M188 5H226V58H188V5Z"/>
</mask>
<mask id="path-42-inside-12_62_2" fill="white">
<path d="M188 5H226V15H188V5Z"/>
</mask>
<path d="M226 15V14.6H188V15V15.4H226V15Z" fill="black" mask="url(#path-42-inside-12_62_2)"/>
<circle cx="203.5" cy="10.25" r="0.75" transform="rotate(-90 203.5 10.25)" fill="black"/>
<circle cx="207" cy="10.25" r="0.75" transform="rotate(-90 207 10.25)" fill="black"/>
<circle cx="210.5" cy="10.25" r="0.75" transform="rotate(-90 210.5 10.25)" fill="black"/>
<mask id="path-47-inside-13_62_2" fill="white">
<path d="M188 15H226V26H188V15Z"/>
</mask>
<path d="M188 15H226V26H188V15Z" fill="#DDDDDD"/>
<path d="M226 26V25.6H188V26V26.4H226V26Z" fill="black" mask="url(#path-47-inside-13_62_2)"/>
<mask id="path-49-inside-14_62_2" fill="white">
<path d="M188 26H226V37H188V26Z"/>
</mask>
<path d="M188 26H226V37H188V26Z" fill="#DDDDDD"/>
<path d="M226 37V36.6H188V37V37.4H226V37Z" fill="black" mask="url(#path-49-inside-14_62_2)"/>
<mask id="path-51-inside-15_62_2" fill="white">
<path d="M188 37H226V48H188V37Z"/>
</mask>
<path d="M188 37H226V48H188V37Z" fill="#DDDDDD"/>
<path d="M226 48V47.6H188V48V48.4H226V48Z" fill="black" mask="url(#path-51-inside-15_62_2)"/>
<path d="M206.969 40.5767C207.148 40.5781 207.327 40.6122 207.506 40.679C207.685 40.7457 207.848 40.8565 207.996 41.0114C208.144 41.1648 208.262 41.3743 208.352 41.6399C208.441 41.9055 208.486 42.2386 208.486 42.6392C208.486 43.027 208.449 43.3714 208.375 43.6726C208.303 43.9723 208.198 44.2251 208.06 44.4311C207.923 44.6371 207.757 44.7933 207.561 44.8999C207.367 45.0064 207.146 45.0597 206.901 45.0597C206.656 45.0597 206.438 45.0114 206.247 44.9148C206.056 44.8168 205.9 44.6811 205.778 44.5078C205.657 44.3331 205.58 44.1307 205.546 43.9006H206.065C206.112 44.1009 206.205 44.2663 206.345 44.397C206.485 44.5263 206.671 44.5909 206.901 44.5909C207.237 44.5909 207.503 44.4439 207.698 44.1499C207.894 43.8558 207.992 43.4403 207.992 42.9034H207.957C207.878 43.0227 207.783 43.1257 207.674 43.2124C207.565 43.299 207.443 43.3658 207.31 43.4126C207.176 43.4595 207.034 43.483 206.884 43.483C206.634 43.483 206.404 43.4212 206.195 43.2976C205.988 43.1726 205.822 43.0014 205.697 42.7841C205.573 42.5653 205.511 42.3153 205.511 42.0341C205.511 41.767 205.571 41.5227 205.69 41.3011C205.811 41.0781 205.98 40.9006 206.198 40.7685C206.416 40.6364 206.673 40.5724 206.969 40.5767ZM206.969 41.0455C206.79 41.0455 206.629 41.0902 206.485 41.1797C206.343 41.2678 206.23 41.3871 206.146 41.5376C206.064 41.6868 206.023 41.8523 206.023 42.0341C206.023 42.2159 206.063 42.3814 206.142 42.5305C206.223 42.6783 206.333 42.7962 206.472 42.8842C206.613 42.9709 206.773 43.0142 206.952 43.0142C207.087 43.0142 207.212 42.9879 207.329 42.9354C207.445 42.8814 207.547 42.8082 207.634 42.7159C207.722 42.6222 207.791 42.5163 207.84 42.3984C207.89 42.2791 207.915 42.1548 207.915 42.0256C207.915 41.8551 207.874 41.6953 207.791 41.5462C207.71 41.397 207.598 41.2763 207.455 41.1839C207.313 41.0916 207.151 41.0455 206.969 41.0455Z" fill="black"/>
<circle cx="203.5" cy="53.25" r="0.75" transform="rotate(-90 203.5 53.25)" fill="black"/>
<circle cx="207" cy="53.25" r="0.75" transform="rotate(-90 207 53.25)" fill="black"/>
<circle cx="210.5" cy="53.25" r="0.75" transform="rotate(-90 210.5 53.25)" fill="black"/>
</g>
<path d="M226 5H225.5V58H226H226.5V5H226ZM188 58H188.5V5H188H187.5V58H188Z" fill="black" mask="url(#path-40-inside-11_62_2)"/>
<path d="M229 43L231.5 44.4434L231.5 41.5566L229 43ZM239 43L239 42.75L231.25 42.75L231.25 43L231.25 43.25L239 43.25L239 43Z" fill="black"/>
<path d="M241.404 45L242.544 40.62H243.27L244.404 45H243.858L243.57 43.836H242.244L241.956 45H241.404ZM242.352 43.38H243.456L243.12 42.03C243.056 41.774 243.006 41.56 242.97 41.388C242.934 41.216 242.912 41.104 242.904 41.052C242.896 41.104 242.874 41.216 242.838 41.388C242.802 41.56 242.752 41.772 242.688 42.024L242.352 43.38ZM245.253 45V40.62H246.387C246.671 40.62 246.915 40.674 247.119 40.782C247.327 40.89 247.487 41.042 247.599 41.238C247.715 41.434 247.773 41.666 247.773 41.934V43.68C247.773 43.948 247.715 44.182 247.599 44.382C247.487 44.578 247.327 44.73 247.119 44.838C246.915 44.946 246.671 45 246.387 45H245.253ZM245.793 44.52H246.387C246.651 44.52 246.857 44.446 247.005 44.298C247.157 44.15 247.233 43.944 247.233 43.68V41.934C247.233 41.674 247.157 41.47 247.005 41.322C246.857 41.174 246.651 41.1 246.387 41.1H245.793V44.52ZM248.851 45V40.62H249.985C250.269 40.62 250.513 40.674 250.717 40.782C250.925 40.89 251.085 41.042 251.197 41.238C251.313 41.434 251.371 41.666 251.371 41.934V43.68C251.371 43.948 251.313 44.182 251.197 44.382C251.085 44.578 250.925 44.73 250.717 44.838C250.513 44.946 250.269 45 249.985 45H248.851ZM249.391 44.52H249.985C250.249 44.52 250.455 44.446 250.603 44.298C250.755 44.15 250.831 43.944 250.831 43.68V41.934C250.831 41.674 250.755 41.47 250.603 41.322C250.455 41.174 250.249 41.1 249.985 41.1H249.391V44.52Z" fill="black"/>
<defs>
<clipPath id="clip0_62_2">
<path d="M3 5H41V58H3V5Z" fill="white"/>
</clipPath>
<clipPath id="clip1_62_2">
<path d="M98 5H136V58H98V5Z" fill="white"/>
</clipPath>
<clipPath id="clip2_62_2">
<path d="M188 5H226V58H188V5Z" fill="white"/>
</clipPath>
</defs>
</svg>
